G75*
G70*
%OFA0B0*%
%FSLAX24Y24*%
%IPPOS*%
%LPD*%
%AMOC8*
5,1,8,0,0,1.08239X$1,22.5*
%
%ADD10C,0.0000*%
%ADD11R,0.0280X0.0580*%
%ADD12R,0.0580X0.0280*%
%ADD13R,0.0474X0.0513*%
%ADD14R,0.0513X0.0474*%
%ADD15R,0.0966X0.0237*%
%ADD16C,0.0297*%
%ADD17C,0.0674*%
%ADD18R,0.0828X0.0828*%
%ADD19R,0.0828X0.0631*%
%ADD20C,0.0820*%
%ADD21R,0.0680X0.0680*%
%ADD22OC8,0.0680*%
%ADD23R,0.0395X0.0395*%
%ADD24R,0.0380X0.0680*%
%ADD25C,0.0474*%
%ADD26C,0.0500*%
D10*
X000645Y000766D02*
X000645Y020266D01*
X013645Y020266D01*
X013645Y000766D01*
X000645Y000766D01*
X002258Y004854D02*
X002260Y004874D01*
X002266Y004894D01*
X002275Y004912D01*
X002288Y004929D01*
X002303Y004942D01*
X002321Y004952D01*
X002341Y004959D01*
X002361Y004962D01*
X002381Y004961D01*
X002401Y004956D01*
X002420Y004948D01*
X002437Y004936D01*
X002451Y004921D01*
X002462Y004903D01*
X002470Y004884D01*
X002474Y004864D01*
X002474Y004844D01*
X002470Y004824D01*
X002462Y004805D01*
X002451Y004787D01*
X002437Y004772D01*
X002420Y004760D01*
X002401Y004752D01*
X002381Y004747D01*
X002361Y004746D01*
X002341Y004749D01*
X002321Y004756D01*
X002303Y004766D01*
X002288Y004779D01*
X002275Y004796D01*
X002266Y004814D01*
X002260Y004834D01*
X002258Y004854D01*
X002258Y006428D02*
X002260Y006448D01*
X002266Y006468D01*
X002275Y006486D01*
X002288Y006503D01*
X002303Y006516D01*
X002321Y006526D01*
X002341Y006533D01*
X002361Y006536D01*
X002381Y006535D01*
X002401Y006530D01*
X002420Y006522D01*
X002437Y006510D01*
X002451Y006495D01*
X002462Y006477D01*
X002470Y006458D01*
X002474Y006438D01*
X002474Y006418D01*
X002470Y006398D01*
X002462Y006379D01*
X002451Y006361D01*
X002437Y006346D01*
X002420Y006334D01*
X002401Y006326D01*
X002381Y006321D01*
X002361Y006320D01*
X002341Y006323D01*
X002321Y006330D01*
X002303Y006340D01*
X002288Y006353D01*
X002275Y006370D01*
X002266Y006388D01*
X002260Y006408D01*
X002258Y006428D01*
X002258Y014729D02*
X002260Y014749D01*
X002266Y014769D01*
X002275Y014787D01*
X002288Y014804D01*
X002303Y014817D01*
X002321Y014827D01*
X002341Y014834D01*
X002361Y014837D01*
X002381Y014836D01*
X002401Y014831D01*
X002420Y014823D01*
X002437Y014811D01*
X002451Y014796D01*
X002462Y014778D01*
X002470Y014759D01*
X002474Y014739D01*
X002474Y014719D01*
X002470Y014699D01*
X002462Y014680D01*
X002451Y014662D01*
X002437Y014647D01*
X002420Y014635D01*
X002401Y014627D01*
X002381Y014622D01*
X002361Y014621D01*
X002341Y014624D01*
X002321Y014631D01*
X002303Y014641D01*
X002288Y014654D01*
X002275Y014671D01*
X002266Y014689D01*
X002260Y014709D01*
X002258Y014729D01*
X002258Y016303D02*
X002260Y016323D01*
X002266Y016343D01*
X002275Y016361D01*
X002288Y016378D01*
X002303Y016391D01*
X002321Y016401D01*
X002341Y016408D01*
X002361Y016411D01*
X002381Y016410D01*
X002401Y016405D01*
X002420Y016397D01*
X002437Y016385D01*
X002451Y016370D01*
X002462Y016352D01*
X002470Y016333D01*
X002474Y016313D01*
X002474Y016293D01*
X002470Y016273D01*
X002462Y016254D01*
X002451Y016236D01*
X002437Y016221D01*
X002420Y016209D01*
X002401Y016201D01*
X002381Y016196D01*
X002361Y016195D01*
X002341Y016198D01*
X002321Y016205D01*
X002303Y016215D01*
X002288Y016228D01*
X002275Y016245D01*
X002266Y016263D01*
X002260Y016283D01*
X002258Y016303D01*
D11*
X006543Y017206D03*
X006858Y017206D03*
X007173Y017206D03*
X007488Y017206D03*
X007803Y017206D03*
X008117Y017206D03*
X008432Y017206D03*
X008747Y017206D03*
X008747Y013826D03*
X008432Y013826D03*
X008117Y013826D03*
X007803Y013826D03*
X007488Y013826D03*
X007173Y013826D03*
X006858Y013826D03*
X006543Y013826D03*
X006543Y007331D03*
X006858Y007331D03*
X007173Y007331D03*
X007488Y007331D03*
X007803Y007331D03*
X008117Y007331D03*
X008432Y007331D03*
X008747Y007331D03*
X008747Y003951D03*
X008432Y003951D03*
X008117Y003951D03*
X007803Y003951D03*
X007488Y003951D03*
X007173Y003951D03*
X006858Y003951D03*
X006543Y003951D03*
D12*
X005955Y004539D03*
X005955Y004854D03*
X005955Y005169D03*
X005955Y005484D03*
X005955Y005798D03*
X005955Y006113D03*
X005955Y006428D03*
X005955Y006743D03*
X009335Y006743D03*
X009335Y006428D03*
X009335Y006113D03*
X009335Y005798D03*
X009335Y005484D03*
X009335Y005169D03*
X009335Y004854D03*
X009335Y004539D03*
X009335Y014414D03*
X009335Y014729D03*
X009335Y015044D03*
X009335Y015359D03*
X009335Y015673D03*
X009335Y015988D03*
X009335Y016303D03*
X009335Y016618D03*
X005955Y016618D03*
X005955Y016303D03*
X005955Y015988D03*
X005955Y015673D03*
X005955Y015359D03*
X005955Y015044D03*
X005955Y014729D03*
X005955Y014414D03*
D13*
X004480Y015141D03*
X004480Y016016D03*
X003810Y016016D03*
X003810Y015141D03*
X003810Y017766D03*
X004480Y017766D03*
X006645Y012351D03*
X006645Y011681D03*
X007520Y011681D03*
X007520Y012351D03*
X004480Y007891D03*
X003810Y007891D03*
X003810Y006141D03*
X004480Y006141D03*
X004480Y005266D03*
X003810Y005266D03*
X006645Y002476D03*
X006645Y001806D03*
X007520Y001806D03*
X007520Y002476D03*
D14*
X009270Y002476D03*
X009270Y001806D03*
X010145Y001806D03*
X010145Y002476D03*
X009645Y008806D03*
X009645Y009476D03*
X009270Y011681D03*
X009270Y012351D03*
X010145Y012351D03*
X010145Y011681D03*
X011645Y009476D03*
X011645Y008806D03*
X006145Y008806D03*
X006145Y009476D03*
X004480Y008766D03*
X003810Y008766D03*
X003810Y007016D03*
X004480Y007016D03*
X004480Y004391D03*
X004480Y003516D03*
X003810Y003516D03*
X003810Y004391D03*
X003810Y013391D03*
X003810Y014266D03*
X004480Y014266D03*
X004480Y013391D03*
X004480Y016891D03*
X003810Y016891D03*
X003810Y018641D03*
X004480Y018641D03*
X006145Y018681D03*
X006145Y019351D03*
X009645Y019351D03*
X009645Y018681D03*
X011645Y018681D03*
X011645Y019351D03*
D15*
X002672Y016028D03*
X002672Y015772D03*
X002672Y015516D03*
X002672Y015260D03*
X002672Y015004D03*
X002672Y006153D03*
X002672Y005897D03*
X002672Y005641D03*
X002672Y005385D03*
X002672Y005129D03*
D16*
X002366Y004854D03*
X002366Y006428D03*
X002366Y014729D03*
X002366Y016303D03*
D17*
X001520Y016628D03*
X001520Y014404D03*
X001520Y006753D03*
X001520Y004529D03*
D18*
X001520Y005641D03*
X001520Y015516D03*
D19*
X003779Y012488D03*
X003779Y011544D03*
X005511Y011544D03*
X005511Y012488D03*
X005511Y002613D03*
X005511Y001669D03*
X003779Y001669D03*
X003779Y002613D03*
D20*
X012645Y003141D03*
X012645Y004141D03*
X012645Y005141D03*
X012645Y006141D03*
X012645Y007141D03*
X012645Y008141D03*
X012645Y013016D03*
X012645Y014016D03*
X012645Y015016D03*
X012645Y016016D03*
X012645Y017016D03*
X012645Y018016D03*
D21*
X010645Y016516D03*
X010645Y006641D03*
D22*
X010645Y005641D03*
X010645Y004641D03*
X011645Y004641D03*
X011645Y005641D03*
X011645Y006641D03*
X011645Y014516D03*
X011645Y015516D03*
X011645Y016516D03*
X010645Y015516D03*
X010645Y014516D03*
D23*
X011020Y012311D03*
X011020Y011721D03*
X010645Y009436D03*
X010645Y008846D03*
X008395Y011721D03*
X008395Y012311D03*
X010645Y018721D03*
X010645Y019311D03*
X011020Y002436D03*
X011020Y001846D03*
X008395Y001846D03*
X008395Y002436D03*
D24*
X002645Y001641D03*
X001145Y001641D03*
X001145Y003641D03*
X002645Y003641D03*
X002645Y007641D03*
X002645Y009641D03*
X002645Y011516D03*
X002645Y013516D03*
X001145Y013516D03*
X001145Y011516D03*
X001145Y009641D03*
X001145Y007641D03*
X001145Y017516D03*
X002645Y017516D03*
X002645Y019516D03*
X001145Y019516D03*
D25*
X004645Y019516D03*
X004645Y009641D03*
X012645Y009641D03*
X012645Y019516D03*
D26*
X012291Y019516D02*
X012293Y019553D01*
X012299Y019590D01*
X012308Y019625D01*
X012322Y019660D01*
X012338Y019693D01*
X012359Y019724D01*
X012382Y019753D01*
X012408Y019779D01*
X012437Y019802D01*
X012468Y019823D01*
X012501Y019839D01*
X012536Y019853D01*
X012571Y019862D01*
X012608Y019868D01*
X012645Y019870D01*
X012682Y019868D01*
X012719Y019862D01*
X012754Y019853D01*
X012789Y019839D01*
X012822Y019823D01*
X012853Y019802D01*
X012882Y019779D01*
X012908Y019753D01*
X012931Y019724D01*
X012952Y019693D01*
X012968Y019660D01*
X012982Y019625D01*
X012991Y019590D01*
X012997Y019553D01*
X012999Y019516D01*
X012997Y019479D01*
X012991Y019442D01*
X012982Y019407D01*
X012968Y019372D01*
X012952Y019339D01*
X012931Y019308D01*
X012908Y019279D01*
X012882Y019253D01*
X012853Y019230D01*
X012822Y019209D01*
X012789Y019193D01*
X012754Y019179D01*
X012719Y019170D01*
X012682Y019164D01*
X012645Y019162D01*
X012608Y019164D01*
X012571Y019170D01*
X012536Y019179D01*
X012501Y019193D01*
X012468Y019209D01*
X012437Y019230D01*
X012408Y019253D01*
X012382Y019279D01*
X012359Y019308D01*
X012338Y019339D01*
X012322Y019372D01*
X012308Y019407D01*
X012299Y019442D01*
X012293Y019479D01*
X012291Y019516D01*
X012291Y009641D02*
X012293Y009678D01*
X012299Y009715D01*
X012308Y009750D01*
X012322Y009785D01*
X012338Y009818D01*
X012359Y009849D01*
X012382Y009878D01*
X012408Y009904D01*
X012437Y009927D01*
X012468Y009948D01*
X012501Y009964D01*
X012536Y009978D01*
X012571Y009987D01*
X012608Y009993D01*
X012645Y009995D01*
X012682Y009993D01*
X012719Y009987D01*
X012754Y009978D01*
X012789Y009964D01*
X012822Y009948D01*
X012853Y009927D01*
X012882Y009904D01*
X012908Y009878D01*
X012931Y009849D01*
X012952Y009818D01*
X012968Y009785D01*
X012982Y009750D01*
X012991Y009715D01*
X012997Y009678D01*
X012999Y009641D01*
X012997Y009604D01*
X012991Y009567D01*
X012982Y009532D01*
X012968Y009497D01*
X012952Y009464D01*
X012931Y009433D01*
X012908Y009404D01*
X012882Y009378D01*
X012853Y009355D01*
X012822Y009334D01*
X012789Y009318D01*
X012754Y009304D01*
X012719Y009295D01*
X012682Y009289D01*
X012645Y009287D01*
X012608Y009289D01*
X012571Y009295D01*
X012536Y009304D01*
X012501Y009318D01*
X012468Y009334D01*
X012437Y009355D01*
X012408Y009378D01*
X012382Y009404D01*
X012359Y009433D01*
X012338Y009464D01*
X012322Y009497D01*
X012308Y009532D01*
X012299Y009567D01*
X012293Y009604D01*
X012291Y009641D01*
X004291Y009641D02*
X004293Y009678D01*
X004299Y009715D01*
X004308Y009750D01*
X004322Y009785D01*
X004338Y009818D01*
X004359Y009849D01*
X004382Y009878D01*
X004408Y009904D01*
X004437Y009927D01*
X004468Y009948D01*
X004501Y009964D01*
X004536Y009978D01*
X004571Y009987D01*
X004608Y009993D01*
X004645Y009995D01*
X004682Y009993D01*
X004719Y009987D01*
X004754Y009978D01*
X004789Y009964D01*
X004822Y009948D01*
X004853Y009927D01*
X004882Y009904D01*
X004908Y009878D01*
X004931Y009849D01*
X004952Y009818D01*
X004968Y009785D01*
X004982Y009750D01*
X004991Y009715D01*
X004997Y009678D01*
X004999Y009641D01*
X004997Y009604D01*
X004991Y009567D01*
X004982Y009532D01*
X004968Y009497D01*
X004952Y009464D01*
X004931Y009433D01*
X004908Y009404D01*
X004882Y009378D01*
X004853Y009355D01*
X004822Y009334D01*
X004789Y009318D01*
X004754Y009304D01*
X004719Y009295D01*
X004682Y009289D01*
X004645Y009287D01*
X004608Y009289D01*
X004571Y009295D01*
X004536Y009304D01*
X004501Y009318D01*
X004468Y009334D01*
X004437Y009355D01*
X004408Y009378D01*
X004382Y009404D01*
X004359Y009433D01*
X004338Y009464D01*
X004322Y009497D01*
X004308Y009532D01*
X004299Y009567D01*
X004293Y009604D01*
X004291Y009641D01*
X004291Y019516D02*
X004293Y019553D01*
X004299Y019590D01*
X004308Y019625D01*
X004322Y019660D01*
X004338Y019693D01*
X004359Y019724D01*
X004382Y019753D01*
X004408Y019779D01*
X004437Y019802D01*
X004468Y019823D01*
X004501Y019839D01*
X004536Y019853D01*
X004571Y019862D01*
X004608Y019868D01*
X004645Y019870D01*
X004682Y019868D01*
X004719Y019862D01*
X004754Y019853D01*
X004789Y019839D01*
X004822Y019823D01*
X004853Y019802D01*
X004882Y019779D01*
X004908Y019753D01*
X004931Y019724D01*
X004952Y019693D01*
X004968Y019660D01*
X004982Y019625D01*
X004991Y019590D01*
X004997Y019553D01*
X004999Y019516D01*
X004997Y019479D01*
X004991Y019442D01*
X004982Y019407D01*
X004968Y019372D01*
X004952Y019339D01*
X004931Y019308D01*
X004908Y019279D01*
X004882Y019253D01*
X004853Y019230D01*
X004822Y019209D01*
X004789Y019193D01*
X004754Y019179D01*
X004719Y019170D01*
X004682Y019164D01*
X004645Y019162D01*
X004608Y019164D01*
X004571Y019170D01*
X004536Y019179D01*
X004501Y019193D01*
X004468Y019209D01*
X004437Y019230D01*
X004408Y019253D01*
X004382Y019279D01*
X004359Y019308D01*
X004338Y019339D01*
X004322Y019372D01*
X004308Y019407D01*
X004299Y019442D01*
X004293Y019479D01*
X004291Y019516D01*
M02*
