G75*
G70*
%OFA0B0*%
%FSLAX24Y24*%
%IPPOS*%
%LPD*%
%AMOC8*
5,1,8,0,0,1.08239X$1,22.5*
%
%ADD10C,0.0000*%
%ADD11C,0.0594*%
%ADD12C,0.0740*%
%ADD13R,0.0600X0.0600*%
%ADD14OC8,0.0600*%
%ADD15C,0.0500*%
%ADD16C,0.0120*%
%ADD17C,0.0357*%
%ADD18C,0.0100*%
%ADD19C,0.0080*%
D10*
X000645Y000766D02*
X000645Y020266D01*
X013645Y020266D01*
X013645Y000766D01*
X000645Y000766D01*
X002258Y004854D02*
X002260Y004874D01*
X002266Y004894D01*
X002275Y004912D01*
X002288Y004929D01*
X002303Y004942D01*
X002321Y004952D01*
X002341Y004959D01*
X002361Y004962D01*
X002381Y004961D01*
X002401Y004956D01*
X002420Y004948D01*
X002437Y004936D01*
X002451Y004921D01*
X002462Y004903D01*
X002470Y004884D01*
X002474Y004864D01*
X002474Y004844D01*
X002470Y004824D01*
X002462Y004805D01*
X002451Y004787D01*
X002437Y004772D01*
X002420Y004760D01*
X002401Y004752D01*
X002381Y004747D01*
X002361Y004746D01*
X002341Y004749D01*
X002321Y004756D01*
X002303Y004766D01*
X002288Y004779D01*
X002275Y004796D01*
X002266Y004814D01*
X002260Y004834D01*
X002258Y004854D01*
X002258Y006428D02*
X002260Y006448D01*
X002266Y006468D01*
X002275Y006486D01*
X002288Y006503D01*
X002303Y006516D01*
X002321Y006526D01*
X002341Y006533D01*
X002361Y006536D01*
X002381Y006535D01*
X002401Y006530D01*
X002420Y006522D01*
X002437Y006510D01*
X002451Y006495D01*
X002462Y006477D01*
X002470Y006458D01*
X002474Y006438D01*
X002474Y006418D01*
X002470Y006398D01*
X002462Y006379D01*
X002451Y006361D01*
X002437Y006346D01*
X002420Y006334D01*
X002401Y006326D01*
X002381Y006321D01*
X002361Y006320D01*
X002341Y006323D01*
X002321Y006330D01*
X002303Y006340D01*
X002288Y006353D01*
X002275Y006370D01*
X002266Y006388D01*
X002260Y006408D01*
X002258Y006428D01*
X002258Y014729D02*
X002260Y014749D01*
X002266Y014769D01*
X002275Y014787D01*
X002288Y014804D01*
X002303Y014817D01*
X002321Y014827D01*
X002341Y014834D01*
X002361Y014837D01*
X002381Y014836D01*
X002401Y014831D01*
X002420Y014823D01*
X002437Y014811D01*
X002451Y014796D01*
X002462Y014778D01*
X002470Y014759D01*
X002474Y014739D01*
X002474Y014719D01*
X002470Y014699D01*
X002462Y014680D01*
X002451Y014662D01*
X002437Y014647D01*
X002420Y014635D01*
X002401Y014627D01*
X002381Y014622D01*
X002361Y014621D01*
X002341Y014624D01*
X002321Y014631D01*
X002303Y014641D01*
X002288Y014654D01*
X002275Y014671D01*
X002266Y014689D01*
X002260Y014709D01*
X002258Y014729D01*
X002258Y016303D02*
X002260Y016323D01*
X002266Y016343D01*
X002275Y016361D01*
X002288Y016378D01*
X002303Y016391D01*
X002321Y016401D01*
X002341Y016408D01*
X002361Y016411D01*
X002381Y016410D01*
X002401Y016405D01*
X002420Y016397D01*
X002437Y016385D01*
X002451Y016370D01*
X002462Y016352D01*
X002470Y016333D01*
X002474Y016313D01*
X002474Y016293D01*
X002470Y016273D01*
X002462Y016254D01*
X002451Y016236D01*
X002437Y016221D01*
X002420Y016209D01*
X002401Y016201D01*
X002381Y016196D01*
X002361Y016195D01*
X002341Y016198D01*
X002321Y016205D01*
X002303Y016215D01*
X002288Y016228D01*
X002275Y016245D01*
X002266Y016263D01*
X002260Y016283D01*
X002258Y016303D01*
D11*
X001520Y016628D03*
X001520Y014404D03*
X001520Y006753D03*
X001520Y004529D03*
D12*
X012645Y004141D03*
X012645Y003141D03*
X012645Y005141D03*
X012645Y006141D03*
X012645Y007141D03*
X012645Y008141D03*
X012645Y013016D03*
X012645Y014016D03*
X012645Y015016D03*
X012645Y016016D03*
X012645Y017016D03*
X012645Y018016D03*
D13*
X010645Y016516D03*
X010645Y006641D03*
D14*
X010645Y005641D03*
X010645Y004641D03*
X011645Y004641D03*
X011645Y005641D03*
X011645Y006641D03*
X011645Y014516D03*
X011645Y015516D03*
X011645Y016516D03*
X010645Y015516D03*
X010645Y014516D03*
D15*
X010645Y011516D03*
X009645Y011516D03*
X008645Y011516D03*
X007645Y011516D03*
X007645Y009641D03*
X006645Y009641D03*
X005645Y009641D03*
X004645Y009641D03*
X008645Y009641D03*
X009645Y009641D03*
X010645Y009641D03*
X011645Y009641D03*
X012645Y009641D03*
X012645Y011516D03*
X011645Y011516D03*
X011645Y019516D03*
X010645Y019516D03*
X009645Y019516D03*
X008645Y019516D03*
X007645Y019516D03*
X006645Y019516D03*
X005645Y019516D03*
X004645Y019516D03*
X012645Y019516D03*
X012645Y001641D03*
X011645Y001641D03*
X010645Y001641D03*
X009645Y001641D03*
X008645Y001641D03*
X007645Y001641D03*
D16*
X006070Y001696D02*
X005950Y001576D01*
X005830Y001576D01*
X006070Y001326D01*
X005830Y001576D02*
X005580Y001576D01*
X005580Y001946D01*
X005580Y002066D01*
X005950Y002066D01*
X006070Y001946D01*
X006070Y001696D01*
X005580Y001576D02*
X005580Y001446D01*
X005580Y001326D01*
X005460Y001326D02*
X005580Y001446D01*
X005460Y001326D02*
X005210Y001326D01*
X005090Y001456D01*
X005090Y001696D01*
X005340Y001696D01*
X005100Y001946D02*
X005220Y002066D01*
X005460Y002066D01*
X005580Y001946D01*
X004720Y001926D02*
X004590Y002056D01*
X004350Y002056D01*
X004230Y001936D01*
X004230Y001926D02*
X004230Y001806D01*
X004720Y001326D01*
X004230Y001326D01*
X003920Y001446D02*
X003800Y001326D01*
X003560Y001326D01*
X003440Y001446D01*
X003440Y001926D01*
X003560Y002046D01*
X003800Y002046D01*
X003920Y001926D01*
X003920Y001446D01*
X003450Y001926D01*
X003130Y001804D02*
X002888Y002046D01*
X002888Y002039D02*
X002888Y001334D01*
X002648Y001326D02*
X003133Y001326D01*
X002338Y001696D02*
X001980Y002071D01*
X001980Y001326D01*
X001848Y001696D02*
X002338Y001696D01*
X002648Y011201D02*
X003133Y011201D01*
X002888Y011209D02*
X002888Y011914D01*
X002888Y011921D02*
X003130Y011679D01*
X003440Y011801D02*
X003440Y011321D01*
X003560Y011201D01*
X003800Y011201D01*
X003920Y011321D01*
X003450Y011801D01*
X003440Y011801D02*
X003560Y011921D01*
X003800Y011921D01*
X003920Y011801D01*
X003920Y011321D01*
X004230Y011201D02*
X004720Y011201D01*
X004230Y011681D01*
X004230Y011801D01*
X004230Y011811D02*
X004350Y011931D01*
X004590Y011931D01*
X004720Y011801D01*
X005100Y011821D02*
X005220Y011941D01*
X005460Y011941D01*
X005580Y011821D01*
X005580Y011941D01*
X005950Y011941D01*
X006070Y011821D01*
X006070Y011571D01*
X005950Y011451D01*
X005830Y011451D01*
X006070Y011201D01*
X005830Y011451D02*
X005580Y011451D01*
X005580Y011821D01*
X005580Y011451D02*
X005580Y011321D01*
X005580Y011201D01*
X005460Y011201D02*
X005580Y011321D01*
X005460Y011201D02*
X005210Y011201D01*
X005090Y011331D01*
X005090Y011571D01*
X005340Y011571D01*
X002338Y011571D02*
X001980Y011946D01*
X001980Y011201D01*
X001848Y011571D02*
X002338Y011571D01*
D17*
X001145Y012266D03*
X001145Y012766D03*
X003145Y013641D03*
X005145Y016016D03*
X005395Y017016D03*
X005020Y017391D03*
X005895Y017016D03*
X006520Y016141D03*
X006520Y015641D03*
X006520Y015141D03*
X007270Y015141D03*
X007645Y015516D03*
X008020Y015141D03*
X008770Y015391D03*
X008770Y014766D03*
X008770Y016141D03*
X009895Y015391D03*
X009895Y014891D03*
X009645Y013016D03*
X009145Y010141D03*
X010145Y010141D03*
X011145Y010141D03*
X012145Y012016D03*
X013145Y011016D03*
X010145Y008141D03*
X009645Y008141D03*
X008895Y008641D03*
X008395Y008641D03*
X007895Y008641D03*
X007395Y008641D03*
X006895Y008641D03*
X006145Y008141D03*
X005895Y007141D03*
X005395Y007141D03*
X005020Y007516D03*
X005145Y006141D03*
X006520Y006266D03*
X006520Y005766D03*
X006520Y005266D03*
X007270Y005266D03*
X007645Y005641D03*
X008020Y005266D03*
X008770Y005516D03*
X008770Y004891D03*
X008770Y006266D03*
X009895Y005516D03*
X009895Y005016D03*
X009645Y003141D03*
X007270Y003266D03*
X006145Y003266D03*
X003145Y003766D03*
X001145Y002891D03*
X001145Y002391D03*
X001645Y007891D03*
X001645Y008641D03*
X001645Y009391D03*
X003145Y009391D03*
X003145Y009891D03*
X003645Y009391D03*
X006145Y013141D03*
X007270Y013141D03*
X006145Y018016D03*
X006895Y018516D03*
X007395Y018516D03*
X007895Y018516D03*
X008395Y018516D03*
X008895Y018516D03*
X009645Y018016D03*
X010145Y018016D03*
X010145Y020016D03*
X009145Y020016D03*
X011145Y020016D03*
X003645Y019266D03*
X003145Y019266D03*
X003145Y019766D03*
X001645Y019266D03*
X001645Y018516D03*
X001645Y017766D03*
X012145Y002141D03*
X013145Y001141D03*
D18*
X012645Y001391D02*
X012645Y001641D01*
X012645Y001391D02*
X012395Y001141D01*
X011395Y001141D01*
X011145Y001391D01*
X011145Y002141D01*
X009395Y003891D01*
X009395Y004891D01*
X008770Y005516D01*
X008520Y005891D02*
X009520Y005891D01*
X009895Y005516D01*
X010270Y005141D01*
X011020Y005141D01*
X011145Y005016D01*
X011145Y003641D01*
X011645Y003141D01*
X012645Y003141D01*
X012145Y002141D02*
X011645Y002141D01*
X010645Y002141D02*
X009645Y003141D01*
X008770Y004016D01*
X008770Y004891D01*
X008520Y005891D02*
X008395Y006016D01*
X008395Y008141D01*
X008895Y008641D01*
X008395Y008641D02*
X009395Y009641D01*
X009645Y009641D01*
X008645Y009641D02*
X008645Y009391D01*
X007895Y008641D01*
X007645Y008891D02*
X007395Y008641D01*
X007645Y008891D02*
X007645Y009641D01*
X006895Y008641D02*
X006645Y008891D01*
X006645Y009641D01*
X006145Y009891D02*
X006145Y008141D01*
X005645Y007641D02*
X005645Y009641D01*
X005895Y010141D02*
X006145Y009891D01*
X005895Y010141D02*
X003270Y010141D01*
X003145Y010016D01*
X003145Y009891D01*
X004645Y009641D02*
X004645Y007141D01*
X005520Y006266D01*
X006520Y006266D01*
X006520Y005266D02*
X006020Y005266D01*
X005145Y006141D01*
X005395Y007141D02*
X005395Y007391D01*
X005645Y007641D01*
X008770Y007266D02*
X008770Y006266D01*
X008770Y007266D02*
X009145Y007641D01*
X011145Y007641D01*
X012645Y009141D01*
X012645Y009641D01*
X011645Y009641D02*
X011645Y009141D01*
X010645Y008141D01*
X010145Y008141D01*
X009645Y008141D02*
X010645Y009141D01*
X010645Y009641D01*
X011395Y011016D02*
X012395Y011016D01*
X012645Y011266D01*
X012645Y011516D01*
X012145Y012016D02*
X011645Y012016D01*
X011145Y012016D02*
X011145Y011266D01*
X011395Y011016D01*
X011145Y012016D02*
X009395Y013766D01*
X009395Y014766D01*
X008770Y015391D01*
X008520Y015766D02*
X009520Y015766D01*
X009895Y015391D01*
X010270Y015016D01*
X011020Y015016D01*
X011145Y014891D01*
X011145Y013516D01*
X011645Y013016D01*
X012645Y013016D01*
X010645Y012016D02*
X009645Y013016D01*
X008770Y013891D01*
X008770Y014766D01*
X008520Y015766D02*
X008395Y015891D01*
X008395Y018016D01*
X008895Y018516D01*
X008395Y018516D02*
X009395Y019516D01*
X009645Y019516D01*
X008645Y019516D02*
X008645Y019266D01*
X007895Y018516D01*
X007645Y018766D02*
X007395Y018516D01*
X007645Y018766D02*
X007645Y019516D01*
X006895Y018516D02*
X006645Y018766D01*
X006645Y019516D01*
X006145Y019766D02*
X006145Y018016D01*
X005645Y017516D02*
X005645Y019516D01*
X005895Y020016D02*
X006145Y019766D01*
X005895Y020016D02*
X003270Y020016D01*
X003145Y019891D01*
X003145Y019766D01*
X004645Y019516D02*
X004645Y017016D01*
X005520Y016141D01*
X006520Y016141D01*
X006520Y015141D02*
X006020Y015141D01*
X005145Y016016D01*
X005395Y017016D02*
X005395Y017266D01*
X005645Y017516D01*
X008770Y017141D02*
X008770Y016141D01*
X008770Y017141D02*
X009145Y017516D01*
X011145Y017516D01*
X012645Y019016D01*
X012645Y019516D01*
X011645Y019516D02*
X011645Y019016D01*
X010645Y018016D01*
X010145Y018016D01*
X009645Y018016D02*
X010645Y019016D01*
X010645Y019516D01*
D19*
X010358Y019224D02*
X009933Y019224D01*
X009877Y019168D02*
X009993Y019284D01*
X010055Y019434D01*
X010055Y019598D01*
X009993Y019748D01*
X009877Y019864D01*
X009727Y019926D01*
X009563Y019926D01*
X009413Y019864D01*
X009297Y019748D01*
X009274Y019692D01*
X009055Y019473D01*
X009055Y019598D01*
X008993Y019748D01*
X008877Y019864D01*
X008727Y019926D01*
X008563Y019926D01*
X008413Y019864D01*
X008297Y019748D01*
X008235Y019598D01*
X008235Y019434D01*
X008297Y019284D01*
X008332Y019250D01*
X007936Y018854D01*
X007855Y018854D01*
X007855Y019159D01*
X007877Y019168D01*
X007993Y019284D01*
X008055Y019434D01*
X008055Y019598D01*
X007993Y019748D01*
X007877Y019864D01*
X007727Y019926D01*
X007563Y019926D01*
X007413Y019864D01*
X007297Y019748D01*
X007235Y019598D01*
X007235Y019434D01*
X007297Y019284D01*
X007413Y019168D01*
X007435Y019159D01*
X007435Y018854D01*
X007328Y018854D01*
X007203Y018803D01*
X007145Y018745D01*
X007087Y018803D01*
X006962Y018854D01*
X006855Y018854D01*
X006855Y019159D01*
X006877Y019168D01*
X006993Y019284D01*
X007055Y019434D01*
X007055Y019598D01*
X006993Y019748D01*
X006877Y019864D01*
X006727Y019926D01*
X006563Y019926D01*
X006413Y019864D01*
X006355Y019806D01*
X006355Y019853D01*
X006232Y019976D01*
X006102Y020106D01*
X013485Y020106D01*
X013485Y010641D01*
X000805Y010641D01*
X000805Y020106D01*
X003063Y020106D01*
X003060Y020103D01*
X003050Y020093D01*
X002953Y020053D01*
X002858Y019958D01*
X002807Y019833D01*
X002807Y019699D01*
X002858Y019574D01*
X002953Y019479D01*
X003078Y019428D01*
X003212Y019428D01*
X003337Y019479D01*
X003432Y019574D01*
X003483Y019699D01*
X003483Y019806D01*
X004355Y019806D01*
X004297Y019748D01*
X004235Y019598D01*
X004235Y019434D01*
X004297Y019284D01*
X004413Y019168D01*
X004435Y019159D01*
X004435Y016929D01*
X004558Y016806D01*
X005030Y016334D01*
X004953Y016303D01*
X004858Y016208D01*
X004807Y016083D01*
X004807Y015949D01*
X004858Y015824D01*
X004953Y015729D01*
X005078Y015678D01*
X005186Y015678D01*
X005933Y014931D01*
X006107Y014931D01*
X006251Y014931D01*
X006328Y014854D01*
X006453Y014803D01*
X006587Y014803D01*
X006712Y014854D01*
X006807Y014949D01*
X006858Y015074D01*
X006858Y015208D01*
X006807Y015333D01*
X006712Y015428D01*
X006587Y015479D01*
X006453Y015479D01*
X006328Y015428D01*
X006251Y015351D01*
X006107Y015351D01*
X005527Y015931D01*
X005607Y015931D01*
X006251Y015931D01*
X006328Y015854D01*
X006453Y015803D01*
X006587Y015803D01*
X006712Y015854D01*
X006807Y015949D01*
X006858Y016074D01*
X006858Y016208D01*
X006807Y016333D01*
X006712Y016428D01*
X006587Y016479D01*
X006453Y016479D01*
X006328Y016428D01*
X006251Y016351D01*
X005607Y016351D01*
X005247Y016711D01*
X005328Y016678D01*
X005462Y016678D01*
X005587Y016729D01*
X005682Y016824D01*
X005733Y016949D01*
X005733Y017083D01*
X005682Y017208D01*
X005658Y017232D01*
X005732Y017306D01*
X005855Y017429D01*
X005855Y017832D01*
X005858Y017824D01*
X005953Y017729D01*
X006078Y017678D01*
X006212Y017678D01*
X006337Y017729D01*
X006432Y017824D01*
X006483Y017949D01*
X006483Y018083D01*
X006432Y018208D01*
X006355Y018285D01*
X006355Y019226D01*
X006413Y019168D01*
X006435Y019159D01*
X006435Y018853D01*
X006435Y018679D01*
X006557Y018557D01*
X006557Y018449D01*
X006608Y018324D01*
X006703Y018229D01*
X006828Y018178D01*
X006962Y018178D01*
X007087Y018229D01*
X007145Y018287D01*
X007203Y018229D01*
X007328Y018178D01*
X007462Y018178D01*
X007587Y018229D01*
X007645Y018287D01*
X007703Y018229D01*
X007828Y018178D01*
X007962Y018178D01*
X008087Y018229D01*
X008145Y018287D01*
X008203Y018229D01*
X008280Y018197D01*
X008185Y018103D01*
X008185Y015978D01*
X008185Y015804D01*
X008310Y015679D01*
X008433Y015556D01*
X008472Y015556D01*
X008432Y015458D01*
X008432Y015324D01*
X008483Y015199D01*
X008578Y015104D01*
X008640Y015078D01*
X008578Y015053D01*
X008483Y014958D01*
X008432Y014833D01*
X008432Y014762D01*
X008276Y014918D01*
X008307Y014949D01*
X008358Y015074D01*
X008358Y015208D01*
X008307Y015333D01*
X008212Y015428D01*
X008087Y015479D01*
X007983Y015479D01*
X007983Y015583D01*
X007932Y015708D01*
X007837Y015803D01*
X007712Y015854D01*
X007578Y015854D01*
X007453Y015803D01*
X007358Y015708D01*
X007307Y015583D01*
X007307Y015479D01*
X007203Y015479D01*
X007078Y015428D01*
X006983Y015333D01*
X006932Y015208D01*
X006932Y015074D01*
X006983Y014949D01*
X007078Y014854D01*
X007203Y014803D01*
X007326Y014803D01*
X007445Y014683D01*
X007445Y011877D01*
X007413Y011864D01*
X007297Y011748D01*
X007235Y011598D01*
X007235Y011434D01*
X007297Y011284D01*
X007413Y011168D01*
X007563Y011106D01*
X007727Y011106D01*
X007877Y011168D01*
X007993Y011284D01*
X008055Y011434D01*
X008055Y011598D01*
X007993Y011748D01*
X007877Y011864D01*
X007845Y011877D01*
X007845Y013033D01*
X008445Y012433D01*
X008445Y011877D01*
X008413Y011864D01*
X008297Y011748D01*
X008235Y011598D01*
X008235Y011434D01*
X008297Y011284D01*
X008413Y011168D01*
X008563Y011106D01*
X008727Y011106D01*
X008877Y011168D01*
X008993Y011284D01*
X009055Y011434D01*
X009055Y011598D01*
X008993Y011748D01*
X008877Y011864D01*
X008845Y011877D01*
X008845Y012433D01*
X008845Y012533D01*
X009445Y011933D01*
X009445Y011877D01*
X009413Y011864D01*
X009297Y011748D01*
X009235Y011598D01*
X009235Y011434D01*
X009297Y011284D01*
X009413Y011168D01*
X009563Y011106D01*
X009727Y011106D01*
X009877Y011168D01*
X009993Y011284D01*
X010055Y011434D01*
X010055Y011598D01*
X009993Y011748D01*
X009877Y011864D01*
X009845Y011877D01*
X009845Y012099D01*
X009728Y012216D01*
X008470Y013474D01*
X008470Y014558D01*
X008470Y014606D01*
X008483Y014574D01*
X008560Y014497D01*
X008560Y013978D01*
X008560Y013804D01*
X009307Y013057D01*
X009307Y012949D01*
X009358Y012824D01*
X009453Y012729D01*
X009578Y012678D01*
X009686Y012678D01*
X010445Y011919D01*
X010445Y011877D01*
X010413Y011864D01*
X010297Y011748D01*
X010235Y011598D01*
X010235Y011434D01*
X010297Y011284D01*
X010413Y011168D01*
X010563Y011106D01*
X010727Y011106D01*
X010877Y011168D01*
X010935Y011226D01*
X010935Y011179D01*
X011185Y010929D01*
X011308Y010806D01*
X012308Y010806D01*
X012482Y010806D01*
X012732Y011056D01*
X012821Y011145D01*
X012877Y011168D01*
X012993Y011284D01*
X013055Y011434D01*
X013055Y011598D01*
X012993Y011748D01*
X012877Y011864D01*
X012727Y011926D01*
X012563Y011926D01*
X012455Y011881D01*
X012483Y011949D01*
X012483Y012083D01*
X012432Y012208D01*
X012337Y012303D01*
X012212Y012354D01*
X012078Y012354D01*
X011953Y012303D01*
X011876Y012226D01*
X011718Y012226D01*
X010095Y013849D01*
X010095Y014612D01*
X010182Y014699D01*
X010226Y014806D01*
X010285Y014806D01*
X010185Y014706D01*
X010185Y014325D01*
X010454Y014056D01*
X010836Y014056D01*
X010935Y014156D01*
X010935Y013603D01*
X010935Y013429D01*
X011435Y012929D01*
X011558Y012806D01*
X012158Y012806D01*
X012196Y012716D01*
X012345Y012567D01*
X012540Y012486D01*
X012750Y012486D01*
X012945Y012567D01*
X013094Y012716D01*
X013175Y012911D01*
X013175Y013121D01*
X013094Y013316D01*
X012945Y013465D01*
X012823Y013516D01*
X012945Y013567D01*
X013094Y013716D01*
X013175Y013911D01*
X013175Y014121D01*
X013094Y014316D01*
X012945Y014465D01*
X012823Y014516D01*
X012945Y014567D01*
X013094Y014716D01*
X013175Y014911D01*
X013175Y015121D01*
X013094Y015316D01*
X012945Y015465D01*
X012823Y015516D01*
X012945Y015567D01*
X013094Y015716D01*
X013175Y015911D01*
X013175Y016121D01*
X013094Y016316D01*
X012945Y016465D01*
X012794Y016528D01*
X012841Y016543D01*
X012912Y016580D01*
X012977Y016627D01*
X013034Y016684D01*
X013081Y016749D01*
X013118Y016820D01*
X013142Y016897D01*
X013155Y016976D01*
X012685Y016976D01*
X012685Y017056D01*
X012605Y017056D01*
X012605Y016976D01*
X012135Y016976D01*
X012135Y016976D01*
X012148Y016897D01*
X012172Y016820D01*
X012209Y016749D01*
X012256Y016684D01*
X012313Y016627D01*
X012378Y016580D01*
X012449Y016543D01*
X012496Y016528D01*
X012345Y016465D01*
X012196Y016316D01*
X012115Y016121D01*
X012115Y015911D01*
X012196Y015716D01*
X012345Y015567D01*
X012467Y015516D01*
X012345Y015465D01*
X012196Y015316D01*
X012115Y015121D01*
X012115Y014911D01*
X012196Y014716D01*
X012345Y014567D01*
X012467Y014516D01*
X012345Y014465D01*
X012196Y014316D01*
X012115Y014121D01*
X012115Y013911D01*
X012196Y013716D01*
X012345Y013567D01*
X012467Y013516D01*
X012345Y013465D01*
X012196Y013316D01*
X012158Y013226D01*
X011732Y013226D01*
X011355Y013603D01*
X011355Y014184D01*
X011463Y014076D01*
X011605Y014076D01*
X011605Y014476D01*
X011685Y014476D01*
X011685Y014556D01*
X011605Y014556D01*
X011605Y014956D01*
X011463Y014956D01*
X011355Y014848D01*
X011355Y014978D01*
X011232Y015101D01*
X011230Y015103D01*
X011107Y015226D01*
X011005Y015226D01*
X011105Y015325D01*
X011105Y015706D01*
X010836Y015976D01*
X010454Y015976D01*
X010185Y015706D01*
X010185Y015575D01*
X010182Y015583D01*
X010087Y015678D01*
X009962Y015729D01*
X009854Y015729D01*
X009607Y015976D01*
X009433Y015976D01*
X009068Y015976D01*
X009108Y016074D01*
X009108Y016208D01*
X009057Y016333D01*
X008980Y016410D01*
X008980Y017054D01*
X009232Y017306D01*
X011058Y017306D01*
X011232Y017306D01*
X012208Y018282D01*
X012172Y018212D01*
X012148Y018135D01*
X012135Y018056D01*
X012605Y018056D01*
X012605Y018526D01*
X012605Y018526D01*
X012526Y018513D01*
X012449Y018489D01*
X012379Y018453D01*
X012732Y018806D01*
X012855Y018929D01*
X012855Y019159D01*
X012877Y019168D01*
X012993Y019284D01*
X013055Y019434D01*
X013055Y019598D01*
X012993Y019748D01*
X012877Y019864D01*
X012727Y019926D01*
X012563Y019926D01*
X012413Y019864D01*
X012297Y019748D01*
X012235Y019598D01*
X012235Y019434D01*
X012297Y019284D01*
X012413Y019168D01*
X012435Y019159D01*
X012435Y019103D01*
X011058Y017726D01*
X010329Y017726D01*
X010337Y017729D01*
X010414Y017806D01*
X010558Y017806D01*
X010732Y017806D01*
X011732Y018806D01*
X011855Y018929D01*
X011855Y019159D01*
X011877Y019168D01*
X011993Y019284D01*
X012055Y019434D01*
X012055Y019598D01*
X011993Y019748D01*
X011877Y019864D01*
X011727Y019926D01*
X011563Y019926D01*
X011413Y019864D01*
X011297Y019748D01*
X011235Y019598D01*
X011235Y019434D01*
X011297Y019284D01*
X011413Y019168D01*
X011435Y019159D01*
X011435Y019103D01*
X010558Y018226D01*
X010414Y018226D01*
X010337Y018303D01*
X010260Y018334D01*
X010732Y018806D01*
X010855Y018929D01*
X010855Y019159D01*
X010877Y019168D01*
X010993Y019284D01*
X011055Y019434D01*
X011055Y019598D01*
X010993Y019748D01*
X010877Y019864D01*
X010727Y019926D01*
X010563Y019926D01*
X010413Y019864D01*
X010297Y019748D01*
X010235Y019598D01*
X010235Y019434D01*
X010297Y019284D01*
X010413Y019168D01*
X010435Y019159D01*
X010435Y019103D01*
X009686Y018354D01*
X009578Y018354D01*
X009453Y018303D01*
X009358Y018208D01*
X009307Y018083D01*
X009307Y017949D01*
X009358Y017824D01*
X009453Y017729D01*
X009461Y017726D01*
X009058Y017726D01*
X008935Y017603D01*
X008605Y017273D01*
X008605Y017929D01*
X008854Y018178D01*
X008962Y018178D01*
X009087Y018229D01*
X009182Y018324D01*
X009233Y018449D01*
X009233Y018583D01*
X009182Y018708D01*
X009087Y018803D01*
X009010Y018834D01*
X009379Y019203D01*
X009413Y019168D01*
X009563Y019106D01*
X009727Y019106D01*
X009877Y019168D01*
X009821Y019145D02*
X010435Y019145D01*
X010399Y019067D02*
X009243Y019067D01*
X009321Y019145D02*
X009469Y019145D01*
X009164Y018988D02*
X010320Y018988D01*
X010242Y018909D02*
X009085Y018909D01*
X009019Y018831D02*
X010163Y018831D01*
X010084Y018752D02*
X009137Y018752D01*
X009196Y018674D02*
X010006Y018674D01*
X009927Y018595D02*
X009228Y018595D01*
X009233Y018517D02*
X009849Y018517D01*
X009770Y018438D02*
X009229Y018438D01*
X009197Y018360D02*
X009692Y018360D01*
X009432Y018281D02*
X009139Y018281D01*
X009023Y018203D02*
X009356Y018203D01*
X009324Y018124D02*
X008800Y018124D01*
X008722Y018046D02*
X009307Y018046D01*
X009307Y017967D02*
X008643Y017967D01*
X008605Y017888D02*
X009332Y017888D01*
X009373Y017810D02*
X008605Y017810D01*
X008605Y017731D02*
X009451Y017731D01*
X009186Y017260D02*
X012197Y017260D01*
X012209Y017283D02*
X012172Y017212D01*
X012148Y017135D01*
X012135Y017056D01*
X012605Y017056D01*
X012605Y017506D01*
X012605Y017976D01*
X012135Y017976D01*
X012135Y017976D01*
X012148Y017897D01*
X012172Y017820D01*
X012209Y017749D01*
X012256Y017684D01*
X012313Y017627D01*
X012378Y017580D01*
X012449Y017543D01*
X012526Y017519D01*
X012542Y017516D01*
X012526Y017513D01*
X012449Y017489D01*
X012378Y017452D01*
X012313Y017405D01*
X012256Y017348D01*
X012209Y017283D01*
X012249Y017339D02*
X011265Y017339D01*
X011343Y017417D02*
X012330Y017417D01*
X012471Y017496D02*
X011422Y017496D01*
X011500Y017574D02*
X012389Y017574D01*
X012287Y017653D02*
X011579Y017653D01*
X011657Y017731D02*
X012221Y017731D01*
X012178Y017810D02*
X011736Y017810D01*
X011814Y017888D02*
X012150Y017888D01*
X012136Y017967D02*
X011893Y017967D01*
X011971Y018046D02*
X012605Y018046D01*
X012605Y018056D02*
X012605Y017976D01*
X012685Y017976D01*
X012685Y018056D01*
X012605Y018056D01*
X012605Y018124D02*
X012685Y018124D01*
X012685Y018056D02*
X012685Y018526D01*
X012685Y018526D01*
X012764Y018513D01*
X012841Y018489D01*
X012912Y018452D01*
X012977Y018405D01*
X013034Y018348D01*
X013081Y018283D01*
X013118Y018212D01*
X013142Y018135D01*
X013155Y018056D01*
X013155Y018056D01*
X012685Y018056D01*
X012685Y018046D02*
X013485Y018046D01*
X013485Y018124D02*
X013144Y018124D01*
X013121Y018203D02*
X013485Y018203D01*
X013485Y018281D02*
X013082Y018281D01*
X013023Y018360D02*
X013485Y018360D01*
X013485Y018438D02*
X012931Y018438D01*
X012743Y018517D02*
X013485Y018517D01*
X013485Y018595D02*
X012521Y018595D01*
X012547Y018517D02*
X012443Y018517D01*
X012605Y018517D02*
X012685Y018517D01*
X012685Y018438D02*
X012605Y018438D01*
X012605Y018360D02*
X012685Y018360D01*
X012685Y018281D02*
X012605Y018281D01*
X012605Y018203D02*
X012685Y018203D01*
X012685Y017976D02*
X013155Y017976D01*
X013155Y017976D01*
X013142Y017897D01*
X013118Y017820D01*
X013081Y017749D01*
X013034Y017684D01*
X012977Y017627D01*
X012912Y017580D01*
X012841Y017543D01*
X012764Y017519D01*
X012748Y017516D01*
X012764Y017513D01*
X012841Y017489D01*
X012912Y017452D01*
X012977Y017405D01*
X013034Y017348D01*
X013081Y017283D01*
X013118Y017212D01*
X013142Y017135D01*
X013155Y017056D01*
X013155Y017056D01*
X012685Y017056D01*
X012685Y017506D01*
X012685Y017976D01*
X012685Y017967D02*
X012605Y017967D01*
X012605Y017888D02*
X012685Y017888D01*
X012685Y017810D02*
X012605Y017810D01*
X012605Y017731D02*
X012685Y017731D01*
X012685Y017653D02*
X012605Y017653D01*
X012605Y017574D02*
X012685Y017574D01*
X012685Y017496D02*
X012605Y017496D01*
X012605Y017417D02*
X012685Y017417D01*
X012685Y017339D02*
X012605Y017339D01*
X012605Y017260D02*
X012685Y017260D01*
X012685Y017182D02*
X012605Y017182D01*
X012605Y017103D02*
X012685Y017103D01*
X012685Y017024D02*
X013485Y017024D01*
X013485Y016946D02*
X013150Y016946D01*
X013155Y016976D02*
X013155Y016976D01*
X013133Y016867D02*
X013485Y016867D01*
X013485Y016789D02*
X013102Y016789D01*
X013053Y016710D02*
X013485Y016710D01*
X013485Y016632D02*
X012982Y016632D01*
X012860Y016553D02*
X013485Y016553D01*
X013485Y016475D02*
X012923Y016475D01*
X013014Y016396D02*
X013485Y016396D01*
X013485Y016318D02*
X013093Y016318D01*
X013126Y016239D02*
X013485Y016239D01*
X013485Y016160D02*
X013159Y016160D01*
X013175Y016082D02*
X013485Y016082D01*
X013485Y016003D02*
X013175Y016003D01*
X013175Y015925D02*
X013485Y015925D01*
X013485Y015846D02*
X013148Y015846D01*
X013116Y015768D02*
X013485Y015768D01*
X013485Y015689D02*
X013068Y015689D01*
X012989Y015611D02*
X013485Y015611D01*
X013485Y015532D02*
X012862Y015532D01*
X012957Y015454D02*
X013485Y015454D01*
X013485Y015375D02*
X013035Y015375D01*
X013103Y015296D02*
X013485Y015296D01*
X013485Y015218D02*
X013135Y015218D01*
X013168Y015139D02*
X013485Y015139D01*
X013485Y015061D02*
X013175Y015061D01*
X013175Y014982D02*
X013485Y014982D01*
X013485Y014904D02*
X013172Y014904D01*
X013140Y014825D02*
X013485Y014825D01*
X013485Y014747D02*
X013107Y014747D01*
X013047Y014668D02*
X013485Y014668D01*
X013485Y014590D02*
X012968Y014590D01*
X012835Y014511D02*
X013485Y014511D01*
X013485Y014433D02*
X012978Y014433D01*
X013057Y014354D02*
X013485Y014354D01*
X013485Y014275D02*
X013111Y014275D01*
X013144Y014197D02*
X013485Y014197D01*
X013485Y014118D02*
X013175Y014118D01*
X013175Y014040D02*
X013485Y014040D01*
X013485Y013961D02*
X013175Y013961D01*
X013163Y013883D02*
X013485Y013883D01*
X013485Y013804D02*
X013131Y013804D01*
X013098Y013726D02*
X013485Y013726D01*
X013485Y013647D02*
X013026Y013647D01*
X012947Y013569D02*
X013485Y013569D01*
X013485Y013490D02*
X012886Y013490D01*
X012999Y013411D02*
X013485Y013411D01*
X013485Y013333D02*
X013078Y013333D01*
X013120Y013254D02*
X013485Y013254D01*
X013485Y013176D02*
X013152Y013176D01*
X013175Y013097D02*
X013485Y013097D01*
X013485Y013019D02*
X013175Y013019D01*
X013175Y012940D02*
X013485Y012940D01*
X013485Y012862D02*
X013155Y012862D01*
X013122Y012783D02*
X013485Y012783D01*
X013485Y012705D02*
X013083Y012705D01*
X013005Y012626D02*
X013485Y012626D01*
X013485Y012547D02*
X012899Y012547D01*
X012454Y012155D02*
X013485Y012155D01*
X013485Y012233D02*
X012406Y012233D01*
X012315Y012312D02*
X013485Y012312D01*
X013485Y012390D02*
X011553Y012390D01*
X011475Y012469D02*
X013485Y012469D01*
X013485Y012076D02*
X012483Y012076D01*
X012483Y011998D02*
X013485Y011998D01*
X013485Y011919D02*
X012743Y011919D01*
X012900Y011841D02*
X013485Y011841D01*
X013485Y011762D02*
X012979Y011762D01*
X013019Y011684D02*
X013485Y011684D01*
X013485Y011605D02*
X013052Y011605D01*
X013055Y011526D02*
X013485Y011526D01*
X013485Y011448D02*
X013055Y011448D01*
X013028Y011369D02*
X013485Y011369D01*
X013485Y011291D02*
X012996Y011291D01*
X012921Y011212D02*
X013485Y011212D01*
X013485Y011134D02*
X012810Y011134D01*
X012731Y011055D02*
X013485Y011055D01*
X013485Y010977D02*
X012653Y010977D01*
X012574Y010898D02*
X013485Y010898D01*
X013485Y010820D02*
X012496Y010820D01*
X012563Y010051D02*
X012413Y009989D01*
X012297Y009873D01*
X012235Y009723D01*
X012235Y009559D01*
X012297Y009409D01*
X012413Y009293D01*
X012435Y009284D01*
X012435Y009228D01*
X011058Y007851D01*
X010329Y007851D01*
X010337Y007854D01*
X010414Y007931D01*
X010558Y007931D01*
X010732Y007931D01*
X011732Y008931D01*
X011855Y009054D01*
X011855Y009284D01*
X011877Y009293D01*
X011993Y009409D01*
X012055Y009559D01*
X012055Y009723D01*
X011993Y009873D01*
X011877Y009989D01*
X011727Y010051D01*
X011563Y010051D01*
X011413Y009989D01*
X011297Y009873D01*
X011235Y009723D01*
X011235Y009559D01*
X011297Y009409D01*
X011413Y009293D01*
X011435Y009284D01*
X011435Y009228D01*
X010558Y008351D01*
X010414Y008351D01*
X010337Y008428D01*
X010260Y008459D01*
X010732Y008931D01*
X010855Y009054D01*
X010855Y009284D01*
X010877Y009293D01*
X010993Y009409D01*
X011055Y009559D01*
X011055Y009723D01*
X010993Y009873D01*
X010877Y009989D01*
X010727Y010051D01*
X010563Y010051D01*
X010413Y009989D01*
X010297Y009873D01*
X010235Y009723D01*
X010235Y009559D01*
X010297Y009409D01*
X010413Y009293D01*
X010435Y009284D01*
X010435Y009228D01*
X009686Y008479D01*
X009578Y008479D01*
X009453Y008428D01*
X009358Y008333D01*
X009307Y008208D01*
X009307Y008074D01*
X009358Y007949D01*
X009453Y007854D01*
X009461Y007851D01*
X009058Y007851D01*
X008935Y007728D01*
X008605Y007398D01*
X008605Y008054D01*
X008854Y008303D01*
X008962Y008303D01*
X009087Y008354D01*
X009182Y008449D01*
X009233Y008574D01*
X009233Y008708D01*
X009182Y008833D01*
X009087Y008928D01*
X009010Y008959D01*
X009379Y009328D01*
X009413Y009293D01*
X009563Y009231D01*
X009727Y009231D01*
X009877Y009293D01*
X009993Y009409D01*
X010055Y009559D01*
X010055Y009723D01*
X009993Y009873D01*
X009877Y009989D01*
X009727Y010051D01*
X009563Y010051D01*
X009413Y009989D01*
X009297Y009873D01*
X009274Y009817D01*
X009055Y009598D01*
X009055Y009723D01*
X008993Y009873D01*
X008877Y009989D01*
X008727Y010051D01*
X008563Y010051D01*
X008413Y009989D01*
X008297Y009873D01*
X008235Y009723D01*
X008235Y009559D01*
X008297Y009409D01*
X008332Y009375D01*
X007936Y008979D01*
X007855Y008979D01*
X007855Y009284D01*
X007877Y009293D01*
X007993Y009409D01*
X008055Y009559D01*
X008055Y009723D01*
X007993Y009873D01*
X007877Y009989D01*
X007727Y010051D01*
X007563Y010051D01*
X007413Y009989D01*
X007297Y009873D01*
X007235Y009723D01*
X007235Y009559D01*
X007297Y009409D01*
X007413Y009293D01*
X007435Y009284D01*
X007435Y008979D01*
X007328Y008979D01*
X007203Y008928D01*
X007145Y008870D01*
X007087Y008928D01*
X006962Y008979D01*
X006855Y008979D01*
X006855Y009284D01*
X006877Y009293D01*
X006993Y009409D01*
X007055Y009559D01*
X007055Y009723D01*
X006993Y009873D01*
X006877Y009989D01*
X006727Y010051D01*
X006563Y010051D01*
X006413Y009989D01*
X006355Y009931D01*
X006355Y009978D01*
X006232Y010101D01*
X005982Y010351D01*
X005808Y010351D01*
X003183Y010351D01*
X003060Y010228D01*
X003050Y010218D01*
X002953Y010178D01*
X002858Y010083D01*
X002807Y009958D01*
X002807Y009824D01*
X002858Y009699D01*
X002953Y009604D01*
X003078Y009553D01*
X003212Y009553D01*
X003337Y009604D01*
X003432Y009699D01*
X003483Y009824D01*
X003483Y009931D01*
X004355Y009931D01*
X004297Y009873D01*
X004235Y009723D01*
X004235Y009559D01*
X004297Y009409D01*
X004413Y009293D01*
X004435Y009284D01*
X004435Y007054D01*
X004558Y006931D01*
X005030Y006459D01*
X004953Y006428D01*
X004858Y006333D01*
X004807Y006208D01*
X004807Y006074D01*
X004858Y005949D01*
X004953Y005854D01*
X005078Y005803D01*
X005186Y005803D01*
X005933Y005056D01*
X006107Y005056D01*
X006251Y005056D01*
X006328Y004979D01*
X006453Y004928D01*
X006587Y004928D01*
X006712Y004979D01*
X006807Y005074D01*
X006858Y005199D01*
X006858Y005333D01*
X006807Y005458D01*
X006712Y005553D01*
X006587Y005604D01*
X006453Y005604D01*
X006328Y005553D01*
X006251Y005476D01*
X006107Y005476D01*
X005527Y006056D01*
X005607Y006056D01*
X006251Y006056D01*
X006328Y005979D01*
X006453Y005928D01*
X006587Y005928D01*
X006712Y005979D01*
X006807Y006074D01*
X006858Y006199D01*
X006858Y006333D01*
X006807Y006458D01*
X006712Y006553D01*
X006587Y006604D01*
X006453Y006604D01*
X006328Y006553D01*
X006251Y006476D01*
X005607Y006476D01*
X005247Y006836D01*
X005328Y006803D01*
X005462Y006803D01*
X005587Y006854D01*
X005682Y006949D01*
X005733Y007074D01*
X005733Y007208D01*
X005682Y007333D01*
X005658Y007357D01*
X005732Y007431D01*
X005855Y007554D01*
X005855Y007957D01*
X005858Y007949D01*
X005953Y007854D01*
X006078Y007803D01*
X006212Y007803D01*
X006337Y007854D01*
X006432Y007949D01*
X006483Y008074D01*
X006483Y008208D01*
X006432Y008333D01*
X006355Y008410D01*
X006355Y009351D01*
X006413Y009293D01*
X006435Y009284D01*
X006435Y008978D01*
X006435Y008804D01*
X006557Y008682D01*
X006557Y008574D01*
X006608Y008449D01*
X006703Y008354D01*
X006828Y008303D01*
X006962Y008303D01*
X007087Y008354D01*
X007145Y008412D01*
X007203Y008354D01*
X007328Y008303D01*
X007462Y008303D01*
X007587Y008354D01*
X007645Y008412D01*
X007703Y008354D01*
X007828Y008303D01*
X007962Y008303D01*
X008087Y008354D01*
X008145Y008412D01*
X008203Y008354D01*
X008280Y008322D01*
X008185Y008228D01*
X008185Y006103D01*
X008185Y005929D01*
X008310Y005804D01*
X008433Y005681D01*
X008472Y005681D01*
X008432Y005583D01*
X008432Y005449D01*
X008483Y005324D01*
X008578Y005229D01*
X008640Y005203D01*
X008578Y005178D01*
X008483Y005083D01*
X008432Y004958D01*
X008432Y004887D01*
X008276Y005043D01*
X008307Y005074D01*
X008358Y005199D01*
X008358Y005333D01*
X008307Y005458D01*
X008212Y005553D01*
X008087Y005604D01*
X007983Y005604D01*
X007983Y005708D01*
X007932Y005833D01*
X007837Y005928D01*
X007712Y005979D01*
X007578Y005979D01*
X007453Y005928D01*
X007358Y005833D01*
X007307Y005708D01*
X007307Y005604D01*
X007203Y005604D01*
X007078Y005553D01*
X006983Y005458D01*
X006932Y005333D01*
X006932Y005199D01*
X006983Y005074D01*
X007078Y004979D01*
X007203Y004928D01*
X007326Y004928D01*
X007445Y004808D01*
X007445Y002002D01*
X007413Y001989D01*
X007297Y001873D01*
X007235Y001723D01*
X007235Y001559D01*
X007297Y001409D01*
X007413Y001293D01*
X007563Y001231D01*
X007727Y001231D01*
X007877Y001293D01*
X007993Y001409D01*
X008055Y001559D01*
X008055Y001723D01*
X007993Y001873D01*
X007877Y001989D01*
X007845Y002002D01*
X007845Y003158D01*
X008445Y002558D01*
X008445Y002002D01*
X008413Y001989D01*
X008297Y001873D01*
X008235Y001723D01*
X008235Y001559D01*
X008297Y001409D01*
X008413Y001293D01*
X008563Y001231D01*
X008727Y001231D01*
X008877Y001293D01*
X008993Y001409D01*
X009055Y001559D01*
X009055Y001723D01*
X008993Y001873D01*
X008877Y001989D01*
X008845Y002002D01*
X008845Y002558D01*
X008845Y002658D01*
X009445Y002058D01*
X009445Y002002D01*
X009413Y001989D01*
X009297Y001873D01*
X009235Y001723D01*
X009235Y001559D01*
X009297Y001409D01*
X009413Y001293D01*
X009563Y001231D01*
X009727Y001231D01*
X009877Y001293D01*
X009993Y001409D01*
X010055Y001559D01*
X010055Y001723D01*
X009993Y001873D01*
X009877Y001989D01*
X009845Y002002D01*
X009845Y002224D01*
X009728Y002341D01*
X008470Y003599D01*
X008470Y004683D01*
X008470Y004731D01*
X008483Y004699D01*
X008560Y004622D01*
X008560Y004103D01*
X008560Y003929D01*
X009307Y003182D01*
X009307Y003074D01*
X009358Y002949D01*
X009453Y002854D01*
X009578Y002803D01*
X009686Y002803D01*
X010445Y002044D01*
X010445Y002002D01*
X010413Y001989D01*
X010297Y001873D01*
X010235Y001723D01*
X010235Y001559D01*
X010297Y001409D01*
X010413Y001293D01*
X010563Y001231D01*
X010727Y001231D01*
X010877Y001293D01*
X010935Y001351D01*
X010935Y001304D01*
X011185Y001054D01*
X011308Y000931D01*
X012308Y000931D01*
X012482Y000931D01*
X012732Y001181D01*
X012821Y001270D01*
X012877Y001293D01*
X012993Y001409D01*
X013055Y001559D01*
X013055Y001723D01*
X012993Y001873D01*
X012877Y001989D01*
X012727Y002051D01*
X012563Y002051D01*
X012455Y002006D01*
X012483Y002074D01*
X012483Y002208D01*
X012432Y002333D01*
X012337Y002428D01*
X012212Y002479D01*
X012078Y002479D01*
X011953Y002428D01*
X011876Y002351D01*
X011718Y002351D01*
X010095Y003974D01*
X010095Y004737D01*
X010182Y004824D01*
X010226Y004931D01*
X010285Y004931D01*
X010185Y004831D01*
X010185Y004450D01*
X010454Y004181D01*
X010836Y004181D01*
X010935Y004281D01*
X010935Y003554D01*
X011058Y003431D01*
X011058Y003431D01*
X011435Y003054D01*
X011558Y002931D01*
X012158Y002931D01*
X012196Y002841D01*
X012345Y002692D01*
X012540Y002611D01*
X012750Y002611D01*
X012945Y002692D01*
X013094Y002841D01*
X013175Y003036D01*
X013175Y003246D01*
X013094Y003441D01*
X012945Y003590D01*
X012823Y003641D01*
X012945Y003692D01*
X013094Y003841D01*
X013175Y004036D01*
X013175Y004246D01*
X013094Y004441D01*
X012945Y004590D01*
X012823Y004641D01*
X012945Y004692D01*
X013094Y004841D01*
X013175Y005036D01*
X013175Y005246D01*
X013094Y005441D01*
X012945Y005590D01*
X012823Y005641D01*
X012945Y005692D01*
X013094Y005841D01*
X013175Y006036D01*
X013175Y006246D01*
X013094Y006441D01*
X012945Y006590D01*
X012794Y006653D01*
X012841Y006668D01*
X012912Y006705D01*
X012977Y006752D01*
X013034Y006809D01*
X013081Y006874D01*
X013118Y006945D01*
X013142Y007022D01*
X013155Y007101D01*
X012685Y007101D01*
X012685Y007181D01*
X012605Y007181D01*
X012605Y007101D01*
X012135Y007101D01*
X012135Y007101D01*
X012148Y007022D01*
X012172Y006945D01*
X012209Y006874D01*
X012256Y006809D01*
X012313Y006752D01*
X012378Y006705D01*
X012449Y006668D01*
X012496Y006653D01*
X012345Y006590D01*
X012196Y006441D01*
X012115Y006246D01*
X012115Y006036D01*
X012196Y005841D01*
X012345Y005692D01*
X012467Y005641D01*
X012345Y005590D01*
X012196Y005441D01*
X012115Y005246D01*
X012115Y005036D01*
X012196Y004841D01*
X012345Y004692D01*
X012467Y004641D01*
X012345Y004590D01*
X012196Y004441D01*
X012115Y004246D01*
X012115Y004036D01*
X012196Y003841D01*
X012345Y003692D01*
X012467Y003641D01*
X012345Y003590D01*
X012196Y003441D01*
X012158Y003351D01*
X011732Y003351D01*
X011355Y003728D01*
X011355Y004309D01*
X011463Y004201D01*
X011605Y004201D01*
X011605Y004601D01*
X011685Y004601D01*
X011685Y004681D01*
X011605Y004681D01*
X011605Y005081D01*
X011463Y005081D01*
X011355Y004973D01*
X011355Y005103D01*
X011232Y005226D01*
X011107Y005351D01*
X011005Y005351D01*
X011105Y005450D01*
X011105Y005831D01*
X010836Y006101D01*
X010454Y006101D01*
X010185Y005831D01*
X010185Y005700D01*
X010182Y005708D01*
X010087Y005803D01*
X009962Y005854D01*
X009854Y005854D01*
X009607Y006101D01*
X009433Y006101D01*
X009068Y006101D01*
X009108Y006199D01*
X009108Y006333D01*
X009057Y006458D01*
X008980Y006535D01*
X008980Y007179D01*
X009232Y007431D01*
X011058Y007431D01*
X011232Y007431D01*
X012208Y008407D01*
X012172Y008337D01*
X012148Y008260D01*
X012135Y008181D01*
X012605Y008181D01*
X012605Y008651D01*
X012605Y008651D01*
X012526Y008638D01*
X012449Y008614D01*
X012379Y008578D01*
X012732Y008931D01*
X012855Y009054D01*
X012855Y009284D01*
X012877Y009293D01*
X012993Y009409D01*
X013055Y009559D01*
X013055Y009723D01*
X012993Y009873D01*
X012877Y009989D01*
X012727Y010051D01*
X012563Y010051D01*
X012523Y010034D02*
X011767Y010034D01*
X011910Y009956D02*
X012380Y009956D01*
X012301Y009877D02*
X011989Y009877D01*
X012024Y009798D02*
X012266Y009798D01*
X012235Y009720D02*
X012055Y009720D01*
X012055Y009641D02*
X012235Y009641D01*
X012235Y009563D02*
X012055Y009563D01*
X012024Y009484D02*
X012266Y009484D01*
X012300Y009406D02*
X011990Y009406D01*
X011911Y009327D02*
X012379Y009327D01*
X012435Y009249D02*
X011855Y009249D01*
X011855Y009170D02*
X012377Y009170D01*
X012299Y009092D02*
X011855Y009092D01*
X011814Y009013D02*
X012220Y009013D01*
X012142Y008934D02*
X011736Y008934D01*
X011657Y008856D02*
X012063Y008856D01*
X011984Y008777D02*
X011578Y008777D01*
X011500Y008699D02*
X011906Y008699D01*
X011827Y008620D02*
X011421Y008620D01*
X011343Y008542D02*
X011749Y008542D01*
X011670Y008463D02*
X011264Y008463D01*
X011186Y008385D02*
X011592Y008385D01*
X011513Y008306D02*
X011107Y008306D01*
X011029Y008228D02*
X011435Y008228D01*
X011356Y008149D02*
X010950Y008149D01*
X010872Y008071D02*
X011278Y008071D01*
X011199Y007992D02*
X010793Y007992D01*
X011121Y007913D02*
X010396Y007913D01*
X010380Y008385D02*
X010592Y008385D01*
X010670Y008463D02*
X010264Y008463D01*
X010343Y008542D02*
X010749Y008542D01*
X010827Y008620D02*
X010421Y008620D01*
X010500Y008699D02*
X010906Y008699D01*
X010984Y008777D02*
X010578Y008777D01*
X010657Y008856D02*
X011063Y008856D01*
X011142Y008934D02*
X010736Y008934D01*
X010814Y009013D02*
X011220Y009013D01*
X011299Y009092D02*
X010855Y009092D01*
X010855Y009170D02*
X011377Y009170D01*
X011435Y009249D02*
X010855Y009249D01*
X010911Y009327D02*
X011379Y009327D01*
X011300Y009406D02*
X010990Y009406D01*
X011024Y009484D02*
X011266Y009484D01*
X011235Y009563D02*
X011055Y009563D01*
X011055Y009641D02*
X011235Y009641D01*
X011235Y009720D02*
X011055Y009720D01*
X011024Y009798D02*
X011266Y009798D01*
X011301Y009877D02*
X010989Y009877D01*
X010910Y009956D02*
X011380Y009956D01*
X011523Y010034D02*
X010767Y010034D01*
X010523Y010034D02*
X009767Y010034D01*
X009910Y009956D02*
X010380Y009956D01*
X010301Y009877D02*
X009989Y009877D01*
X010024Y009798D02*
X010266Y009798D01*
X010235Y009720D02*
X010055Y009720D01*
X010055Y009641D02*
X010235Y009641D01*
X010235Y009563D02*
X010055Y009563D01*
X010024Y009484D02*
X010266Y009484D01*
X010300Y009406D02*
X009990Y009406D01*
X009911Y009327D02*
X010379Y009327D01*
X010435Y009249D02*
X009769Y009249D01*
X009521Y009249D02*
X009300Y009249D01*
X009378Y009327D02*
X009379Y009327D01*
X009221Y009170D02*
X010377Y009170D01*
X010299Y009092D02*
X009143Y009092D01*
X009064Y009013D02*
X010220Y009013D01*
X010142Y008934D02*
X009071Y008934D01*
X009159Y008856D02*
X010063Y008856D01*
X009984Y008777D02*
X009205Y008777D01*
X009233Y008699D02*
X009906Y008699D01*
X009827Y008620D02*
X009233Y008620D01*
X009220Y008542D02*
X009749Y008542D01*
X009539Y008463D02*
X009188Y008463D01*
X009117Y008385D02*
X009410Y008385D01*
X009347Y008306D02*
X008971Y008306D01*
X008779Y008228D02*
X009315Y008228D01*
X009307Y008149D02*
X008700Y008149D01*
X008622Y008071D02*
X009308Y008071D01*
X009340Y007992D02*
X008605Y007992D01*
X008605Y007913D02*
X009394Y007913D01*
X009042Y007835D02*
X008605Y007835D01*
X008605Y007756D02*
X008963Y007756D01*
X008885Y007678D02*
X008605Y007678D01*
X008605Y007599D02*
X008806Y007599D01*
X008728Y007521D02*
X008605Y007521D01*
X008605Y007442D02*
X008649Y007442D01*
X008980Y007128D02*
X012605Y007128D01*
X012605Y007181D02*
X012135Y007181D01*
X012135Y007181D01*
X012148Y007260D01*
X012172Y007337D01*
X012209Y007408D01*
X012256Y007473D01*
X012313Y007530D01*
X012378Y007577D01*
X012449Y007614D01*
X012526Y007638D01*
X012542Y007641D01*
X012526Y007644D01*
X012449Y007668D01*
X012378Y007705D01*
X012313Y007752D01*
X012256Y007809D01*
X012209Y007874D01*
X012172Y007945D01*
X012148Y008022D01*
X012135Y008101D01*
X012135Y008101D01*
X012605Y008101D01*
X012605Y008181D01*
X012685Y008181D01*
X012685Y008651D01*
X012685Y008651D01*
X012764Y008638D01*
X012841Y008614D01*
X012912Y008577D01*
X012977Y008530D01*
X013034Y008473D01*
X013081Y008408D01*
X013118Y008337D01*
X013142Y008260D01*
X013155Y008181D01*
X013155Y008181D01*
X012685Y008181D01*
X012685Y008101D01*
X013155Y008101D01*
X013155Y008101D01*
X013142Y008022D01*
X013118Y007945D01*
X013081Y007874D01*
X013034Y007809D01*
X012977Y007752D01*
X012912Y007705D01*
X012841Y007668D01*
X012764Y007644D01*
X012748Y007641D01*
X012764Y007638D01*
X012841Y007614D01*
X012912Y007577D01*
X012977Y007530D01*
X013034Y007473D01*
X013081Y007408D01*
X013118Y007337D01*
X013142Y007260D01*
X013155Y007181D01*
X013155Y007181D01*
X012685Y007181D01*
X012685Y007631D01*
X012685Y008101D01*
X012605Y008101D01*
X012605Y007631D01*
X012605Y007181D01*
X012605Y007207D02*
X012685Y007207D01*
X012685Y007285D02*
X012605Y007285D01*
X012605Y007364D02*
X012685Y007364D01*
X012685Y007442D02*
X012605Y007442D01*
X012605Y007521D02*
X012685Y007521D01*
X012685Y007599D02*
X012605Y007599D01*
X012605Y007678D02*
X012685Y007678D01*
X012685Y007756D02*
X012605Y007756D01*
X012605Y007835D02*
X012685Y007835D01*
X012685Y007913D02*
X012605Y007913D01*
X012605Y007992D02*
X012685Y007992D01*
X012685Y008071D02*
X012605Y008071D01*
X012605Y008149D02*
X011950Y008149D01*
X011871Y008071D02*
X012140Y008071D01*
X012157Y007992D02*
X011793Y007992D01*
X011714Y007913D02*
X012189Y007913D01*
X012237Y007835D02*
X011636Y007835D01*
X011557Y007756D02*
X012308Y007756D01*
X012431Y007678D02*
X011479Y007678D01*
X011400Y007599D02*
X012421Y007599D01*
X012304Y007521D02*
X011322Y007521D01*
X011243Y007442D02*
X012234Y007442D01*
X012186Y007364D02*
X009165Y007364D01*
X009086Y007285D02*
X012156Y007285D01*
X012139Y007207D02*
X009008Y007207D01*
X008980Y007049D02*
X010227Y007049D01*
X010185Y007007D02*
X010185Y006275D01*
X010279Y006181D01*
X011011Y006181D01*
X011105Y006275D01*
X011105Y007007D01*
X011011Y007101D01*
X010279Y007101D01*
X010185Y007007D01*
X010185Y006971D02*
X008980Y006971D01*
X008980Y006892D02*
X010185Y006892D01*
X010185Y006814D02*
X008980Y006814D01*
X008980Y006735D02*
X010185Y006735D01*
X010185Y006657D02*
X008980Y006657D01*
X008980Y006578D02*
X010185Y006578D01*
X010185Y006500D02*
X009015Y006500D01*
X009072Y006421D02*
X010185Y006421D01*
X010185Y006343D02*
X009105Y006343D01*
X009108Y006264D02*
X010196Y006264D01*
X010274Y006185D02*
X009103Y006185D01*
X009070Y006107D02*
X012115Y006107D01*
X012115Y006185D02*
X011840Y006185D01*
X011836Y006181D02*
X012105Y006450D01*
X012105Y006831D01*
X011836Y007101D01*
X011454Y007101D01*
X011185Y006831D01*
X011185Y006450D01*
X011454Y006181D01*
X011836Y006181D01*
X011836Y006101D02*
X011454Y006101D01*
X011185Y005831D01*
X011185Y005450D01*
X011454Y005181D01*
X011836Y005181D01*
X012105Y005450D01*
X012105Y005831D01*
X011836Y006101D01*
X011908Y006028D02*
X012118Y006028D01*
X012151Y005950D02*
X011987Y005950D01*
X012065Y005871D02*
X012183Y005871D01*
X012244Y005793D02*
X012105Y005793D01*
X012105Y005714D02*
X012322Y005714D01*
X012455Y005636D02*
X012105Y005636D01*
X012105Y005557D02*
X012312Y005557D01*
X012233Y005479D02*
X012105Y005479D01*
X012055Y005400D02*
X012179Y005400D01*
X012146Y005321D02*
X011976Y005321D01*
X011898Y005243D02*
X012115Y005243D01*
X012115Y005164D02*
X011294Y005164D01*
X011355Y005086D02*
X012115Y005086D01*
X012127Y005007D02*
X011901Y005007D01*
X011827Y005081D02*
X011685Y005081D01*
X011685Y004681D01*
X012085Y004681D01*
X012085Y004823D01*
X011827Y005081D01*
X011685Y005007D02*
X011605Y005007D01*
X011605Y004929D02*
X011685Y004929D01*
X011685Y004850D02*
X011605Y004850D01*
X011605Y004772D02*
X011685Y004772D01*
X011685Y004693D02*
X011605Y004693D01*
X011685Y004615D02*
X012404Y004615D01*
X012343Y004693D02*
X012085Y004693D01*
X012085Y004772D02*
X012265Y004772D01*
X012192Y004850D02*
X012058Y004850D01*
X011979Y004929D02*
X012159Y004929D01*
X012085Y004601D02*
X011685Y004601D01*
X011685Y004201D01*
X011827Y004201D01*
X012085Y004459D01*
X012085Y004601D01*
X012085Y004536D02*
X012291Y004536D01*
X012212Y004458D02*
X012084Y004458D01*
X012005Y004379D02*
X012170Y004379D01*
X012137Y004300D02*
X011927Y004300D01*
X011848Y004222D02*
X012115Y004222D01*
X012115Y004143D02*
X011355Y004143D01*
X011355Y004065D02*
X012115Y004065D01*
X012135Y003986D02*
X011355Y003986D01*
X011355Y003908D02*
X012168Y003908D01*
X012207Y003829D02*
X011355Y003829D01*
X011355Y003751D02*
X012286Y003751D01*
X012392Y003672D02*
X011411Y003672D01*
X011489Y003594D02*
X012353Y003594D01*
X012270Y003515D02*
X011568Y003515D01*
X011646Y003436D02*
X012194Y003436D01*
X012161Y003358D02*
X011725Y003358D01*
X011435Y003054D02*
X011435Y003054D01*
X011445Y003044D02*
X011025Y003044D01*
X010947Y003122D02*
X011367Y003122D01*
X011288Y003201D02*
X010868Y003201D01*
X010789Y003279D02*
X011210Y003279D01*
X011131Y003358D02*
X010711Y003358D01*
X010632Y003436D02*
X011053Y003436D01*
X010974Y003515D02*
X010554Y003515D01*
X010475Y003594D02*
X010935Y003594D01*
X010935Y003672D02*
X010397Y003672D01*
X010318Y003751D02*
X010935Y003751D01*
X010935Y003829D02*
X010240Y003829D01*
X010161Y003908D02*
X010935Y003908D01*
X010935Y003986D02*
X010095Y003986D01*
X010095Y004065D02*
X010935Y004065D01*
X010935Y004143D02*
X010095Y004143D01*
X010095Y004222D02*
X010414Y004222D01*
X010335Y004300D02*
X010095Y004300D01*
X010095Y004379D02*
X010256Y004379D01*
X010185Y004458D02*
X010095Y004458D01*
X010095Y004536D02*
X010185Y004536D01*
X010185Y004615D02*
X010095Y004615D01*
X010095Y004693D02*
X010185Y004693D01*
X010185Y004772D02*
X010129Y004772D01*
X010193Y004850D02*
X010204Y004850D01*
X010225Y004929D02*
X010282Y004929D01*
X009895Y005016D02*
X009895Y003891D01*
X011645Y002141D01*
X011645Y001641D01*
X011159Y001080D02*
X000805Y001080D01*
X000805Y001002D02*
X011237Y001002D01*
X011080Y001159D02*
X006213Y001159D01*
X006157Y001104D02*
X006288Y001230D01*
X006292Y001413D01*
X006197Y001512D01*
X006290Y001605D01*
X006290Y001787D01*
X007262Y001787D01*
X007235Y001709D02*
X006290Y001709D01*
X006290Y001787D02*
X006290Y002037D01*
X006161Y002166D01*
X006041Y002286D01*
X005859Y002286D01*
X005489Y002286D01*
X005311Y002286D01*
X005129Y002286D01*
X004900Y002057D01*
X004810Y002147D01*
X004681Y002276D01*
X004441Y002276D01*
X004259Y002276D01*
X004070Y002087D01*
X004011Y002146D01*
X003891Y002266D01*
X003709Y002266D01*
X003469Y002266D01*
X003340Y002137D01*
X003224Y002021D01*
X002979Y002266D01*
X002796Y002266D01*
X002668Y002137D01*
X002668Y002130D01*
X002668Y002130D01*
X002668Y001546D01*
X002556Y001546D01*
X002428Y001417D01*
X002428Y001235D01*
X002556Y001106D01*
X003224Y001106D01*
X003346Y001229D01*
X003349Y001226D01*
X003469Y001106D01*
X003651Y001106D01*
X003709Y001106D01*
X003891Y001106D01*
X004015Y001230D01*
X004139Y001106D01*
X004630Y001106D01*
X004631Y001105D01*
X004722Y001106D01*
X004811Y001106D01*
X004812Y001107D01*
X004813Y001107D01*
X004877Y001172D01*
X004940Y001235D01*
X004940Y001236D01*
X004941Y001237D01*
X004940Y001294D01*
X004990Y001240D01*
X004990Y001235D01*
X005051Y001174D01*
X005110Y001110D01*
X005115Y001110D01*
X005119Y001106D01*
X005206Y001106D01*
X005292Y001103D01*
X005296Y001106D01*
X005369Y001106D01*
X005489Y001106D01*
X005671Y001106D01*
X005800Y001235D01*
X005800Y001290D01*
X005974Y001108D01*
X006157Y001104D01*
X006288Y001237D02*
X007548Y001237D01*
X007390Y001316D02*
X006290Y001316D01*
X006291Y001394D02*
X007312Y001394D01*
X007271Y001473D02*
X006234Y001473D01*
X006237Y001551D02*
X007238Y001551D01*
X007235Y001630D02*
X006290Y001630D01*
X006290Y001866D02*
X007294Y001866D01*
X007368Y001944D02*
X006290Y001944D01*
X006290Y002023D02*
X007445Y002023D01*
X007445Y002101D02*
X006226Y002101D01*
X006147Y002180D02*
X007445Y002180D01*
X007445Y002258D02*
X006069Y002258D01*
X005850Y001237D02*
X005800Y001237D01*
X005724Y001159D02*
X005926Y001159D01*
X005065Y001159D02*
X004864Y001159D01*
X004941Y001237D02*
X004990Y001237D01*
X004944Y002101D02*
X004856Y002101D01*
X004777Y002180D02*
X005023Y002180D01*
X005101Y002258D02*
X004699Y002258D01*
X004241Y002258D02*
X003899Y002258D01*
X003977Y002180D02*
X004163Y002180D01*
X004084Y002101D02*
X004056Y002101D01*
X003461Y002258D02*
X002986Y002258D01*
X003065Y002180D02*
X003383Y002180D01*
X003304Y002101D02*
X003143Y002101D01*
X003222Y002023D02*
X003226Y002023D01*
X002789Y002258D02*
X002105Y002258D01*
X002076Y002289D02*
X002073Y002289D01*
X002071Y002291D01*
X001983Y002291D01*
X001894Y002293D01*
X001892Y002291D01*
X001889Y002291D01*
X001827Y002229D01*
X001762Y002167D01*
X001762Y002164D01*
X001760Y002162D01*
X001760Y002074D01*
X001758Y001985D01*
X001760Y001983D01*
X001760Y001916D01*
X001756Y001916D01*
X001628Y001787D01*
X000805Y001787D01*
X000805Y001709D02*
X001628Y001709D01*
X001628Y001787D02*
X001628Y001605D01*
X001756Y001476D01*
X001760Y001476D01*
X001760Y001235D01*
X001889Y001106D01*
X002071Y001106D01*
X002200Y001235D01*
X002200Y001476D01*
X002335Y001476D01*
X002423Y001474D01*
X002426Y001476D01*
X002429Y001476D01*
X002491Y001538D01*
X002555Y001600D01*
X002555Y001603D01*
X002558Y001605D01*
X002558Y001693D01*
X002560Y001782D01*
X002558Y001784D01*
X002558Y001787D01*
X002668Y001787D01*
X002668Y001709D02*
X002558Y001709D01*
X002558Y001787D02*
X002495Y001849D01*
X002200Y002159D01*
X002200Y002162D01*
X002138Y002224D01*
X002076Y002289D01*
X002182Y002180D02*
X002710Y002180D01*
X002668Y002101D02*
X002255Y002101D01*
X002330Y002023D02*
X002668Y002023D01*
X002668Y001944D02*
X002405Y001944D01*
X002480Y001866D02*
X002668Y001866D01*
X002668Y001630D02*
X002558Y001630D01*
X002505Y001551D02*
X002668Y001551D01*
X002483Y001473D02*
X002200Y001473D01*
X002200Y001394D02*
X002428Y001394D01*
X002428Y001316D02*
X002200Y001316D01*
X002200Y001237D02*
X002428Y001237D01*
X002504Y001159D02*
X002124Y001159D01*
X001836Y001159D02*
X000805Y001159D01*
X000805Y001237D02*
X001760Y001237D01*
X001760Y001316D02*
X000805Y001316D01*
X000805Y001394D02*
X001760Y001394D01*
X001760Y001473D02*
X000805Y001473D01*
X000805Y001551D02*
X001681Y001551D01*
X001628Y001630D02*
X000805Y001630D01*
X000805Y001866D02*
X001706Y001866D01*
X001760Y001944D02*
X000805Y001944D01*
X000805Y002023D02*
X001759Y002023D01*
X001760Y002101D02*
X000805Y002101D01*
X000805Y002180D02*
X001775Y002180D01*
X001856Y002258D02*
X000805Y002258D01*
X000805Y002337D02*
X007445Y002337D01*
X007445Y002415D02*
X000805Y002415D01*
X000805Y002494D02*
X007445Y002494D01*
X007445Y002572D02*
X000805Y002572D01*
X000805Y002651D02*
X007445Y002651D01*
X007445Y002730D02*
X000805Y002730D01*
X000805Y002808D02*
X007445Y002808D01*
X007445Y002887D02*
X000805Y002887D01*
X000805Y002965D02*
X007445Y002965D01*
X007445Y003044D02*
X000805Y003044D01*
X000805Y003122D02*
X007445Y003122D01*
X007445Y003201D02*
X000805Y003201D01*
X000805Y003279D02*
X007445Y003279D01*
X007445Y003358D02*
X000805Y003358D01*
X000805Y003436D02*
X007445Y003436D01*
X007445Y003515D02*
X000805Y003515D01*
X000805Y003594D02*
X007445Y003594D01*
X007445Y003672D02*
X000805Y003672D01*
X000805Y003751D02*
X007445Y003751D01*
X007445Y003829D02*
X000805Y003829D01*
X000805Y003908D02*
X007445Y003908D01*
X007445Y003986D02*
X000805Y003986D01*
X000805Y004065D02*
X007445Y004065D01*
X007445Y004143D02*
X001726Y004143D01*
X001749Y004155D02*
X001805Y004196D01*
X001853Y004244D01*
X001894Y004300D01*
X007445Y004300D01*
X007445Y004222D02*
X001831Y004222D01*
X001894Y004300D02*
X001925Y004361D01*
X001946Y004426D01*
X001956Y004489D01*
X001560Y004489D01*
X001560Y004569D01*
X001480Y004569D01*
X001480Y004965D01*
X001418Y004955D01*
X001352Y004934D01*
X001291Y004902D01*
X001235Y004862D01*
X001187Y004813D01*
X001146Y004758D01*
X001115Y004696D01*
X001094Y004631D01*
X001084Y004569D01*
X001480Y004569D01*
X001480Y004489D01*
X001084Y004489D01*
X001094Y004426D01*
X001115Y004361D01*
X001146Y004300D01*
X000805Y004300D01*
X000805Y004222D02*
X001209Y004222D01*
X001187Y004244D02*
X001235Y004196D01*
X001291Y004155D01*
X001352Y004124D01*
X001418Y004103D01*
X001480Y004093D01*
X001480Y004489D01*
X001560Y004489D01*
X001560Y004093D01*
X001622Y004103D01*
X001688Y004124D01*
X001749Y004155D01*
X001931Y004379D02*
X007445Y004379D01*
X007445Y004458D02*
X001951Y004458D01*
X001956Y004569D02*
X001946Y004631D01*
X001925Y004696D01*
X001894Y004758D01*
X001853Y004813D01*
X001805Y004862D01*
X001749Y004902D01*
X001688Y004934D01*
X001622Y004955D01*
X001560Y004965D01*
X001560Y004569D01*
X001956Y004569D01*
X001949Y004615D02*
X002242Y004615D01*
X002215Y004626D02*
X002313Y004585D01*
X002420Y004585D01*
X002518Y004626D01*
X002594Y004702D01*
X002635Y004800D01*
X002635Y004907D01*
X002594Y005006D01*
X002518Y005081D01*
X002420Y005122D01*
X002313Y005122D01*
X002215Y005081D01*
X002139Y005006D01*
X002098Y004907D01*
X002098Y004800D01*
X002139Y004702D01*
X002215Y004626D01*
X002148Y004693D02*
X001926Y004693D01*
X001884Y004772D02*
X002110Y004772D01*
X002098Y004850D02*
X001816Y004850D01*
X001697Y004929D02*
X002107Y004929D01*
X002141Y005007D02*
X000805Y005007D01*
X000805Y004929D02*
X001343Y004929D01*
X001480Y004929D02*
X001560Y004929D01*
X001560Y004850D02*
X001480Y004850D01*
X001480Y004772D02*
X001560Y004772D01*
X001560Y004693D02*
X001480Y004693D01*
X001480Y004615D02*
X001560Y004615D01*
X001560Y004536D02*
X007445Y004536D01*
X007445Y004615D02*
X002491Y004615D01*
X002585Y004693D02*
X007445Y004693D01*
X007445Y004772D02*
X002623Y004772D01*
X002635Y004850D02*
X007403Y004850D01*
X007200Y004929D02*
X006590Y004929D01*
X006450Y004929D02*
X002626Y004929D01*
X002592Y005007D02*
X006300Y005007D01*
X006254Y005479D02*
X006104Y005479D01*
X006026Y005557D02*
X006339Y005557D01*
X006701Y005557D02*
X007089Y005557D01*
X007004Y005479D02*
X006786Y005479D01*
X006831Y005400D02*
X006959Y005400D01*
X006932Y005321D02*
X006858Y005321D01*
X006858Y005243D02*
X006932Y005243D01*
X006946Y005164D02*
X006844Y005164D01*
X006812Y005086D02*
X006978Y005086D01*
X007050Y005007D02*
X006740Y005007D01*
X007270Y005266D02*
X007645Y004891D01*
X007645Y001641D01*
X007922Y001944D02*
X008368Y001944D01*
X008294Y001866D02*
X007996Y001866D01*
X008028Y001787D02*
X008262Y001787D01*
X008235Y001709D02*
X008055Y001709D01*
X008055Y001630D02*
X008235Y001630D01*
X008238Y001551D02*
X008052Y001551D01*
X008019Y001473D02*
X008271Y001473D01*
X008312Y001394D02*
X007978Y001394D01*
X007900Y001316D02*
X008390Y001316D01*
X008548Y001237D02*
X007742Y001237D01*
X007845Y002023D02*
X008445Y002023D01*
X008445Y002101D02*
X007845Y002101D01*
X007845Y002180D02*
X008445Y002180D01*
X008445Y002258D02*
X007845Y002258D01*
X007845Y002337D02*
X008445Y002337D01*
X008445Y002415D02*
X007845Y002415D01*
X007845Y002494D02*
X008445Y002494D01*
X008431Y002572D02*
X007845Y002572D01*
X007845Y002651D02*
X008352Y002651D01*
X008274Y002730D02*
X007845Y002730D01*
X007845Y002808D02*
X008195Y002808D01*
X008116Y002887D02*
X007845Y002887D01*
X007845Y002965D02*
X008038Y002965D01*
X007959Y003044D02*
X007845Y003044D01*
X007845Y003122D02*
X007881Y003122D01*
X007895Y003391D02*
X007895Y004891D01*
X007645Y005141D01*
X007645Y005641D01*
X007307Y005636D02*
X005947Y005636D01*
X005869Y005714D02*
X007309Y005714D01*
X007342Y005793D02*
X005790Y005793D01*
X005712Y005871D02*
X007397Y005871D01*
X007506Y005950D02*
X006641Y005950D01*
X006761Y006028D02*
X008185Y006028D01*
X008185Y005950D02*
X007784Y005950D01*
X007893Y005871D02*
X008243Y005871D01*
X008321Y005793D02*
X007948Y005793D01*
X007981Y005714D02*
X008400Y005714D01*
X008453Y005636D02*
X007983Y005636D01*
X008201Y005557D02*
X008432Y005557D01*
X008432Y005479D02*
X008286Y005479D01*
X008331Y005400D02*
X008452Y005400D01*
X008486Y005321D02*
X008358Y005321D01*
X008358Y005243D02*
X008564Y005243D01*
X008565Y005164D02*
X008344Y005164D01*
X008312Y005086D02*
X008486Y005086D01*
X008452Y005007D02*
X008311Y005007D01*
X008390Y004929D02*
X008432Y004929D01*
X008470Y004693D02*
X008489Y004693D01*
X008470Y004615D02*
X008560Y004615D01*
X008560Y004536D02*
X008470Y004536D01*
X008470Y004458D02*
X008560Y004458D01*
X008560Y004379D02*
X008470Y004379D01*
X008470Y004300D02*
X008560Y004300D01*
X008560Y004222D02*
X008470Y004222D01*
X008470Y004143D02*
X008560Y004143D01*
X008560Y004065D02*
X008470Y004065D01*
X008470Y003986D02*
X008560Y003986D01*
X008581Y003908D02*
X008470Y003908D01*
X008470Y003829D02*
X008660Y003829D01*
X008738Y003751D02*
X008470Y003751D01*
X008470Y003672D02*
X008817Y003672D01*
X008895Y003594D02*
X008475Y003594D01*
X008554Y003515D02*
X008974Y003515D01*
X009053Y003436D02*
X008632Y003436D01*
X008711Y003358D02*
X009131Y003358D01*
X009210Y003279D02*
X008789Y003279D01*
X008868Y003201D02*
X009288Y003201D01*
X009307Y003122D02*
X008947Y003122D01*
X009025Y003044D02*
X009319Y003044D01*
X009352Y002965D02*
X009104Y002965D01*
X009182Y002887D02*
X009421Y002887D01*
X009564Y002808D02*
X009261Y002808D01*
X009339Y002730D02*
X009759Y002730D01*
X009838Y002651D02*
X009418Y002651D01*
X009496Y002572D02*
X009917Y002572D01*
X009995Y002494D02*
X009575Y002494D01*
X009653Y002415D02*
X010074Y002415D01*
X010152Y002337D02*
X009732Y002337D01*
X009811Y002258D02*
X010231Y002258D01*
X010309Y002180D02*
X009845Y002180D01*
X009845Y002101D02*
X010388Y002101D01*
X010445Y002023D02*
X009845Y002023D01*
X009922Y001944D02*
X010368Y001944D01*
X010294Y001866D02*
X009996Y001866D01*
X010028Y001787D02*
X010262Y001787D01*
X010235Y001709D02*
X010055Y001709D01*
X010055Y001630D02*
X010235Y001630D01*
X010238Y001551D02*
X010052Y001551D01*
X010019Y001473D02*
X010271Y001473D01*
X010312Y001394D02*
X009978Y001394D01*
X009900Y001316D02*
X010390Y001316D01*
X010548Y001237D02*
X009742Y001237D01*
X009548Y001237D02*
X008742Y001237D01*
X008900Y001316D02*
X009390Y001316D01*
X009312Y001394D02*
X008978Y001394D01*
X009019Y001473D02*
X009271Y001473D01*
X009238Y001551D02*
X009052Y001551D01*
X009055Y001630D02*
X009235Y001630D01*
X009235Y001709D02*
X009055Y001709D01*
X009028Y001787D02*
X009262Y001787D01*
X009294Y001866D02*
X008996Y001866D01*
X008922Y001944D02*
X009368Y001944D01*
X009445Y002023D02*
X008845Y002023D01*
X008845Y002101D02*
X009402Y002101D01*
X009323Y002180D02*
X008845Y002180D01*
X008845Y002258D02*
X009245Y002258D01*
X009166Y002337D02*
X008845Y002337D01*
X008845Y002415D02*
X009088Y002415D01*
X009009Y002494D02*
X008845Y002494D01*
X008845Y002572D02*
X008931Y002572D01*
X008852Y002651D02*
X008845Y002651D01*
X008645Y002641D02*
X007895Y003391D01*
X008270Y003516D02*
X009645Y002141D01*
X009645Y001641D01*
X008645Y001641D02*
X008645Y002641D01*
X008270Y003516D02*
X008270Y004766D01*
X008020Y005016D01*
X008020Y005266D01*
X008185Y006107D02*
X006820Y006107D01*
X006853Y006185D02*
X008185Y006185D01*
X008185Y006264D02*
X006858Y006264D01*
X006855Y006343D02*
X008185Y006343D01*
X008185Y006421D02*
X006822Y006421D01*
X006765Y006500D02*
X008185Y006500D01*
X008185Y006578D02*
X006651Y006578D01*
X006390Y006578D02*
X005505Y006578D01*
X005583Y006500D02*
X006275Y006500D01*
X006279Y006028D02*
X005555Y006028D01*
X005633Y005950D02*
X006399Y005950D01*
X005746Y005243D02*
X000805Y005243D01*
X000805Y005321D02*
X005668Y005321D01*
X005589Y005400D02*
X000805Y005400D01*
X000805Y005479D02*
X005510Y005479D01*
X005432Y005557D02*
X000805Y005557D01*
X000805Y005636D02*
X005353Y005636D01*
X005275Y005714D02*
X000805Y005714D01*
X000805Y005793D02*
X005196Y005793D01*
X004936Y005871D02*
X000805Y005871D01*
X000805Y005950D02*
X004858Y005950D01*
X004825Y006028D02*
X000805Y006028D01*
X000805Y006107D02*
X004807Y006107D01*
X004807Y006185D02*
X002481Y006185D01*
X002518Y006201D02*
X002594Y006276D01*
X002635Y006375D01*
X002635Y006482D01*
X002594Y006580D01*
X002518Y006656D01*
X002420Y006697D01*
X002313Y006697D01*
X002215Y006656D01*
X002139Y006580D01*
X002098Y006482D01*
X002098Y006375D01*
X002139Y006276D01*
X002215Y006201D01*
X002313Y006160D01*
X002420Y006160D01*
X002518Y006201D01*
X002581Y006264D02*
X004830Y006264D01*
X004868Y006343D02*
X002621Y006343D01*
X002635Y006421D02*
X004947Y006421D01*
X004989Y006500D02*
X002627Y006500D01*
X002595Y006578D02*
X004911Y006578D01*
X004832Y006657D02*
X002516Y006657D01*
X002217Y006657D02*
X001947Y006657D01*
X001946Y006651D02*
X001956Y006713D01*
X001560Y006713D01*
X001560Y006317D01*
X001622Y006327D01*
X001688Y006348D01*
X001749Y006380D01*
X001805Y006420D01*
X001853Y006469D01*
X001894Y006524D01*
X001925Y006585D01*
X001946Y006651D01*
X001921Y006578D02*
X002138Y006578D01*
X002106Y006500D02*
X001876Y006500D01*
X001806Y006421D02*
X002098Y006421D01*
X002112Y006343D02*
X001670Y006343D01*
X001560Y006343D02*
X001480Y006343D01*
X001480Y006317D02*
X001480Y006713D01*
X001560Y006713D01*
X001560Y006793D01*
X001956Y006793D01*
X001946Y006855D01*
X001925Y006921D01*
X001894Y006982D01*
X001853Y007038D01*
X001805Y007086D01*
X001749Y007127D01*
X001688Y007158D01*
X001622Y007179D01*
X001560Y007189D01*
X001560Y006793D01*
X001480Y006793D01*
X001480Y006713D01*
X001084Y006713D01*
X001094Y006651D01*
X001115Y006585D01*
X001146Y006524D01*
X001187Y006469D01*
X001235Y006420D01*
X001291Y006380D01*
X001352Y006348D01*
X001418Y006327D01*
X001480Y006317D01*
X001480Y006421D02*
X001560Y006421D01*
X001560Y006500D02*
X001480Y006500D01*
X001480Y006578D02*
X001560Y006578D01*
X001560Y006657D02*
X001480Y006657D01*
X001480Y006735D02*
X000805Y006735D01*
X000805Y006657D02*
X001093Y006657D01*
X001119Y006578D02*
X000805Y006578D01*
X000805Y006500D02*
X001164Y006500D01*
X001234Y006421D02*
X000805Y006421D01*
X000805Y006343D02*
X001370Y006343D01*
X001560Y006735D02*
X004754Y006735D01*
X004675Y006814D02*
X001953Y006814D01*
X001934Y006892D02*
X004597Y006892D01*
X004518Y006971D02*
X001899Y006971D01*
X001842Y007049D02*
X004440Y007049D01*
X004435Y007128D02*
X001747Y007128D01*
X001560Y007128D02*
X001480Y007128D01*
X001480Y007189D02*
X001418Y007179D01*
X001352Y007158D01*
X001291Y007127D01*
X001235Y007086D01*
X001187Y007038D01*
X001146Y006982D01*
X001115Y006921D01*
X001094Y006855D01*
X001084Y006793D01*
X001480Y006793D01*
X001480Y007189D01*
X001480Y007049D02*
X001560Y007049D01*
X001560Y006971D02*
X001480Y006971D01*
X001480Y006892D02*
X001560Y006892D01*
X001560Y006814D02*
X001480Y006814D01*
X001293Y007128D02*
X000805Y007128D01*
X000805Y007049D02*
X001199Y007049D01*
X001141Y006971D02*
X000805Y006971D01*
X000805Y006892D02*
X001106Y006892D01*
X001087Y006814D02*
X000805Y006814D01*
X000805Y007207D02*
X004435Y007207D01*
X004435Y007285D02*
X000805Y007285D01*
X000805Y007364D02*
X004435Y007364D01*
X004435Y007442D02*
X000805Y007442D01*
X000805Y007521D02*
X004435Y007521D01*
X004435Y007599D02*
X000805Y007599D01*
X000805Y007678D02*
X004435Y007678D01*
X004435Y007756D02*
X000805Y007756D01*
X000805Y007835D02*
X004435Y007835D01*
X004435Y007913D02*
X000805Y007913D01*
X000805Y007992D02*
X004435Y007992D01*
X004435Y008071D02*
X000805Y008071D01*
X000805Y008149D02*
X004435Y008149D01*
X004435Y008228D02*
X000805Y008228D01*
X000805Y008306D02*
X004435Y008306D01*
X004435Y008385D02*
X000805Y008385D01*
X000805Y008463D02*
X004435Y008463D01*
X004435Y008542D02*
X000805Y008542D01*
X000805Y008620D02*
X004435Y008620D01*
X004435Y008699D02*
X000805Y008699D01*
X000805Y008777D02*
X004435Y008777D01*
X004435Y008856D02*
X000805Y008856D01*
X000805Y008934D02*
X004435Y008934D01*
X004435Y009013D02*
X000805Y009013D01*
X000805Y009092D02*
X004435Y009092D01*
X004435Y009170D02*
X000805Y009170D01*
X000805Y009249D02*
X004435Y009249D01*
X004379Y009327D02*
X000805Y009327D01*
X000805Y009406D02*
X004300Y009406D01*
X004266Y009484D02*
X000805Y009484D01*
X000805Y009563D02*
X003053Y009563D01*
X002916Y009641D02*
X000805Y009641D01*
X000805Y009720D02*
X002850Y009720D01*
X002817Y009798D02*
X000805Y009798D01*
X000805Y009877D02*
X002807Y009877D01*
X002807Y009956D02*
X000805Y009956D01*
X000805Y010034D02*
X002838Y010034D01*
X002888Y010113D02*
X000805Y010113D01*
X000805Y010191D02*
X002986Y010191D01*
X003102Y010270D02*
X000805Y010270D01*
X000805Y010348D02*
X003180Y010348D01*
X003483Y009877D02*
X004301Y009877D01*
X004266Y009798D02*
X003473Y009798D01*
X003440Y009720D02*
X004235Y009720D01*
X004235Y009641D02*
X003374Y009641D01*
X003237Y009563D02*
X004235Y009563D01*
X004855Y009284D02*
X004877Y009293D01*
X004993Y009409D01*
X005055Y009559D01*
X005055Y009723D01*
X004993Y009873D01*
X004935Y009931D01*
X005355Y009931D01*
X005297Y009873D01*
X005235Y009723D01*
X005235Y009559D01*
X005297Y009409D01*
X005413Y009293D01*
X005435Y009284D01*
X005435Y007728D01*
X005185Y007478D01*
X005185Y007410D01*
X005108Y007333D01*
X005057Y007208D01*
X005057Y007074D01*
X005090Y006993D01*
X004855Y007228D01*
X004855Y009284D01*
X004855Y009249D02*
X005435Y009249D01*
X005435Y009170D02*
X004855Y009170D01*
X004855Y009092D02*
X005435Y009092D01*
X005435Y009013D02*
X004855Y009013D01*
X004855Y008934D02*
X005435Y008934D01*
X005435Y008856D02*
X004855Y008856D01*
X004855Y008777D02*
X005435Y008777D01*
X005435Y008699D02*
X004855Y008699D01*
X004855Y008620D02*
X005435Y008620D01*
X005435Y008542D02*
X004855Y008542D01*
X004855Y008463D02*
X005435Y008463D01*
X005435Y008385D02*
X004855Y008385D01*
X004855Y008306D02*
X005435Y008306D01*
X005435Y008228D02*
X004855Y008228D01*
X004855Y008149D02*
X005435Y008149D01*
X005435Y008071D02*
X004855Y008071D01*
X004855Y007992D02*
X005435Y007992D01*
X005435Y007913D02*
X004855Y007913D01*
X004855Y007835D02*
X005435Y007835D01*
X005435Y007756D02*
X004855Y007756D01*
X004855Y007678D02*
X005385Y007678D01*
X005306Y007599D02*
X004855Y007599D01*
X004855Y007521D02*
X005228Y007521D01*
X005185Y007442D02*
X004855Y007442D01*
X004855Y007364D02*
X005139Y007364D01*
X005088Y007285D02*
X004855Y007285D01*
X004876Y007207D02*
X005057Y007207D01*
X005057Y007128D02*
X004955Y007128D01*
X005034Y007049D02*
X005067Y007049D01*
X005269Y006814D02*
X005301Y006814D01*
X005348Y006735D02*
X008185Y006735D01*
X008185Y006657D02*
X005426Y006657D01*
X005490Y006814D02*
X008185Y006814D01*
X008185Y006892D02*
X005625Y006892D01*
X005691Y006971D02*
X008185Y006971D01*
X008185Y007049D02*
X005723Y007049D01*
X005733Y007128D02*
X008185Y007128D01*
X008185Y007207D02*
X005733Y007207D01*
X005702Y007285D02*
X008185Y007285D01*
X008185Y007364D02*
X005665Y007364D01*
X005743Y007442D02*
X008185Y007442D01*
X008185Y007521D02*
X005822Y007521D01*
X005855Y007599D02*
X008185Y007599D01*
X008185Y007678D02*
X005855Y007678D01*
X005855Y007756D02*
X008185Y007756D01*
X008185Y007835D02*
X006290Y007835D01*
X006396Y007913D02*
X008185Y007913D01*
X008185Y007992D02*
X006450Y007992D01*
X006482Y008071D02*
X008185Y008071D01*
X008185Y008149D02*
X006483Y008149D01*
X006475Y008228D02*
X008185Y008228D01*
X008263Y008306D02*
X007971Y008306D01*
X007819Y008306D02*
X007471Y008306D01*
X007319Y008306D02*
X006971Y008306D01*
X006819Y008306D02*
X006443Y008306D01*
X006380Y008385D02*
X006673Y008385D01*
X006602Y008463D02*
X006355Y008463D01*
X006355Y008542D02*
X006570Y008542D01*
X006557Y008620D02*
X006355Y008620D01*
X006355Y008699D02*
X006540Y008699D01*
X006462Y008777D02*
X006355Y008777D01*
X006355Y008856D02*
X006435Y008856D01*
X006435Y008934D02*
X006355Y008934D01*
X006355Y009013D02*
X006435Y009013D01*
X006435Y009092D02*
X006355Y009092D01*
X006355Y009170D02*
X006435Y009170D01*
X006435Y009249D02*
X006355Y009249D01*
X006355Y009327D02*
X006379Y009327D01*
X006855Y009249D02*
X007435Y009249D01*
X007435Y009170D02*
X006855Y009170D01*
X006855Y009092D02*
X007435Y009092D01*
X007435Y009013D02*
X006855Y009013D01*
X007071Y008934D02*
X007219Y008934D01*
X007379Y009327D02*
X006911Y009327D01*
X006990Y009406D02*
X007300Y009406D01*
X007266Y009484D02*
X007024Y009484D01*
X007055Y009563D02*
X007235Y009563D01*
X007235Y009641D02*
X007055Y009641D01*
X007055Y009720D02*
X007235Y009720D01*
X007266Y009798D02*
X007024Y009798D01*
X006989Y009877D02*
X007301Y009877D01*
X007380Y009956D02*
X006910Y009956D01*
X006767Y010034D02*
X007523Y010034D01*
X007767Y010034D02*
X008523Y010034D01*
X008380Y009956D02*
X007910Y009956D01*
X007989Y009877D02*
X008301Y009877D01*
X008266Y009798D02*
X008024Y009798D01*
X008055Y009720D02*
X008235Y009720D01*
X008235Y009641D02*
X008055Y009641D01*
X008055Y009563D02*
X008235Y009563D01*
X008266Y009484D02*
X008024Y009484D01*
X007990Y009406D02*
X008300Y009406D01*
X008284Y009327D02*
X007911Y009327D01*
X007855Y009249D02*
X008206Y009249D01*
X008127Y009170D02*
X007855Y009170D01*
X007855Y009092D02*
X008049Y009092D01*
X007970Y009013D02*
X007855Y009013D01*
X007673Y008385D02*
X007617Y008385D01*
X007173Y008385D02*
X007117Y008385D01*
X008117Y008385D02*
X008173Y008385D01*
X009055Y009641D02*
X009099Y009641D01*
X009055Y009720D02*
X009177Y009720D01*
X009256Y009798D02*
X009024Y009798D01*
X008989Y009877D02*
X009301Y009877D01*
X009380Y009956D02*
X008910Y009956D01*
X008767Y010034D02*
X009523Y010034D01*
X009497Y011134D02*
X008793Y011134D01*
X008921Y011212D02*
X009369Y011212D01*
X009294Y011291D02*
X008996Y011291D01*
X009028Y011369D02*
X009262Y011369D01*
X009235Y011448D02*
X009055Y011448D01*
X009055Y011526D02*
X009235Y011526D01*
X009238Y011605D02*
X009052Y011605D01*
X009019Y011684D02*
X009271Y011684D01*
X009311Y011762D02*
X008979Y011762D01*
X008900Y011841D02*
X009390Y011841D01*
X009445Y011919D02*
X008845Y011919D01*
X008845Y011998D02*
X009380Y011998D01*
X009302Y012076D02*
X008845Y012076D01*
X008845Y012155D02*
X009223Y012155D01*
X009145Y012233D02*
X008845Y012233D01*
X008845Y012312D02*
X009066Y012312D01*
X008988Y012390D02*
X008845Y012390D01*
X008845Y012469D02*
X008909Y012469D01*
X008645Y012516D02*
X007895Y013266D01*
X007895Y014766D01*
X007645Y015016D01*
X007645Y015516D01*
X007558Y015846D02*
X006693Y015846D01*
X006782Y015925D02*
X008185Y015925D01*
X008185Y016003D02*
X006829Y016003D01*
X006858Y016082D02*
X008185Y016082D01*
X008185Y016160D02*
X006858Y016160D01*
X006846Y016239D02*
X008185Y016239D01*
X008185Y016318D02*
X006813Y016318D01*
X006743Y016396D02*
X008185Y016396D01*
X008185Y016475D02*
X006599Y016475D01*
X006441Y016475D02*
X005483Y016475D01*
X005405Y016553D02*
X008185Y016553D01*
X008185Y016632D02*
X005326Y016632D01*
X005249Y016710D02*
X005248Y016710D01*
X005090Y016868D02*
X004855Y017103D01*
X005065Y017103D01*
X005057Y017083D02*
X005057Y016949D01*
X005090Y016868D01*
X005058Y016946D02*
X005012Y016946D01*
X005057Y017024D02*
X004934Y017024D01*
X004855Y017103D02*
X004855Y019159D01*
X004877Y019168D01*
X004993Y019284D01*
X005055Y019434D01*
X005055Y019598D01*
X004993Y019748D01*
X004935Y019806D01*
X005355Y019806D01*
X005297Y019748D01*
X005235Y019598D01*
X005235Y019434D01*
X005297Y019284D01*
X005413Y019168D01*
X005435Y019159D01*
X005435Y017603D01*
X005308Y017476D01*
X005185Y017353D01*
X005185Y017285D01*
X005108Y017208D01*
X005057Y017083D01*
X005097Y017182D02*
X004855Y017182D01*
X004855Y017260D02*
X005161Y017260D01*
X005185Y017339D02*
X004855Y017339D01*
X004855Y017417D02*
X005249Y017417D01*
X005308Y017476D02*
X005308Y017476D01*
X005328Y017496D02*
X004855Y017496D01*
X004855Y017574D02*
X005406Y017574D01*
X005435Y017653D02*
X004855Y017653D01*
X004855Y017731D02*
X005435Y017731D01*
X005435Y017810D02*
X004855Y017810D01*
X004855Y017888D02*
X005435Y017888D01*
X005435Y017967D02*
X004855Y017967D01*
X004855Y018046D02*
X005435Y018046D01*
X005435Y018124D02*
X004855Y018124D01*
X004855Y018203D02*
X005435Y018203D01*
X005435Y018281D02*
X004855Y018281D01*
X004855Y018360D02*
X005435Y018360D01*
X005435Y018438D02*
X004855Y018438D01*
X004855Y018517D02*
X005435Y018517D01*
X005435Y018595D02*
X004855Y018595D01*
X004855Y018674D02*
X005435Y018674D01*
X005435Y018752D02*
X004855Y018752D01*
X004855Y018831D02*
X005435Y018831D01*
X005435Y018909D02*
X004855Y018909D01*
X004855Y018988D02*
X005435Y018988D01*
X005435Y019067D02*
X004855Y019067D01*
X004855Y019145D02*
X005435Y019145D01*
X005358Y019224D02*
X004933Y019224D01*
X005000Y019302D02*
X005290Y019302D01*
X005257Y019381D02*
X005033Y019381D01*
X005055Y019459D02*
X005235Y019459D01*
X005235Y019538D02*
X005055Y019538D01*
X005047Y019616D02*
X005243Y019616D01*
X005275Y019695D02*
X005015Y019695D01*
X004967Y019773D02*
X005323Y019773D01*
X006120Y020088D02*
X013485Y020088D01*
X013485Y020009D02*
X006199Y020009D01*
X006277Y019931D02*
X013485Y019931D01*
X013485Y019852D02*
X012889Y019852D01*
X012967Y019773D02*
X013485Y019773D01*
X013485Y019695D02*
X013015Y019695D01*
X013047Y019616D02*
X013485Y019616D01*
X013485Y019538D02*
X013055Y019538D01*
X013055Y019459D02*
X013485Y019459D01*
X013485Y019381D02*
X013033Y019381D01*
X013000Y019302D02*
X013485Y019302D01*
X013485Y019224D02*
X012933Y019224D01*
X012855Y019145D02*
X013485Y019145D01*
X013485Y019067D02*
X012855Y019067D01*
X012855Y018988D02*
X013485Y018988D01*
X013485Y018909D02*
X012836Y018909D01*
X012757Y018831D02*
X013485Y018831D01*
X013485Y018752D02*
X012678Y018752D01*
X012600Y018674D02*
X013485Y018674D01*
X013485Y017967D02*
X013154Y017967D01*
X013140Y017888D02*
X013485Y017888D01*
X013485Y017810D02*
X013112Y017810D01*
X013069Y017731D02*
X013485Y017731D01*
X013485Y017653D02*
X013003Y017653D01*
X012901Y017574D02*
X013485Y017574D01*
X013485Y017496D02*
X012819Y017496D01*
X012960Y017417D02*
X013485Y017417D01*
X013485Y017339D02*
X013041Y017339D01*
X013093Y017260D02*
X013485Y017260D01*
X013485Y017182D02*
X013127Y017182D01*
X013148Y017103D02*
X013485Y017103D01*
X012605Y017024D02*
X008980Y017024D01*
X008980Y016946D02*
X010249Y016946D01*
X010279Y016976D02*
X010185Y016882D01*
X010185Y016150D01*
X010279Y016056D01*
X011011Y016056D01*
X011105Y016150D01*
X011105Y016882D01*
X011011Y016976D01*
X010279Y016976D01*
X010185Y016867D02*
X008980Y016867D01*
X008980Y016789D02*
X010185Y016789D01*
X010185Y016710D02*
X008980Y016710D01*
X008980Y016632D02*
X010185Y016632D01*
X010185Y016553D02*
X008980Y016553D01*
X008980Y016475D02*
X010185Y016475D01*
X010185Y016396D02*
X008993Y016396D01*
X009063Y016318D02*
X010185Y016318D01*
X010185Y016239D02*
X009096Y016239D01*
X009108Y016160D02*
X010185Y016160D01*
X010253Y016082D02*
X009108Y016082D01*
X009079Y016003D02*
X012115Y016003D01*
X012115Y015925D02*
X011887Y015925D01*
X011836Y015976D02*
X012105Y015706D01*
X012105Y015325D01*
X011836Y015056D01*
X011454Y015056D01*
X011185Y015325D01*
X011185Y015706D01*
X011454Y015976D01*
X011836Y015976D01*
X011836Y016056D02*
X012105Y016325D01*
X012105Y016706D01*
X011836Y016976D01*
X011454Y016976D01*
X011185Y016706D01*
X011185Y016325D01*
X011454Y016056D01*
X011836Y016056D01*
X011861Y016082D02*
X012115Y016082D01*
X012131Y016160D02*
X011940Y016160D01*
X012019Y016239D02*
X012164Y016239D01*
X012197Y016318D02*
X012097Y016318D01*
X012105Y016396D02*
X012276Y016396D01*
X012367Y016475D02*
X012105Y016475D01*
X012105Y016553D02*
X012430Y016553D01*
X012308Y016632D02*
X012105Y016632D01*
X012101Y016710D02*
X012237Y016710D01*
X012188Y016789D02*
X012023Y016789D01*
X011944Y016867D02*
X012157Y016867D01*
X012140Y016946D02*
X011866Y016946D01*
X012135Y017056D02*
X012135Y017056D01*
X012142Y017103D02*
X009029Y017103D01*
X009108Y017182D02*
X012163Y017182D01*
X012135Y018056D02*
X012135Y018056D01*
X012146Y018124D02*
X012050Y018124D01*
X012129Y018203D02*
X012169Y018203D01*
X012207Y018281D02*
X012208Y018281D01*
X011927Y018595D02*
X011521Y018595D01*
X011443Y018517D02*
X011849Y018517D01*
X011770Y018438D02*
X011364Y018438D01*
X011286Y018360D02*
X011692Y018360D01*
X011613Y018281D02*
X011207Y018281D01*
X011129Y018203D02*
X011535Y018203D01*
X011456Y018124D02*
X011050Y018124D01*
X010972Y018046D02*
X011378Y018046D01*
X011299Y017967D02*
X010893Y017967D01*
X010814Y017888D02*
X011221Y017888D01*
X011142Y017810D02*
X010736Y017810D01*
X011063Y017731D02*
X010339Y017731D01*
X010358Y018281D02*
X010613Y018281D01*
X010692Y018360D02*
X010286Y018360D01*
X010364Y018438D02*
X010770Y018438D01*
X010849Y018517D02*
X010443Y018517D01*
X010521Y018595D02*
X010927Y018595D01*
X011006Y018674D02*
X010600Y018674D01*
X010678Y018752D02*
X011084Y018752D01*
X011163Y018831D02*
X010757Y018831D01*
X010836Y018909D02*
X011242Y018909D01*
X011320Y018988D02*
X010855Y018988D01*
X010855Y019067D02*
X011399Y019067D01*
X011435Y019145D02*
X010855Y019145D01*
X010933Y019224D02*
X011358Y019224D01*
X011290Y019302D02*
X011000Y019302D01*
X011033Y019381D02*
X011257Y019381D01*
X011235Y019459D02*
X011055Y019459D01*
X011055Y019538D02*
X011235Y019538D01*
X011243Y019616D02*
X011047Y019616D01*
X011015Y019695D02*
X011275Y019695D01*
X011323Y019773D02*
X010967Y019773D01*
X010889Y019852D02*
X011401Y019852D01*
X011855Y019145D02*
X012435Y019145D01*
X012399Y019067D02*
X011855Y019067D01*
X011855Y018988D02*
X012320Y018988D01*
X012242Y018909D02*
X011836Y018909D01*
X011757Y018831D02*
X012163Y018831D01*
X012084Y018752D02*
X011678Y018752D01*
X011600Y018674D02*
X012006Y018674D01*
X011933Y019224D02*
X012358Y019224D01*
X012290Y019302D02*
X012000Y019302D01*
X012033Y019381D02*
X012257Y019381D01*
X012235Y019459D02*
X012055Y019459D01*
X012055Y019538D02*
X012235Y019538D01*
X012243Y019616D02*
X012047Y019616D01*
X012015Y019695D02*
X012275Y019695D01*
X012323Y019773D02*
X011967Y019773D01*
X011889Y019852D02*
X012401Y019852D01*
X011424Y016946D02*
X011041Y016946D01*
X011105Y016867D02*
X011346Y016867D01*
X011267Y016789D02*
X011105Y016789D01*
X011105Y016710D02*
X011189Y016710D01*
X011185Y016632D02*
X011105Y016632D01*
X011105Y016553D02*
X011185Y016553D01*
X011185Y016475D02*
X011105Y016475D01*
X011105Y016396D02*
X011185Y016396D01*
X011193Y016318D02*
X011105Y016318D01*
X011105Y016239D02*
X011271Y016239D01*
X011350Y016160D02*
X011105Y016160D01*
X011037Y016082D02*
X011429Y016082D01*
X011403Y015925D02*
X010887Y015925D01*
X010965Y015846D02*
X011325Y015846D01*
X011246Y015768D02*
X011044Y015768D01*
X011105Y015689D02*
X011185Y015689D01*
X011185Y015611D02*
X011105Y015611D01*
X011105Y015532D02*
X011185Y015532D01*
X011185Y015454D02*
X011105Y015454D01*
X011105Y015375D02*
X011185Y015375D01*
X011214Y015296D02*
X011076Y015296D01*
X011115Y015218D02*
X011293Y015218D01*
X011371Y015139D02*
X011194Y015139D01*
X011230Y015103D02*
X011230Y015103D01*
X011232Y015101D02*
X011232Y015101D01*
X011272Y015061D02*
X011450Y015061D01*
X011351Y014982D02*
X012115Y014982D01*
X012118Y014904D02*
X011879Y014904D01*
X011827Y014956D02*
X012085Y014698D01*
X012085Y014556D01*
X011685Y014556D01*
X011685Y014956D01*
X011827Y014956D01*
X011840Y015061D02*
X012115Y015061D01*
X012123Y015139D02*
X011919Y015139D01*
X011998Y015218D02*
X012155Y015218D01*
X012188Y015296D02*
X012076Y015296D01*
X012105Y015375D02*
X012255Y015375D01*
X012333Y015454D02*
X012105Y015454D01*
X012105Y015532D02*
X012428Y015532D01*
X012301Y015611D02*
X012105Y015611D01*
X012105Y015689D02*
X012222Y015689D01*
X012174Y015768D02*
X012044Y015768D01*
X011965Y015846D02*
X012142Y015846D01*
X012150Y014825D02*
X011958Y014825D01*
X012036Y014747D02*
X012183Y014747D01*
X012243Y014668D02*
X012085Y014668D01*
X012085Y014590D02*
X012322Y014590D01*
X012455Y014511D02*
X011685Y014511D01*
X011685Y014476D02*
X012085Y014476D01*
X012085Y014334D01*
X011827Y014076D01*
X011685Y014076D01*
X011685Y014476D01*
X011685Y014433D02*
X011605Y014433D01*
X011605Y014354D02*
X011685Y014354D01*
X011685Y014275D02*
X011605Y014275D01*
X011605Y014197D02*
X011685Y014197D01*
X011685Y014118D02*
X011605Y014118D01*
X011420Y014118D02*
X011355Y014118D01*
X011355Y014040D02*
X012115Y014040D01*
X012115Y014118D02*
X011870Y014118D01*
X011948Y014197D02*
X012146Y014197D01*
X012179Y014275D02*
X012027Y014275D01*
X012085Y014354D02*
X012234Y014354D01*
X012312Y014433D02*
X012085Y014433D01*
X011685Y014590D02*
X011605Y014590D01*
X011605Y014668D02*
X011685Y014668D01*
X011685Y014747D02*
X011605Y014747D01*
X011605Y014825D02*
X011685Y014825D01*
X011685Y014904D02*
X011605Y014904D01*
X011411Y014904D02*
X011355Y014904D01*
X010935Y014118D02*
X010898Y014118D01*
X010935Y014040D02*
X010095Y014040D01*
X010095Y014118D02*
X010392Y014118D01*
X010314Y014197D02*
X010095Y014197D01*
X010095Y014275D02*
X010235Y014275D01*
X010185Y014354D02*
X010095Y014354D01*
X010095Y014433D02*
X010185Y014433D01*
X010185Y014511D02*
X010095Y014511D01*
X010095Y014590D02*
X010185Y014590D01*
X010185Y014668D02*
X010151Y014668D01*
X010202Y014747D02*
X010225Y014747D01*
X009895Y014891D02*
X009895Y013766D01*
X011645Y012016D01*
X011645Y011516D01*
X011711Y012233D02*
X011884Y012233D01*
X011975Y012312D02*
X011632Y012312D01*
X011396Y012547D02*
X012391Y012547D01*
X012285Y012626D02*
X011318Y012626D01*
X011239Y012705D02*
X012207Y012705D01*
X012168Y012783D02*
X011161Y012783D01*
X011082Y012862D02*
X011502Y012862D01*
X011424Y012940D02*
X011004Y012940D01*
X010925Y013019D02*
X011345Y013019D01*
X011267Y013097D02*
X010847Y013097D01*
X010768Y013176D02*
X011188Y013176D01*
X011110Y013254D02*
X010689Y013254D01*
X010611Y013333D02*
X011031Y013333D01*
X010953Y013411D02*
X010532Y013411D01*
X010454Y013490D02*
X010935Y013490D01*
X010935Y013569D02*
X010375Y013569D01*
X010297Y013647D02*
X010935Y013647D01*
X010935Y013726D02*
X010218Y013726D01*
X010140Y013804D02*
X010935Y013804D01*
X010935Y013883D02*
X010095Y013883D01*
X010095Y013961D02*
X010935Y013961D01*
X011355Y013961D02*
X012115Y013961D01*
X012127Y013883D02*
X011355Y013883D01*
X011355Y013804D02*
X012159Y013804D01*
X012192Y013726D02*
X011355Y013726D01*
X011355Y013647D02*
X012264Y013647D01*
X012343Y013569D02*
X011389Y013569D01*
X011468Y013490D02*
X012405Y013490D01*
X012291Y013411D02*
X011546Y013411D01*
X011625Y013333D02*
X012212Y013333D01*
X012170Y013254D02*
X011704Y013254D01*
X012471Y011919D02*
X012547Y011919D01*
X013485Y010741D02*
X000805Y010741D01*
X000805Y010662D02*
X013485Y010662D01*
X013485Y010391D02*
X013485Y000926D01*
X000805Y000926D01*
X000805Y010391D01*
X013485Y010391D01*
X013485Y010348D02*
X005985Y010348D01*
X006063Y010270D02*
X013485Y010270D01*
X013485Y010191D02*
X006142Y010191D01*
X006220Y010113D02*
X013485Y010113D01*
X013485Y010034D02*
X012767Y010034D01*
X012910Y009956D02*
X013485Y009956D01*
X013485Y009877D02*
X012989Y009877D01*
X013024Y009798D02*
X013485Y009798D01*
X013485Y009720D02*
X013055Y009720D01*
X013055Y009641D02*
X013485Y009641D01*
X013485Y009563D02*
X013055Y009563D01*
X013024Y009484D02*
X013485Y009484D01*
X013485Y009406D02*
X012990Y009406D01*
X012911Y009327D02*
X013485Y009327D01*
X013485Y009249D02*
X012855Y009249D01*
X012855Y009170D02*
X013485Y009170D01*
X013485Y009092D02*
X012855Y009092D01*
X012814Y009013D02*
X013485Y009013D01*
X013485Y008934D02*
X012736Y008934D01*
X012657Y008856D02*
X013485Y008856D01*
X013485Y008777D02*
X012578Y008777D01*
X012500Y008699D02*
X013485Y008699D01*
X013485Y008620D02*
X012820Y008620D01*
X012685Y008620D02*
X012605Y008620D01*
X012605Y008542D02*
X012685Y008542D01*
X012685Y008463D02*
X012605Y008463D01*
X012605Y008385D02*
X012685Y008385D01*
X012685Y008306D02*
X012605Y008306D01*
X012605Y008228D02*
X012685Y008228D01*
X012685Y008149D02*
X013485Y008149D01*
X013485Y008071D02*
X013150Y008071D01*
X013133Y007992D02*
X013485Y007992D01*
X013485Y007913D02*
X013101Y007913D01*
X013053Y007835D02*
X013485Y007835D01*
X013485Y007756D02*
X012982Y007756D01*
X012859Y007678D02*
X013485Y007678D01*
X013485Y007599D02*
X012869Y007599D01*
X012986Y007521D02*
X013485Y007521D01*
X013485Y007442D02*
X013057Y007442D01*
X013104Y007364D02*
X013485Y007364D01*
X013485Y007285D02*
X013134Y007285D01*
X013151Y007207D02*
X013485Y007207D01*
X013485Y007128D02*
X012685Y007128D01*
X012954Y006735D02*
X013485Y006735D01*
X013485Y006657D02*
X012805Y006657D01*
X012957Y006578D02*
X013485Y006578D01*
X013485Y006500D02*
X013036Y006500D01*
X013103Y006421D02*
X013485Y006421D01*
X013485Y006343D02*
X013135Y006343D01*
X013168Y006264D02*
X013485Y006264D01*
X013485Y006185D02*
X013175Y006185D01*
X013175Y006107D02*
X013485Y006107D01*
X013485Y006028D02*
X013172Y006028D01*
X013139Y005950D02*
X013485Y005950D01*
X013485Y005871D02*
X013107Y005871D01*
X013046Y005793D02*
X013485Y005793D01*
X013485Y005714D02*
X012968Y005714D01*
X012836Y005636D02*
X013485Y005636D01*
X013485Y005557D02*
X012978Y005557D01*
X013057Y005479D02*
X013485Y005479D01*
X013485Y005400D02*
X013111Y005400D01*
X013144Y005321D02*
X013485Y005321D01*
X013485Y005243D02*
X013175Y005243D01*
X013175Y005164D02*
X013485Y005164D01*
X013485Y005086D02*
X013175Y005086D01*
X013163Y005007D02*
X013485Y005007D01*
X013485Y004929D02*
X013131Y004929D01*
X013098Y004850D02*
X013485Y004850D01*
X013485Y004772D02*
X013025Y004772D01*
X012947Y004693D02*
X013485Y004693D01*
X013485Y004615D02*
X012886Y004615D01*
X012999Y004536D02*
X013485Y004536D01*
X013485Y004458D02*
X013078Y004458D01*
X013120Y004379D02*
X013485Y004379D01*
X013485Y004300D02*
X013153Y004300D01*
X013175Y004222D02*
X013485Y004222D01*
X013485Y004143D02*
X013175Y004143D01*
X013175Y004065D02*
X013485Y004065D01*
X013485Y003986D02*
X013155Y003986D01*
X013122Y003908D02*
X013485Y003908D01*
X013485Y003829D02*
X013083Y003829D01*
X013004Y003751D02*
X013485Y003751D01*
X013485Y003672D02*
X012898Y003672D01*
X012937Y003594D02*
X013485Y003594D01*
X013485Y003515D02*
X013021Y003515D01*
X013096Y003436D02*
X013485Y003436D01*
X013485Y003358D02*
X013129Y003358D01*
X013161Y003279D02*
X013485Y003279D01*
X013485Y003201D02*
X013175Y003201D01*
X013175Y003122D02*
X013485Y003122D01*
X013485Y003044D02*
X013175Y003044D01*
X013146Y002965D02*
X013485Y002965D01*
X013485Y002887D02*
X013113Y002887D01*
X013062Y002808D02*
X013485Y002808D01*
X013485Y002730D02*
X012983Y002730D01*
X012847Y002651D02*
X013485Y002651D01*
X013485Y002572D02*
X011496Y002572D01*
X011575Y002494D02*
X013485Y002494D01*
X013485Y002415D02*
X012349Y002415D01*
X012428Y002337D02*
X013485Y002337D01*
X013485Y002258D02*
X012463Y002258D01*
X012483Y002180D02*
X013485Y002180D01*
X013485Y002101D02*
X012483Y002101D01*
X012495Y002023D02*
X012462Y002023D01*
X012795Y002023D02*
X013485Y002023D01*
X013485Y001944D02*
X012922Y001944D01*
X012996Y001866D02*
X013485Y001866D01*
X013485Y001787D02*
X013028Y001787D01*
X013055Y001709D02*
X013485Y001709D01*
X013485Y001630D02*
X013055Y001630D01*
X013052Y001551D02*
X013485Y001551D01*
X013485Y001473D02*
X013019Y001473D01*
X012978Y001394D02*
X013485Y001394D01*
X013485Y001316D02*
X012900Y001316D01*
X012788Y001237D02*
X013485Y001237D01*
X013485Y001159D02*
X012710Y001159D01*
X012631Y001080D02*
X013485Y001080D01*
X013485Y001002D02*
X012553Y001002D01*
X011941Y002415D02*
X011653Y002415D01*
X011418Y002651D02*
X012443Y002651D01*
X012307Y002730D02*
X011339Y002730D01*
X011261Y002808D02*
X012228Y002808D01*
X012177Y002887D02*
X011182Y002887D01*
X011104Y002965D02*
X011524Y002965D01*
X011605Y004222D02*
X011685Y004222D01*
X011685Y004300D02*
X011605Y004300D01*
X011605Y004379D02*
X011685Y004379D01*
X011685Y004458D02*
X011605Y004458D01*
X011605Y004536D02*
X011685Y004536D01*
X011442Y004222D02*
X011355Y004222D01*
X011355Y004300D02*
X011363Y004300D01*
X010935Y004222D02*
X010876Y004222D01*
X011355Y005007D02*
X011389Y005007D01*
X011393Y005243D02*
X011215Y005243D01*
X011136Y005321D02*
X011314Y005321D01*
X011235Y005400D02*
X011055Y005400D01*
X011105Y005479D02*
X011185Y005479D01*
X011185Y005557D02*
X011105Y005557D01*
X011105Y005636D02*
X011185Y005636D01*
X011185Y005714D02*
X011105Y005714D01*
X011105Y005793D02*
X011185Y005793D01*
X011225Y005871D02*
X011065Y005871D01*
X010987Y005950D02*
X011303Y005950D01*
X011382Y006028D02*
X010908Y006028D01*
X011016Y006185D02*
X011450Y006185D01*
X011371Y006264D02*
X011094Y006264D01*
X011105Y006343D02*
X011293Y006343D01*
X011214Y006421D02*
X011105Y006421D01*
X011105Y006500D02*
X011185Y006500D01*
X011185Y006578D02*
X011105Y006578D01*
X011105Y006657D02*
X011185Y006657D01*
X011185Y006735D02*
X011105Y006735D01*
X011105Y006814D02*
X011185Y006814D01*
X011246Y006892D02*
X011105Y006892D01*
X011105Y006971D02*
X011324Y006971D01*
X011403Y007049D02*
X011063Y007049D01*
X010382Y006028D02*
X009680Y006028D01*
X009758Y005950D02*
X010303Y005950D01*
X010225Y005871D02*
X009837Y005871D01*
X010097Y005793D02*
X010185Y005793D01*
X010175Y005714D02*
X010185Y005714D01*
X011919Y006264D02*
X012122Y006264D01*
X012155Y006343D02*
X011997Y006343D01*
X012076Y006421D02*
X012187Y006421D01*
X012254Y006500D02*
X012105Y006500D01*
X012105Y006578D02*
X012333Y006578D01*
X012336Y006735D02*
X012105Y006735D01*
X012105Y006657D02*
X012485Y006657D01*
X012252Y006814D02*
X012105Y006814D01*
X012044Y006892D02*
X012199Y006892D01*
X012164Y006971D02*
X011966Y006971D01*
X011887Y007049D02*
X012143Y007049D01*
X012135Y008181D02*
X012135Y008181D01*
X012142Y008228D02*
X012029Y008228D01*
X012107Y008306D02*
X012162Y008306D01*
X012186Y008385D02*
X012197Y008385D01*
X012421Y008620D02*
X012470Y008620D01*
X012961Y008542D02*
X013485Y008542D01*
X013485Y008463D02*
X013041Y008463D01*
X013093Y008385D02*
X013485Y008385D01*
X013485Y008306D02*
X013128Y008306D01*
X013148Y008228D02*
X013485Y008228D01*
X013155Y007101D02*
X013155Y007101D01*
X013147Y007049D02*
X013485Y007049D01*
X013485Y006971D02*
X013126Y006971D01*
X013091Y006892D02*
X013485Y006892D01*
X013485Y006814D02*
X013038Y006814D01*
X011294Y010820D02*
X000805Y010820D01*
X000805Y010898D02*
X011216Y010898D01*
X011137Y010977D02*
X000805Y010977D01*
X000805Y011055D02*
X001815Y011055D01*
X001760Y011110D02*
X001889Y010981D01*
X002071Y010981D01*
X002200Y011110D01*
X002200Y011351D01*
X002335Y011351D01*
X002423Y011349D01*
X002426Y011351D01*
X002429Y011351D01*
X002491Y011413D01*
X002555Y011475D01*
X002555Y011478D01*
X002558Y011480D01*
X002558Y011568D01*
X002560Y011657D01*
X002558Y011659D01*
X002558Y011662D01*
X002495Y011724D01*
X002200Y012034D01*
X002200Y012037D01*
X002138Y012099D01*
X002076Y012164D01*
X002073Y012164D01*
X002071Y012166D01*
X001983Y012166D01*
X001894Y012168D01*
X001892Y012166D01*
X001889Y012166D01*
X001827Y012104D01*
X001762Y012042D01*
X001762Y012039D01*
X001760Y012037D01*
X001760Y011949D01*
X001758Y011860D01*
X001760Y011858D01*
X001760Y011791D01*
X001756Y011791D01*
X001628Y011662D01*
X001628Y011480D01*
X001756Y011351D01*
X001760Y011351D01*
X001760Y011110D01*
X001760Y011134D02*
X000805Y011134D01*
X000805Y011212D02*
X001760Y011212D01*
X001760Y011291D02*
X000805Y011291D01*
X000805Y011369D02*
X001738Y011369D01*
X001660Y011448D02*
X000805Y011448D01*
X000805Y011526D02*
X001628Y011526D01*
X001628Y011605D02*
X000805Y011605D01*
X000805Y011684D02*
X001649Y011684D01*
X001728Y011762D02*
X000805Y011762D01*
X000805Y011841D02*
X001760Y011841D01*
X001759Y011919D02*
X000805Y011919D01*
X000805Y011998D02*
X001760Y011998D01*
X001798Y012076D02*
X000805Y012076D01*
X000805Y012155D02*
X001878Y012155D01*
X002085Y012155D02*
X005123Y012155D01*
X005129Y012161D02*
X004900Y011932D01*
X004810Y012022D01*
X004681Y012151D01*
X004441Y012151D01*
X004259Y012151D01*
X004070Y011962D01*
X004011Y012021D01*
X003891Y012141D01*
X003709Y012141D01*
X003469Y012141D01*
X003340Y012012D01*
X003224Y011896D01*
X002979Y012141D01*
X002796Y012141D01*
X002668Y012012D01*
X002668Y012005D01*
X002668Y012005D01*
X002668Y011421D01*
X002556Y011421D01*
X002428Y011292D01*
X002428Y011110D01*
X002556Y010981D01*
X003224Y010981D01*
X003346Y011104D01*
X003349Y011101D01*
X003469Y010981D01*
X003651Y010981D01*
X003709Y010981D01*
X003891Y010981D01*
X004015Y011105D01*
X004139Y010981D01*
X004630Y010981D01*
X004631Y010980D01*
X004722Y010981D01*
X004811Y010981D01*
X004812Y010982D01*
X004813Y010982D01*
X004877Y011047D01*
X004940Y011110D01*
X004940Y011111D01*
X004941Y011112D01*
X004940Y011169D01*
X004990Y011115D01*
X004990Y011110D01*
X005051Y011049D01*
X005110Y010985D01*
X005115Y010985D01*
X005119Y010981D01*
X005206Y010981D01*
X005292Y010978D01*
X005296Y010981D01*
X005369Y010981D01*
X005489Y010981D01*
X005671Y010981D01*
X005800Y011110D01*
X005800Y011165D01*
X005974Y010983D01*
X006157Y010979D01*
X006288Y011105D01*
X006292Y011288D01*
X006197Y011387D01*
X006290Y011480D01*
X006290Y011662D01*
X006290Y011912D01*
X006161Y012041D01*
X006041Y012161D01*
X005859Y012161D01*
X005489Y012161D01*
X005311Y012161D01*
X005129Y012161D01*
X005044Y012076D02*
X004756Y012076D01*
X004834Y011998D02*
X004966Y011998D01*
X004941Y011134D02*
X004973Y011134D01*
X005045Y011055D02*
X004885Y011055D01*
X004184Y012076D02*
X003956Y012076D01*
X004034Y011998D02*
X004106Y011998D01*
X004065Y011055D02*
X003965Y011055D01*
X003395Y011055D02*
X003298Y011055D01*
X003247Y011919D02*
X003200Y011919D01*
X003122Y011998D02*
X003326Y011998D01*
X003404Y012076D02*
X003043Y012076D01*
X002732Y012076D02*
X002161Y012076D01*
X002235Y011998D02*
X002668Y011998D01*
X002668Y011919D02*
X002310Y011919D01*
X002384Y011841D02*
X002668Y011841D01*
X002668Y011762D02*
X002459Y011762D01*
X002536Y011684D02*
X002668Y011684D01*
X002668Y011605D02*
X002558Y011605D01*
X002558Y011526D02*
X002668Y011526D01*
X002668Y011448D02*
X002527Y011448D01*
X002505Y011369D02*
X002447Y011369D01*
X002428Y011291D02*
X002200Y011291D01*
X002200Y011212D02*
X002428Y011212D01*
X002428Y011134D02*
X002200Y011134D01*
X002145Y011055D02*
X002482Y011055D01*
X000805Y012233D02*
X007445Y012233D01*
X007445Y012155D02*
X006047Y012155D01*
X006126Y012076D02*
X007445Y012076D01*
X007445Y011998D02*
X006204Y011998D01*
X006283Y011919D02*
X007445Y011919D01*
X007390Y011841D02*
X006290Y011841D01*
X006290Y011762D02*
X007311Y011762D01*
X007271Y011684D02*
X006290Y011684D01*
X006290Y011605D02*
X007238Y011605D01*
X007235Y011526D02*
X006290Y011526D01*
X006258Y011448D02*
X007235Y011448D01*
X007262Y011369D02*
X006213Y011369D01*
X006289Y011291D02*
X007294Y011291D01*
X007369Y011212D02*
X006290Y011212D01*
X006289Y011134D02*
X007497Y011134D01*
X007793Y011134D02*
X008497Y011134D01*
X008369Y011212D02*
X007921Y011212D01*
X007996Y011291D02*
X008294Y011291D01*
X008262Y011369D02*
X008028Y011369D01*
X008055Y011448D02*
X008235Y011448D01*
X008235Y011526D02*
X008055Y011526D01*
X008052Y011605D02*
X008238Y011605D01*
X008271Y011684D02*
X008019Y011684D01*
X007979Y011762D02*
X008311Y011762D01*
X008390Y011841D02*
X007900Y011841D01*
X007845Y011919D02*
X008445Y011919D01*
X008445Y011998D02*
X007845Y011998D01*
X007845Y012076D02*
X008445Y012076D01*
X008445Y012155D02*
X007845Y012155D01*
X007845Y012233D02*
X008445Y012233D01*
X008445Y012312D02*
X007845Y012312D01*
X007845Y012390D02*
X008445Y012390D01*
X008409Y012469D02*
X007845Y012469D01*
X007845Y012547D02*
X008331Y012547D01*
X008252Y012626D02*
X007845Y012626D01*
X007845Y012705D02*
X008174Y012705D01*
X008095Y012783D02*
X007845Y012783D01*
X007845Y012862D02*
X008016Y012862D01*
X007938Y012940D02*
X007845Y012940D01*
X007845Y013019D02*
X007859Y013019D01*
X007445Y013019D02*
X000805Y013019D01*
X000805Y013097D02*
X007445Y013097D01*
X007445Y013176D02*
X000805Y013176D01*
X000805Y013254D02*
X007445Y013254D01*
X007445Y013333D02*
X000805Y013333D01*
X000805Y013411D02*
X007445Y013411D01*
X007445Y013490D02*
X000805Y013490D01*
X000805Y013569D02*
X007445Y013569D01*
X007445Y013647D02*
X000805Y013647D01*
X000805Y013726D02*
X007445Y013726D01*
X007445Y013804D02*
X000805Y013804D01*
X000805Y013883D02*
X007445Y013883D01*
X007445Y013961D02*
X000805Y013961D01*
X000805Y014040D02*
X001278Y014040D01*
X001291Y014030D02*
X001235Y014071D01*
X001187Y014119D01*
X001146Y014175D01*
X001115Y014236D01*
X001094Y014301D01*
X001084Y014364D01*
X001480Y014364D01*
X001480Y014444D01*
X001480Y014840D01*
X001418Y014830D01*
X001352Y014809D01*
X001291Y014777D01*
X001235Y014737D01*
X001187Y014688D01*
X001146Y014633D01*
X001115Y014571D01*
X001094Y014506D01*
X001084Y014444D01*
X001480Y014444D01*
X001560Y014444D01*
X001560Y014840D01*
X001622Y014830D01*
X001688Y014809D01*
X001749Y014777D01*
X001805Y014737D01*
X001853Y014688D01*
X001894Y014633D01*
X001925Y014571D01*
X001946Y014506D01*
X001956Y014444D01*
X001560Y014444D01*
X001560Y014364D01*
X001956Y014364D01*
X001946Y014301D01*
X001925Y014236D01*
X001894Y014175D01*
X001853Y014119D01*
X001805Y014071D01*
X001749Y014030D01*
X001688Y013999D01*
X001622Y013978D01*
X001560Y013968D01*
X001560Y014364D01*
X001480Y014364D01*
X001480Y013968D01*
X001418Y013978D01*
X001352Y013999D01*
X001291Y014030D01*
X001188Y014118D02*
X000805Y014118D01*
X000805Y014197D02*
X001135Y014197D01*
X001102Y014275D02*
X000805Y014275D01*
X000805Y014354D02*
X001086Y014354D01*
X001096Y014511D02*
X000805Y014511D01*
X000805Y014433D02*
X001480Y014433D01*
X001480Y014511D02*
X001560Y014511D01*
X001560Y014433D02*
X007445Y014433D01*
X007445Y014511D02*
X002528Y014511D01*
X002518Y014501D02*
X002594Y014577D01*
X002635Y014675D01*
X002635Y014782D01*
X002594Y014881D01*
X002518Y014956D01*
X002420Y014997D01*
X002313Y014997D01*
X002215Y014956D01*
X002139Y014881D01*
X002098Y014782D01*
X002098Y014675D01*
X002139Y014577D01*
X002215Y014501D01*
X002313Y014460D01*
X002420Y014460D01*
X002518Y014501D01*
X002599Y014590D02*
X007445Y014590D01*
X007445Y014668D02*
X002632Y014668D01*
X002635Y014747D02*
X007381Y014747D01*
X007148Y014825D02*
X006642Y014825D01*
X006761Y014904D02*
X007029Y014904D01*
X006969Y014982D02*
X006821Y014982D01*
X006853Y015061D02*
X006937Y015061D01*
X006932Y015139D02*
X006858Y015139D01*
X006854Y015218D02*
X006936Y015218D01*
X006968Y015296D02*
X006822Y015296D01*
X006765Y015375D02*
X007026Y015375D01*
X007140Y015454D02*
X006650Y015454D01*
X006390Y015454D02*
X006004Y015454D01*
X005926Y015532D02*
X007307Y015532D01*
X007318Y015611D02*
X005847Y015611D01*
X005769Y015689D02*
X007351Y015689D01*
X007418Y015768D02*
X005690Y015768D01*
X005612Y015846D02*
X006347Y015846D01*
X006258Y015925D02*
X005533Y015925D01*
X005253Y015611D02*
X000805Y015611D01*
X000805Y015689D02*
X005050Y015689D01*
X004915Y015768D02*
X000805Y015768D01*
X000805Y015846D02*
X004849Y015846D01*
X004816Y015925D02*
X000805Y015925D01*
X000805Y016003D02*
X004807Y016003D01*
X004807Y016082D02*
X002524Y016082D01*
X002518Y016076D02*
X002594Y016151D01*
X002635Y016250D01*
X002635Y016357D01*
X002594Y016455D01*
X002518Y016531D01*
X002420Y016572D01*
X002313Y016572D01*
X002215Y016531D01*
X002139Y016455D01*
X002098Y016357D01*
X002098Y016250D01*
X002139Y016151D01*
X002215Y016076D01*
X002313Y016035D01*
X002420Y016035D01*
X002518Y016076D01*
X002598Y016160D02*
X004839Y016160D01*
X004889Y016239D02*
X002630Y016239D01*
X002635Y016318D02*
X004989Y016318D01*
X004968Y016396D02*
X002618Y016396D01*
X002575Y016475D02*
X004889Y016475D01*
X004811Y016553D02*
X002464Y016553D01*
X002269Y016553D02*
X001950Y016553D01*
X001946Y016526D02*
X001956Y016588D01*
X001560Y016588D01*
X001560Y016192D01*
X001622Y016202D01*
X001688Y016223D01*
X001749Y016255D01*
X001805Y016295D01*
X001853Y016344D01*
X001894Y016399D01*
X001925Y016460D01*
X001946Y016526D01*
X001929Y016475D02*
X002158Y016475D01*
X002115Y016396D02*
X001891Y016396D01*
X001827Y016318D02*
X002098Y016318D01*
X002103Y016239D02*
X001718Y016239D01*
X001560Y016239D02*
X001480Y016239D01*
X001480Y016192D02*
X001480Y016588D01*
X001560Y016588D01*
X001560Y016668D01*
X001956Y016668D01*
X001946Y016730D01*
X001925Y016796D01*
X001894Y016857D01*
X001853Y016913D01*
X001805Y016961D01*
X001749Y017002D01*
X001688Y017033D01*
X001622Y017054D01*
X001560Y017064D01*
X001560Y016668D01*
X001480Y016668D01*
X001480Y016588D01*
X001084Y016588D01*
X001094Y016526D01*
X001115Y016460D01*
X001146Y016399D01*
X001187Y016344D01*
X001235Y016295D01*
X001291Y016255D01*
X001352Y016223D01*
X001418Y016202D01*
X001480Y016192D01*
X001480Y016318D02*
X001560Y016318D01*
X001560Y016396D02*
X001480Y016396D01*
X001480Y016475D02*
X001560Y016475D01*
X001560Y016553D02*
X001480Y016553D01*
X001480Y016632D02*
X000805Y016632D01*
X000805Y016710D02*
X001091Y016710D01*
X001094Y016730D02*
X001084Y016668D01*
X001480Y016668D01*
X001480Y017064D01*
X001418Y017054D01*
X001352Y017033D01*
X001291Y017002D01*
X001235Y016961D01*
X001187Y016913D01*
X001146Y016857D01*
X001115Y016796D01*
X001094Y016730D01*
X001113Y016789D02*
X000805Y016789D01*
X000805Y016867D02*
X001154Y016867D01*
X001220Y016946D02*
X000805Y016946D01*
X000805Y017024D02*
X001336Y017024D01*
X001480Y017024D02*
X001560Y017024D01*
X001560Y016946D02*
X001480Y016946D01*
X001480Y016867D02*
X001560Y016867D01*
X001560Y016789D02*
X001480Y016789D01*
X001480Y016710D02*
X001560Y016710D01*
X001560Y016632D02*
X004732Y016632D01*
X004654Y016710D02*
X001949Y016710D01*
X001927Y016789D02*
X004575Y016789D01*
X004497Y016867D02*
X001886Y016867D01*
X001820Y016946D02*
X004435Y016946D01*
X004435Y017024D02*
X001704Y017024D01*
X001149Y016396D02*
X000805Y016396D01*
X000805Y016318D02*
X001213Y016318D01*
X001322Y016239D02*
X000805Y016239D01*
X000805Y016160D02*
X002135Y016160D01*
X002209Y016082D02*
X000805Y016082D01*
X000805Y016475D02*
X001111Y016475D01*
X001090Y016553D02*
X000805Y016553D01*
X000805Y017103D02*
X004435Y017103D01*
X004435Y017182D02*
X000805Y017182D01*
X000805Y017260D02*
X004435Y017260D01*
X004435Y017339D02*
X000805Y017339D01*
X000805Y017417D02*
X004435Y017417D01*
X004435Y017496D02*
X000805Y017496D01*
X000805Y017574D02*
X004435Y017574D01*
X004435Y017653D02*
X000805Y017653D01*
X000805Y017731D02*
X004435Y017731D01*
X004435Y017810D02*
X000805Y017810D01*
X000805Y017888D02*
X004435Y017888D01*
X004435Y017967D02*
X000805Y017967D01*
X000805Y018046D02*
X004435Y018046D01*
X004435Y018124D02*
X000805Y018124D01*
X000805Y018203D02*
X004435Y018203D01*
X004435Y018281D02*
X000805Y018281D01*
X000805Y018360D02*
X004435Y018360D01*
X004435Y018438D02*
X000805Y018438D01*
X000805Y018517D02*
X004435Y018517D01*
X004435Y018595D02*
X000805Y018595D01*
X000805Y018674D02*
X004435Y018674D01*
X004435Y018752D02*
X000805Y018752D01*
X000805Y018831D02*
X004435Y018831D01*
X004435Y018909D02*
X000805Y018909D01*
X000805Y018988D02*
X004435Y018988D01*
X004435Y019067D02*
X000805Y019067D01*
X000805Y019145D02*
X004435Y019145D01*
X004358Y019224D02*
X000805Y019224D01*
X000805Y019302D02*
X004290Y019302D01*
X004257Y019381D02*
X000805Y019381D01*
X000805Y019459D02*
X003001Y019459D01*
X002895Y019538D02*
X000805Y019538D01*
X000805Y019616D02*
X002841Y019616D01*
X002808Y019695D02*
X000805Y019695D01*
X000805Y019773D02*
X002807Y019773D01*
X002814Y019852D02*
X000805Y019852D01*
X000805Y019931D02*
X002847Y019931D01*
X002910Y020009D02*
X000805Y020009D01*
X000805Y020088D02*
X003037Y020088D01*
X003395Y019538D02*
X004235Y019538D01*
X004235Y019459D02*
X003289Y019459D01*
X003449Y019616D02*
X004243Y019616D01*
X004275Y019695D02*
X003482Y019695D01*
X003483Y019773D02*
X004323Y019773D01*
X005855Y017810D02*
X005873Y017810D01*
X005855Y017731D02*
X005951Y017731D01*
X005855Y017653D02*
X008185Y017653D01*
X008185Y017731D02*
X006339Y017731D01*
X006418Y017810D02*
X008185Y017810D01*
X008185Y017888D02*
X006458Y017888D01*
X006483Y017967D02*
X008185Y017967D01*
X008185Y018046D02*
X006483Y018046D01*
X006467Y018124D02*
X008206Y018124D01*
X008267Y018203D02*
X008023Y018203D01*
X008139Y018281D02*
X008151Y018281D01*
X007767Y018203D02*
X007523Y018203D01*
X007639Y018281D02*
X007651Y018281D01*
X007267Y018203D02*
X007023Y018203D01*
X007139Y018281D02*
X007151Y018281D01*
X007137Y018752D02*
X007153Y018752D01*
X007271Y018831D02*
X007019Y018831D01*
X006855Y018909D02*
X007435Y018909D01*
X007435Y018988D02*
X006855Y018988D01*
X006855Y019067D02*
X007435Y019067D01*
X007435Y019145D02*
X006855Y019145D01*
X006933Y019224D02*
X007358Y019224D01*
X007290Y019302D02*
X007000Y019302D01*
X007033Y019381D02*
X007257Y019381D01*
X007235Y019459D02*
X007055Y019459D01*
X007055Y019538D02*
X007235Y019538D01*
X007243Y019616D02*
X007047Y019616D01*
X007015Y019695D02*
X007275Y019695D01*
X007323Y019773D02*
X006967Y019773D01*
X006889Y019852D02*
X007401Y019852D01*
X007855Y019145D02*
X008227Y019145D01*
X008149Y019067D02*
X007855Y019067D01*
X007855Y018988D02*
X008070Y018988D01*
X007992Y018909D02*
X007855Y018909D01*
X007933Y019224D02*
X008306Y019224D01*
X008290Y019302D02*
X008000Y019302D01*
X008033Y019381D02*
X008257Y019381D01*
X008235Y019459D02*
X008055Y019459D01*
X008055Y019538D02*
X008235Y019538D01*
X008243Y019616D02*
X008047Y019616D01*
X008015Y019695D02*
X008275Y019695D01*
X008323Y019773D02*
X007967Y019773D01*
X007889Y019852D02*
X008401Y019852D01*
X008889Y019852D02*
X009401Y019852D01*
X009323Y019773D02*
X008967Y019773D01*
X009015Y019695D02*
X009275Y019695D01*
X009199Y019616D02*
X009047Y019616D01*
X009055Y019538D02*
X009120Y019538D01*
X009889Y019852D02*
X010401Y019852D01*
X010323Y019773D02*
X009967Y019773D01*
X010015Y019695D02*
X010275Y019695D01*
X010243Y019616D02*
X010047Y019616D01*
X010055Y019538D02*
X010235Y019538D01*
X010235Y019459D02*
X010055Y019459D01*
X010033Y019381D02*
X010257Y019381D01*
X010290Y019302D02*
X010000Y019302D01*
X008985Y017653D02*
X008605Y017653D01*
X008605Y017574D02*
X008906Y017574D01*
X008828Y017496D02*
X008605Y017496D01*
X008605Y017417D02*
X008749Y017417D01*
X008671Y017339D02*
X008605Y017339D01*
X008185Y017339D02*
X005765Y017339D01*
X005732Y017306D02*
X005732Y017306D01*
X005686Y017260D02*
X008185Y017260D01*
X008185Y017182D02*
X005693Y017182D01*
X005725Y017103D02*
X008185Y017103D01*
X008185Y017024D02*
X005733Y017024D01*
X005732Y016946D02*
X008185Y016946D01*
X008185Y016867D02*
X005700Y016867D01*
X005646Y016789D02*
X008185Y016789D01*
X008185Y016710D02*
X005541Y016710D01*
X005562Y016396D02*
X006297Y016396D01*
X006276Y015375D02*
X006083Y015375D01*
X005803Y015061D02*
X000805Y015061D01*
X000805Y015139D02*
X005725Y015139D01*
X005646Y015218D02*
X000805Y015218D01*
X000805Y015296D02*
X005568Y015296D01*
X005489Y015375D02*
X000805Y015375D01*
X000805Y015454D02*
X005410Y015454D01*
X005332Y015532D02*
X000805Y015532D01*
X000805Y014982D02*
X002278Y014982D01*
X002162Y014904D02*
X000805Y014904D01*
X000805Y014825D02*
X001404Y014825D01*
X001480Y014825D02*
X001560Y014825D01*
X001636Y014825D02*
X002116Y014825D01*
X002098Y014747D02*
X001791Y014747D01*
X001868Y014668D02*
X002101Y014668D01*
X002134Y014590D02*
X001916Y014590D01*
X001944Y014511D02*
X002205Y014511D01*
X001954Y014354D02*
X007445Y014354D01*
X007445Y014275D02*
X001938Y014275D01*
X001905Y014197D02*
X007445Y014197D01*
X007445Y014118D02*
X001852Y014118D01*
X001762Y014040D02*
X007445Y014040D01*
X007645Y014766D02*
X007270Y015141D01*
X007645Y014766D02*
X007645Y011516D01*
X007445Y012312D02*
X000805Y012312D01*
X000805Y012390D02*
X007445Y012390D01*
X007445Y012469D02*
X000805Y012469D01*
X000805Y012547D02*
X007445Y012547D01*
X007445Y012626D02*
X000805Y012626D01*
X000805Y012705D02*
X007445Y012705D01*
X007445Y012783D02*
X000805Y012783D01*
X000805Y012862D02*
X007445Y012862D01*
X007445Y012940D02*
X000805Y012940D01*
X001480Y014040D02*
X001560Y014040D01*
X001560Y014118D02*
X001480Y014118D01*
X001480Y014197D02*
X001560Y014197D01*
X001560Y014275D02*
X001480Y014275D01*
X001480Y014354D02*
X001560Y014354D01*
X001560Y014590D02*
X001480Y014590D01*
X001480Y014668D02*
X001560Y014668D01*
X001560Y014747D02*
X001480Y014747D01*
X001249Y014747D02*
X000805Y014747D01*
X000805Y014668D02*
X001172Y014668D01*
X001124Y014590D02*
X000805Y014590D01*
X002455Y014982D02*
X005882Y014982D01*
X006279Y014904D02*
X002571Y014904D01*
X002617Y014825D02*
X006398Y014825D01*
X007732Y015846D02*
X008185Y015846D01*
X008221Y015768D02*
X007872Y015768D01*
X007940Y015689D02*
X008300Y015689D01*
X008378Y015611D02*
X007972Y015611D01*
X007983Y015532D02*
X008462Y015532D01*
X008432Y015454D02*
X008150Y015454D01*
X008265Y015375D02*
X008432Y015375D01*
X008443Y015296D02*
X008322Y015296D01*
X008354Y015218D02*
X008475Y015218D01*
X008543Y015139D02*
X008358Y015139D01*
X008353Y015061D02*
X008598Y015061D01*
X008508Y014982D02*
X008321Y014982D01*
X008290Y014904D02*
X008461Y014904D01*
X008432Y014825D02*
X008369Y014825D01*
X008270Y014641D02*
X008020Y014891D01*
X008020Y015141D01*
X008270Y014641D02*
X008270Y013391D01*
X009645Y012016D01*
X009645Y011516D01*
X009793Y011134D02*
X010497Y011134D01*
X010369Y011212D02*
X009921Y011212D01*
X009996Y011291D02*
X010294Y011291D01*
X010262Y011369D02*
X010028Y011369D01*
X010055Y011448D02*
X010235Y011448D01*
X010235Y011526D02*
X010055Y011526D01*
X010052Y011605D02*
X010238Y011605D01*
X010271Y011684D02*
X010019Y011684D01*
X009979Y011762D02*
X010311Y011762D01*
X010390Y011841D02*
X009900Y011841D01*
X009845Y011919D02*
X010445Y011919D01*
X010366Y011998D02*
X009845Y011998D01*
X009845Y012076D02*
X010288Y012076D01*
X010209Y012155D02*
X009789Y012155D01*
X009711Y012233D02*
X010131Y012233D01*
X010052Y012312D02*
X009632Y012312D01*
X009553Y012390D02*
X009974Y012390D01*
X009895Y012469D02*
X009475Y012469D01*
X009396Y012547D02*
X009817Y012547D01*
X009738Y012626D02*
X009318Y012626D01*
X009239Y012705D02*
X009512Y012705D01*
X009399Y012783D02*
X009161Y012783D01*
X009082Y012862D02*
X009343Y012862D01*
X009310Y012940D02*
X009004Y012940D01*
X008925Y013019D02*
X009307Y013019D01*
X009267Y013097D02*
X008847Y013097D01*
X008768Y013176D02*
X009188Y013176D01*
X009110Y013254D02*
X008689Y013254D01*
X008611Y013333D02*
X009031Y013333D01*
X008953Y013411D02*
X008532Y013411D01*
X008470Y013490D02*
X008874Y013490D01*
X008795Y013569D02*
X008470Y013569D01*
X008470Y013647D02*
X008717Y013647D01*
X008638Y013726D02*
X008470Y013726D01*
X008470Y013804D02*
X008560Y013804D01*
X008560Y013883D02*
X008470Y013883D01*
X008470Y013961D02*
X008560Y013961D01*
X008560Y014040D02*
X008470Y014040D01*
X008470Y014118D02*
X008560Y014118D01*
X008560Y014197D02*
X008470Y014197D01*
X008470Y014275D02*
X008560Y014275D01*
X008560Y014354D02*
X008470Y014354D01*
X008470Y014433D02*
X008560Y014433D01*
X008546Y014511D02*
X008470Y014511D01*
X008470Y014590D02*
X008477Y014590D01*
X009658Y015925D02*
X010403Y015925D01*
X010325Y015846D02*
X009737Y015846D01*
X009815Y015768D02*
X010246Y015768D01*
X010185Y015689D02*
X010059Y015689D01*
X010154Y015611D02*
X010185Y015611D01*
X008185Y017417D02*
X005843Y017417D01*
X005855Y017496D02*
X008185Y017496D01*
X008185Y017574D02*
X005855Y017574D01*
X006358Y018281D02*
X006651Y018281D01*
X006593Y018360D02*
X006355Y018360D01*
X006355Y018438D02*
X006561Y018438D01*
X006557Y018517D02*
X006355Y018517D01*
X006355Y018595D02*
X006519Y018595D01*
X006440Y018674D02*
X006355Y018674D01*
X006355Y018752D02*
X006435Y018752D01*
X006435Y018831D02*
X006355Y018831D01*
X006355Y018909D02*
X006435Y018909D01*
X006435Y018988D02*
X006355Y018988D01*
X006355Y019067D02*
X006435Y019067D01*
X006435Y019145D02*
X006355Y019145D01*
X006355Y019224D02*
X006358Y019224D01*
X006355Y019852D02*
X006401Y019852D01*
X006434Y018203D02*
X006767Y018203D01*
X008645Y012516D02*
X008645Y011516D01*
X010645Y011516D02*
X010645Y012016D01*
X010921Y011212D02*
X010935Y011212D01*
X010980Y011134D02*
X010793Y011134D01*
X011059Y011055D02*
X006236Y011055D01*
X005905Y011055D02*
X005745Y011055D01*
X005800Y011134D02*
X005830Y011134D01*
X006299Y010034D02*
X006523Y010034D01*
X006380Y009956D02*
X006355Y009956D01*
X005301Y009877D02*
X004989Y009877D01*
X005024Y009798D02*
X005266Y009798D01*
X005235Y009720D02*
X005055Y009720D01*
X005055Y009641D02*
X005235Y009641D01*
X005235Y009563D02*
X005055Y009563D01*
X005024Y009484D02*
X005266Y009484D01*
X005300Y009406D02*
X004990Y009406D01*
X004911Y009327D02*
X005379Y009327D01*
X005855Y007913D02*
X005894Y007913D01*
X005855Y007835D02*
X006000Y007835D01*
X005825Y005164D02*
X000805Y005164D01*
X000805Y005086D02*
X002226Y005086D01*
X002507Y005086D02*
X005903Y005086D01*
X004086Y001159D02*
X003944Y001159D01*
X003416Y001159D02*
X003276Y001159D01*
X001560Y004143D02*
X001480Y004143D01*
X001480Y004222D02*
X001560Y004222D01*
X001560Y004300D02*
X001480Y004300D01*
X001480Y004379D02*
X001560Y004379D01*
X001560Y004458D02*
X001480Y004458D01*
X001480Y004536D02*
X000805Y004536D01*
X000805Y004458D02*
X001089Y004458D01*
X001109Y004379D02*
X000805Y004379D01*
X000805Y004615D02*
X001091Y004615D01*
X001114Y004693D02*
X000805Y004693D01*
X000805Y004772D02*
X001157Y004772D01*
X001224Y004850D02*
X000805Y004850D01*
X001146Y004300D02*
X001187Y004244D01*
X001314Y004143D02*
X000805Y004143D01*
X000805Y006185D02*
X002252Y006185D01*
X002151Y006264D02*
X000805Y006264D01*
X010645Y002141D02*
X010645Y001641D01*
X010900Y001316D02*
X010935Y001316D01*
X011002Y001237D02*
X010742Y001237D01*
M02*
