G75*
G70*
%OFA0B0*%
%FSLAX24Y24*%
%IPPOS*%
%LPD*%
%AMOC8*
5,1,8,0,0,1.08239X$1,22.5*
%
%ADD10R,0.0200X0.0500*%
%ADD11R,0.0500X0.0200*%
%ADD12R,0.0394X0.0433*%
%ADD13R,0.0433X0.0394*%
%ADD14R,0.0886X0.0157*%
%ADD15R,0.0748X0.0748*%
%ADD16R,0.0748X0.0551*%
%ADD17R,0.0315X0.0315*%
%ADD18R,0.0300X0.0600*%
D10*
X006543Y003951D03*
X006858Y003951D03*
X007173Y003951D03*
X007488Y003951D03*
X007803Y003951D03*
X008117Y003951D03*
X008432Y003951D03*
X008747Y003951D03*
X008747Y007331D03*
X008432Y007331D03*
X008117Y007331D03*
X007803Y007331D03*
X007488Y007331D03*
X007173Y007331D03*
X006858Y007331D03*
X006543Y007331D03*
X006543Y013826D03*
X006858Y013826D03*
X007173Y013826D03*
X007488Y013826D03*
X007803Y013826D03*
X008117Y013826D03*
X008432Y013826D03*
X008747Y013826D03*
X008747Y017206D03*
X008432Y017206D03*
X008117Y017206D03*
X007803Y017206D03*
X007488Y017206D03*
X007173Y017206D03*
X006858Y017206D03*
X006543Y017206D03*
D11*
X005955Y016618D03*
X005955Y016303D03*
X005955Y015988D03*
X005955Y015673D03*
X005955Y015359D03*
X005955Y015044D03*
X005955Y014729D03*
X005955Y014414D03*
X009335Y014414D03*
X009335Y014729D03*
X009335Y015044D03*
X009335Y015359D03*
X009335Y015673D03*
X009335Y015988D03*
X009335Y016303D03*
X009335Y016618D03*
X009335Y006743D03*
X009335Y006428D03*
X009335Y006113D03*
X009335Y005798D03*
X009335Y005484D03*
X009335Y005169D03*
X009335Y004854D03*
X009335Y004539D03*
X005955Y004539D03*
X005955Y004854D03*
X005955Y005169D03*
X005955Y005484D03*
X005955Y005798D03*
X005955Y006113D03*
X005955Y006428D03*
X005955Y006743D03*
D12*
X004480Y006141D03*
X003810Y006141D03*
X003810Y005266D03*
X004480Y005266D03*
X004480Y007891D03*
X003810Y007891D03*
X006645Y011681D03*
X006645Y012351D03*
X007520Y012351D03*
X007520Y011681D03*
X004480Y015141D03*
X004480Y016016D03*
X003810Y016016D03*
X003810Y015141D03*
X003810Y017766D03*
X004480Y017766D03*
X006645Y002476D03*
X006645Y001806D03*
X007520Y001806D03*
X007520Y002476D03*
D13*
X009270Y002476D03*
X009270Y001806D03*
X010145Y001806D03*
X010145Y002476D03*
X009645Y008806D03*
X009645Y009476D03*
X009270Y011681D03*
X009270Y012351D03*
X010145Y012351D03*
X010145Y011681D03*
X011645Y009476D03*
X011645Y008806D03*
X006145Y008806D03*
X006145Y009476D03*
X004480Y008766D03*
X003810Y008766D03*
X003810Y007016D03*
X004480Y007016D03*
X004480Y004391D03*
X004480Y003516D03*
X003810Y003516D03*
X003810Y004391D03*
X003810Y013391D03*
X003810Y014266D03*
X004480Y014266D03*
X004480Y013391D03*
X004480Y016891D03*
X003810Y016891D03*
X003810Y018641D03*
X004480Y018641D03*
X006145Y018681D03*
X006145Y019351D03*
X009645Y019351D03*
X009645Y018681D03*
X011645Y018681D03*
X011645Y019351D03*
D14*
X002672Y016028D03*
X002672Y015772D03*
X002672Y015516D03*
X002672Y015260D03*
X002672Y015004D03*
X002672Y006153D03*
X002672Y005897D03*
X002672Y005641D03*
X002672Y005385D03*
X002672Y005129D03*
D15*
X001520Y005641D03*
X001520Y015516D03*
D16*
X003779Y012488D03*
X003779Y011544D03*
X005511Y011544D03*
X005511Y012488D03*
X005511Y002613D03*
X005511Y001669D03*
X003779Y001669D03*
X003779Y002613D03*
D17*
X008395Y002436D03*
X008395Y001846D03*
X011020Y001846D03*
X011020Y002436D03*
X010645Y008846D03*
X010645Y009436D03*
X011020Y011721D03*
X011020Y012311D03*
X008395Y012311D03*
X008395Y011721D03*
X010645Y018721D03*
X010645Y019311D03*
D18*
X001145Y001641D03*
X002645Y001641D03*
X002645Y003641D03*
X001145Y003641D03*
X001145Y007641D03*
X001145Y009641D03*
X001145Y011516D03*
X001145Y013516D03*
X002645Y013516D03*
X002645Y011516D03*
X002645Y009641D03*
X002645Y007641D03*
X002645Y017516D03*
X001145Y017516D03*
X001145Y019516D03*
X002645Y019516D03*
M02*
