G75*
G70*
%OFA0B0*%
%FSLAX24Y24*%
%IPPOS*%
%LPD*%
%AMOC8*
5,1,8,0,0,1.08239X$1,22.5*
%
%ADD10C,0.0000*%
%ADD11R,0.0200X0.0500*%
%ADD12R,0.0500X0.0200*%
%ADD13R,0.0394X0.0433*%
%ADD14R,0.0433X0.0394*%
%ADD15R,0.0886X0.0157*%
%ADD16C,0.0594*%
%ADD17R,0.0748X0.0748*%
%ADD18R,0.0748X0.0551*%
%ADD19C,0.0740*%
%ADD20R,0.0600X0.0600*%
%ADD21OC8,0.0600*%
%ADD22R,0.0315X0.0315*%
%ADD23R,0.0300X0.0600*%
%ADD24C,0.0394*%
%ADD25C,0.0100*%
%ADD26C,0.0080*%
%ADD27C,0.0357*%
%ADD28C,0.0160*%
D10*
X000645Y000766D02*
X000645Y020266D01*
X013645Y020266D01*
X013645Y000766D01*
X000645Y000766D01*
X002258Y004854D02*
X002260Y004874D01*
X002266Y004894D01*
X002275Y004912D01*
X002288Y004929D01*
X002303Y004942D01*
X002321Y004952D01*
X002341Y004959D01*
X002361Y004962D01*
X002381Y004961D01*
X002401Y004956D01*
X002420Y004948D01*
X002437Y004936D01*
X002451Y004921D01*
X002462Y004903D01*
X002470Y004884D01*
X002474Y004864D01*
X002474Y004844D01*
X002470Y004824D01*
X002462Y004805D01*
X002451Y004787D01*
X002437Y004772D01*
X002420Y004760D01*
X002401Y004752D01*
X002381Y004747D01*
X002361Y004746D01*
X002341Y004749D01*
X002321Y004756D01*
X002303Y004766D01*
X002288Y004779D01*
X002275Y004796D01*
X002266Y004814D01*
X002260Y004834D01*
X002258Y004854D01*
X002258Y006428D02*
X002260Y006448D01*
X002266Y006468D01*
X002275Y006486D01*
X002288Y006503D01*
X002303Y006516D01*
X002321Y006526D01*
X002341Y006533D01*
X002361Y006536D01*
X002381Y006535D01*
X002401Y006530D01*
X002420Y006522D01*
X002437Y006510D01*
X002451Y006495D01*
X002462Y006477D01*
X002470Y006458D01*
X002474Y006438D01*
X002474Y006418D01*
X002470Y006398D01*
X002462Y006379D01*
X002451Y006361D01*
X002437Y006346D01*
X002420Y006334D01*
X002401Y006326D01*
X002381Y006321D01*
X002361Y006320D01*
X002341Y006323D01*
X002321Y006330D01*
X002303Y006340D01*
X002288Y006353D01*
X002275Y006370D01*
X002266Y006388D01*
X002260Y006408D01*
X002258Y006428D01*
X002258Y014729D02*
X002260Y014749D01*
X002266Y014769D01*
X002275Y014787D01*
X002288Y014804D01*
X002303Y014817D01*
X002321Y014827D01*
X002341Y014834D01*
X002361Y014837D01*
X002381Y014836D01*
X002401Y014831D01*
X002420Y014823D01*
X002437Y014811D01*
X002451Y014796D01*
X002462Y014778D01*
X002470Y014759D01*
X002474Y014739D01*
X002474Y014719D01*
X002470Y014699D01*
X002462Y014680D01*
X002451Y014662D01*
X002437Y014647D01*
X002420Y014635D01*
X002401Y014627D01*
X002381Y014622D01*
X002361Y014621D01*
X002341Y014624D01*
X002321Y014631D01*
X002303Y014641D01*
X002288Y014654D01*
X002275Y014671D01*
X002266Y014689D01*
X002260Y014709D01*
X002258Y014729D01*
X002258Y016303D02*
X002260Y016323D01*
X002266Y016343D01*
X002275Y016361D01*
X002288Y016378D01*
X002303Y016391D01*
X002321Y016401D01*
X002341Y016408D01*
X002361Y016411D01*
X002381Y016410D01*
X002401Y016405D01*
X002420Y016397D01*
X002437Y016385D01*
X002451Y016370D01*
X002462Y016352D01*
X002470Y016333D01*
X002474Y016313D01*
X002474Y016293D01*
X002470Y016273D01*
X002462Y016254D01*
X002451Y016236D01*
X002437Y016221D01*
X002420Y016209D01*
X002401Y016201D01*
X002381Y016196D01*
X002361Y016195D01*
X002341Y016198D01*
X002321Y016205D01*
X002303Y016215D01*
X002288Y016228D01*
X002275Y016245D01*
X002266Y016263D01*
X002260Y016283D01*
X002258Y016303D01*
D11*
X006543Y017206D03*
X006858Y017206D03*
X007173Y017206D03*
X007488Y017206D03*
X007803Y017206D03*
X008117Y017206D03*
X008432Y017206D03*
X008747Y017206D03*
X008747Y013826D03*
X008432Y013826D03*
X008117Y013826D03*
X007803Y013826D03*
X007488Y013826D03*
X007173Y013826D03*
X006858Y013826D03*
X006543Y013826D03*
X006543Y007331D03*
X006858Y007331D03*
X007173Y007331D03*
X007488Y007331D03*
X007803Y007331D03*
X008117Y007331D03*
X008432Y007331D03*
X008747Y007331D03*
X008747Y003951D03*
X008432Y003951D03*
X008117Y003951D03*
X007803Y003951D03*
X007488Y003951D03*
X007173Y003951D03*
X006858Y003951D03*
X006543Y003951D03*
D12*
X005955Y004539D03*
X005955Y004854D03*
X005955Y005169D03*
X005955Y005484D03*
X005955Y005798D03*
X005955Y006113D03*
X005955Y006428D03*
X005955Y006743D03*
X009335Y006743D03*
X009335Y006428D03*
X009335Y006113D03*
X009335Y005798D03*
X009335Y005484D03*
X009335Y005169D03*
X009335Y004854D03*
X009335Y004539D03*
X009335Y014414D03*
X009335Y014729D03*
X009335Y015044D03*
X009335Y015359D03*
X009335Y015673D03*
X009335Y015988D03*
X009335Y016303D03*
X009335Y016618D03*
X005955Y016618D03*
X005955Y016303D03*
X005955Y015988D03*
X005955Y015673D03*
X005955Y015359D03*
X005955Y015044D03*
X005955Y014729D03*
X005955Y014414D03*
D13*
X004480Y015141D03*
X004480Y016016D03*
X003810Y016016D03*
X003810Y015141D03*
X003810Y017766D03*
X004480Y017766D03*
X006645Y012351D03*
X006645Y011681D03*
X007520Y011681D03*
X007520Y012351D03*
X004480Y007891D03*
X003810Y007891D03*
X003810Y006141D03*
X004480Y006141D03*
X004480Y005266D03*
X003810Y005266D03*
X006645Y002476D03*
X006645Y001806D03*
X007520Y001806D03*
X007520Y002476D03*
D14*
X009270Y002476D03*
X009270Y001806D03*
X010145Y001806D03*
X010145Y002476D03*
X009645Y008806D03*
X009645Y009476D03*
X009270Y011681D03*
X009270Y012351D03*
X010145Y012351D03*
X010145Y011681D03*
X011645Y009476D03*
X011645Y008806D03*
X006145Y008806D03*
X006145Y009476D03*
X004480Y008766D03*
X003810Y008766D03*
X003810Y007016D03*
X004480Y007016D03*
X004480Y004391D03*
X004480Y003516D03*
X003810Y003516D03*
X003810Y004391D03*
X003810Y013391D03*
X003810Y014266D03*
X004480Y014266D03*
X004480Y013391D03*
X004480Y016891D03*
X003810Y016891D03*
X003810Y018641D03*
X004480Y018641D03*
X006145Y018681D03*
X006145Y019351D03*
X009645Y019351D03*
X009645Y018681D03*
X011645Y018681D03*
X011645Y019351D03*
D15*
X002672Y016028D03*
X002672Y015772D03*
X002672Y015516D03*
X002672Y015260D03*
X002672Y015004D03*
X002672Y006153D03*
X002672Y005897D03*
X002672Y005641D03*
X002672Y005385D03*
X002672Y005129D03*
D16*
X001520Y004529D03*
X001520Y006753D03*
X001520Y014404D03*
X001520Y016628D03*
D17*
X001520Y015516D03*
X001520Y005641D03*
D18*
X003779Y002613D03*
X003779Y001669D03*
X005511Y001669D03*
X005511Y002613D03*
X005511Y011544D03*
X005511Y012488D03*
X003779Y012488D03*
X003779Y011544D03*
D19*
X012645Y013016D03*
X012645Y014016D03*
X012645Y015016D03*
X012645Y016016D03*
X012645Y017016D03*
X012645Y018016D03*
X012645Y008141D03*
X012645Y007141D03*
X012645Y006141D03*
X012645Y005141D03*
X012645Y004141D03*
X012645Y003141D03*
D20*
X010645Y006641D03*
X010645Y016516D03*
D21*
X010645Y015516D03*
X010645Y014516D03*
X011645Y014516D03*
X011645Y015516D03*
X011645Y016516D03*
X011645Y006641D03*
X011645Y005641D03*
X011645Y004641D03*
X010645Y004641D03*
X010645Y005641D03*
D22*
X010645Y008846D03*
X010645Y009436D03*
X011020Y011721D03*
X011020Y012311D03*
X008395Y012311D03*
X008395Y011721D03*
X010645Y018721D03*
X010645Y019311D03*
X011020Y002436D03*
X011020Y001846D03*
X008395Y001846D03*
X008395Y002436D03*
D23*
X002645Y001641D03*
X001145Y001641D03*
X001145Y003641D03*
X002645Y003641D03*
X002645Y007641D03*
X002645Y009641D03*
X002645Y011516D03*
X002645Y013516D03*
X001145Y013516D03*
X001145Y011516D03*
X001145Y009641D03*
X001145Y007641D03*
X001145Y017516D03*
X002645Y017516D03*
X002645Y019516D03*
X001145Y019516D03*
D24*
X004645Y019516D03*
X004645Y009641D03*
X012645Y009641D03*
X012645Y019516D03*
D25*
X011645Y019351D02*
X010684Y019351D01*
X010645Y019311D01*
X010145Y018016D02*
X009770Y017641D01*
X008520Y017641D01*
X008432Y017553D01*
X008432Y017206D01*
X008747Y017206D02*
X009955Y017206D01*
X010645Y016516D01*
X010270Y016016D02*
X011145Y016016D01*
X011645Y015516D01*
X010645Y015516D02*
X010395Y015516D01*
X009895Y016016D01*
X009895Y016266D01*
X009858Y016303D01*
X009335Y016303D01*
X009335Y016618D02*
X010043Y016618D01*
X010145Y016516D01*
X010145Y016141D01*
X010270Y016016D01*
X009895Y015516D02*
X009895Y015391D01*
X009895Y015516D02*
X009738Y015673D01*
X009335Y015673D01*
X009335Y015988D02*
X008923Y015988D01*
X008770Y016141D01*
X008395Y016016D02*
X007895Y016516D01*
X007803Y017206D02*
X007803Y017923D01*
X008395Y018516D01*
X008520Y018016D02*
X009645Y018016D01*
X009520Y018516D02*
X009645Y018641D01*
X009645Y018681D01*
X009520Y018516D02*
X008895Y018516D01*
X008520Y018016D02*
X008117Y017613D01*
X008117Y017206D01*
X007488Y017206D02*
X007488Y018109D01*
X007895Y018516D01*
X007395Y018516D02*
X007173Y018294D01*
X007173Y017206D01*
X006858Y017206D02*
X006858Y018479D01*
X006895Y018516D01*
X006145Y018016D02*
X006543Y017618D01*
X006543Y017206D01*
X005955Y016618D02*
X005793Y016618D01*
X005395Y017016D01*
X005020Y016891D02*
X005395Y016516D01*
X005395Y016266D01*
X005673Y015988D01*
X005955Y015988D01*
X005955Y016303D02*
X006358Y016303D01*
X006520Y016141D01*
X006895Y016266D02*
X006895Y014729D01*
X005955Y014729D01*
X005955Y014414D02*
X007145Y014414D01*
X007145Y014641D01*
X007057Y014729D01*
X006895Y014729D01*
X007145Y014414D02*
X007247Y014414D01*
X007488Y014173D01*
X007488Y013826D01*
X007488Y013423D01*
X007645Y013266D01*
X007645Y012891D01*
X007520Y012766D01*
X007520Y012351D01*
X007645Y012311D01*
X008395Y012311D01*
X008395Y012766D01*
X009145Y013516D01*
X010520Y013516D01*
X011020Y013016D01*
X011020Y012311D01*
X011020Y011721D02*
X010145Y011721D01*
X010145Y011681D01*
X009770Y011391D02*
X009895Y011266D01*
X012020Y011266D01*
X012145Y011391D01*
X012145Y012016D01*
X012645Y011391D02*
X012270Y011016D01*
X003020Y011016D01*
X002645Y011391D01*
X002645Y013516D01*
X002645Y011516D01*
X003779Y011544D02*
X003876Y011641D01*
X004395Y011641D01*
X004520Y011766D01*
X004520Y013391D01*
X004480Y013391D01*
X004520Y013391D02*
X004955Y013826D01*
X006543Y013826D01*
X006858Y013826D02*
X006858Y012603D01*
X006645Y012351D01*
X006547Y012488D01*
X005511Y012488D01*
X005395Y014266D02*
X004480Y014266D01*
X004480Y015141D02*
X005270Y015141D01*
X005488Y015359D01*
X005955Y015359D01*
X005955Y015044D02*
X006423Y015044D01*
X006520Y015141D01*
X005955Y014414D02*
X005543Y014414D01*
X005395Y014266D01*
X005145Y016016D02*
X004480Y016016D01*
X004480Y016891D02*
X005020Y016891D01*
X004480Y017766D02*
X005895Y017766D01*
X006145Y018016D02*
X006145Y018681D01*
X008395Y016016D02*
X008395Y014641D01*
X008770Y014266D01*
X008895Y014266D01*
X009020Y014141D01*
X010270Y014141D01*
X010645Y014516D01*
X010145Y014641D02*
X010520Y015016D01*
X012645Y015016D01*
X012645Y014016D02*
X012455Y013826D01*
X008747Y013826D01*
X009335Y014414D02*
X010043Y014414D01*
X010145Y014516D01*
X010145Y014641D01*
X009335Y015359D02*
X008803Y015359D01*
X008770Y015391D01*
X009645Y013016D02*
X010145Y012516D01*
X010145Y012351D01*
X009770Y012266D02*
X009685Y012351D01*
X009270Y012351D01*
X009231Y011721D02*
X009270Y011681D01*
X009231Y011721D02*
X008395Y011721D01*
X009770Y011391D02*
X009770Y012266D01*
X010684Y009476D02*
X010645Y009436D01*
X010684Y009476D02*
X011645Y009476D01*
X012645Y011391D02*
X012645Y013016D01*
X009645Y008806D02*
X009645Y008766D01*
X009520Y008641D01*
X008895Y008641D01*
X008520Y008141D02*
X009645Y008141D01*
X009770Y007766D02*
X010145Y008141D01*
X009770Y007766D02*
X008520Y007766D01*
X008432Y007678D01*
X008432Y007331D01*
X008747Y007331D02*
X009955Y007331D01*
X010645Y006641D01*
X010270Y006141D02*
X011145Y006141D01*
X011645Y005641D01*
X010645Y005641D02*
X010395Y005641D01*
X009895Y006141D01*
X009895Y006391D01*
X009858Y006428D01*
X009335Y006428D01*
X009335Y006743D02*
X010043Y006743D01*
X010145Y006641D01*
X010145Y006266D01*
X010270Y006141D01*
X009895Y005641D02*
X009895Y005516D01*
X009895Y005641D02*
X009738Y005798D01*
X009335Y005798D01*
X009335Y006113D02*
X008923Y006113D01*
X008770Y006266D01*
X008395Y006141D02*
X007895Y006641D01*
X007803Y007331D02*
X007803Y008048D01*
X008395Y008641D01*
X008520Y008141D02*
X008117Y007738D01*
X008117Y007331D01*
X007488Y007331D02*
X007488Y008234D01*
X007895Y008641D01*
X007395Y008641D02*
X007173Y008419D01*
X007173Y007331D01*
X006858Y007331D02*
X006858Y008604D01*
X006895Y008641D01*
X006145Y008141D02*
X006543Y007743D01*
X006543Y007331D01*
X005955Y006743D02*
X005793Y006743D01*
X005395Y007141D01*
X005020Y007016D02*
X005395Y006641D01*
X005395Y006391D01*
X005673Y006113D01*
X005955Y006113D01*
X005955Y006428D02*
X006358Y006428D01*
X006520Y006266D01*
X006895Y006391D02*
X006895Y004854D01*
X005955Y004854D01*
X005955Y004539D02*
X007145Y004539D01*
X007145Y004766D01*
X007057Y004854D01*
X006895Y004854D01*
X007145Y004539D02*
X007247Y004539D01*
X007488Y004298D01*
X007488Y003951D01*
X007488Y003548D01*
X007645Y003391D01*
X007645Y003016D01*
X007520Y002891D01*
X007520Y002476D01*
X007645Y002436D01*
X008395Y002436D01*
X008395Y002891D01*
X009145Y003641D01*
X010520Y003641D01*
X011020Y003141D01*
X011020Y002436D01*
X011020Y001846D02*
X010145Y001846D01*
X010145Y001806D01*
X009770Y001516D02*
X009895Y001391D01*
X012020Y001391D01*
X012145Y001516D01*
X012145Y002141D01*
X012645Y001516D02*
X012645Y003141D01*
X012455Y003951D02*
X012645Y004141D01*
X012455Y003951D02*
X008747Y003951D01*
X009020Y004266D02*
X008895Y004391D01*
X008770Y004391D01*
X008395Y004766D01*
X008395Y006141D01*
X008770Y005516D02*
X008803Y005484D01*
X009335Y005484D01*
X009335Y004539D02*
X010043Y004539D01*
X010145Y004641D01*
X010145Y004766D01*
X010520Y005141D01*
X012645Y005141D01*
X010645Y004641D02*
X010270Y004266D01*
X009020Y004266D01*
X009645Y003141D02*
X010145Y002641D01*
X010145Y002476D01*
X009770Y002391D02*
X009685Y002476D01*
X009270Y002476D01*
X009231Y001846D02*
X009270Y001806D01*
X009231Y001846D02*
X008395Y001846D01*
X009770Y001516D02*
X009770Y002391D01*
X012270Y001141D02*
X012645Y001516D01*
X012270Y001141D02*
X003020Y001141D01*
X002645Y001516D01*
X002645Y003641D01*
X002645Y001641D01*
X003779Y001669D02*
X003876Y001766D01*
X004395Y001766D01*
X004520Y001891D01*
X004520Y003516D01*
X004480Y003516D01*
X004520Y003516D02*
X004955Y003951D01*
X006543Y003951D01*
X006858Y003951D02*
X006858Y002728D01*
X006645Y002476D01*
X006547Y002613D01*
X005511Y002613D01*
X005395Y004391D02*
X004480Y004391D01*
X004480Y005266D02*
X005270Y005266D01*
X005488Y005484D01*
X005955Y005484D01*
X005955Y005169D02*
X006423Y005169D01*
X006520Y005266D01*
X005955Y004539D02*
X005543Y004539D01*
X005395Y004391D01*
X005145Y006141D02*
X004480Y006141D01*
X004480Y007016D02*
X005020Y007016D01*
X004480Y007891D02*
X005895Y007891D01*
X006145Y008141D02*
X006145Y008806D01*
X003810Y006141D02*
X003770Y006141D01*
X003526Y005897D01*
X002672Y005897D01*
X002672Y005641D02*
X003145Y005641D01*
X003520Y005266D01*
X003810Y005266D01*
X002645Y007641D02*
X002645Y009641D01*
X002895Y009641D01*
X003145Y009891D01*
X003520Y015141D02*
X003145Y015516D01*
X002672Y015516D01*
X002672Y015772D02*
X003526Y015772D01*
X003770Y016016D01*
X003810Y016016D01*
X003810Y015141D02*
X003520Y015141D01*
X002645Y017516D02*
X002645Y019516D01*
X002895Y019516D01*
X003145Y019766D01*
D26*
X003339Y019538D02*
X004328Y019538D01*
X004328Y019579D02*
X004328Y019453D01*
X004376Y019336D01*
X004466Y019247D01*
X004582Y019199D01*
X004708Y019199D01*
X004824Y019247D01*
X004914Y019336D01*
X004962Y019453D01*
X004962Y019579D01*
X004914Y019695D01*
X012376Y019695D01*
X012328Y019579D01*
X012328Y019453D01*
X012376Y019336D01*
X012466Y019247D01*
X012582Y019199D01*
X012708Y019199D01*
X012824Y019247D01*
X012914Y019336D01*
X012962Y019453D01*
X012962Y019579D01*
X012914Y019695D01*
X013505Y019695D01*
X013505Y019773D02*
X012836Y019773D01*
X012824Y019785D02*
X012708Y019833D01*
X012582Y019833D01*
X012466Y019785D01*
X012376Y019695D01*
X012344Y019616D02*
X011962Y019616D01*
X011982Y019597D02*
X011911Y019667D01*
X011379Y019667D01*
X011309Y019597D01*
X011309Y019521D01*
X010920Y019521D01*
X010852Y019589D01*
X010438Y019589D01*
X010368Y019518D01*
X010368Y019104D01*
X010438Y019034D01*
X010852Y019034D01*
X010922Y019104D01*
X010922Y019181D01*
X011309Y019181D01*
X011309Y019104D01*
X011379Y019034D01*
X011911Y019034D01*
X011982Y019104D01*
X011982Y019597D01*
X011982Y019538D02*
X012328Y019538D01*
X012328Y019459D02*
X011982Y019459D01*
X011982Y019381D02*
X012358Y019381D01*
X012411Y019302D02*
X011982Y019302D01*
X011982Y019224D02*
X012523Y019224D01*
X012767Y019224D02*
X013505Y019224D01*
X013505Y019302D02*
X012879Y019302D01*
X012932Y019381D02*
X013505Y019381D01*
X013505Y019459D02*
X012962Y019459D01*
X012962Y019538D02*
X013505Y019538D01*
X013505Y019616D02*
X012946Y019616D01*
X012914Y019695D02*
X012824Y019785D01*
X012454Y019773D02*
X004836Y019773D01*
X004824Y019785D02*
X004708Y019833D01*
X004582Y019833D01*
X004466Y019785D01*
X004376Y019695D01*
X003439Y019695D01*
X003443Y019707D02*
X003443Y019825D01*
X003398Y019935D01*
X003314Y020019D01*
X003204Y020064D01*
X003086Y020064D01*
X002976Y020019D01*
X002892Y019935D01*
X002878Y019902D01*
X002845Y019936D01*
X002445Y019936D01*
X002375Y019866D01*
X002375Y019166D01*
X002445Y019096D01*
X002475Y019096D01*
X002475Y017936D01*
X002445Y017936D01*
X002375Y017866D01*
X002375Y017166D01*
X002445Y017096D01*
X002845Y017096D01*
X002915Y017166D01*
X002915Y017866D01*
X002845Y017936D01*
X002815Y017936D01*
X002815Y019096D01*
X002845Y019096D01*
X002915Y019166D01*
X002915Y019346D01*
X002965Y019346D01*
X003087Y019468D01*
X003204Y019468D01*
X003314Y019513D01*
X003398Y019597D01*
X003443Y019707D01*
X003443Y019773D02*
X004454Y019773D01*
X004376Y019695D02*
X004328Y019579D01*
X004344Y019616D02*
X003406Y019616D01*
X003432Y019852D02*
X013505Y019852D01*
X013505Y019931D02*
X003400Y019931D01*
X003324Y020009D02*
X013505Y020009D01*
X013505Y020088D02*
X000785Y020088D01*
X000785Y020126D02*
X013505Y020126D01*
X013505Y010641D01*
X000785Y010641D01*
X000785Y020126D01*
X000785Y020009D02*
X002966Y020009D01*
X002890Y019931D02*
X002850Y019931D01*
X002440Y019931D02*
X001377Y019931D01*
X001381Y019928D02*
X001349Y019946D01*
X001313Y019956D01*
X001180Y019956D01*
X001180Y019551D01*
X001110Y019551D01*
X001110Y019481D01*
X000855Y019481D01*
X000855Y019198D01*
X000865Y019162D01*
X000883Y019130D01*
X000909Y019104D01*
X000941Y019086D01*
X000977Y019076D01*
X001110Y019076D01*
X001110Y019481D01*
X001180Y019481D01*
X001180Y019551D01*
X001435Y019551D01*
X001435Y019834D01*
X001425Y019870D01*
X001407Y019902D01*
X001381Y019928D01*
X001430Y019852D02*
X002375Y019852D01*
X002375Y019773D02*
X001435Y019773D01*
X001435Y019695D02*
X002375Y019695D01*
X002375Y019616D02*
X001435Y019616D01*
X001435Y019481D02*
X001180Y019481D01*
X001180Y019076D01*
X001313Y019076D01*
X001349Y019086D01*
X001381Y019104D01*
X001407Y019130D01*
X001425Y019162D01*
X001435Y019198D01*
X001435Y019481D01*
X001435Y019459D02*
X002375Y019459D01*
X002375Y019381D02*
X001435Y019381D01*
X001435Y019302D02*
X002375Y019302D01*
X002375Y019224D02*
X001435Y019224D01*
X001416Y019145D02*
X002396Y019145D01*
X002475Y019067D02*
X000785Y019067D01*
X000785Y019145D02*
X000874Y019145D01*
X000855Y019224D02*
X000785Y019224D01*
X000785Y019302D02*
X000855Y019302D01*
X000855Y019381D02*
X000785Y019381D01*
X000785Y019459D02*
X000855Y019459D01*
X000855Y019551D02*
X001110Y019551D01*
X001110Y019956D01*
X000977Y019956D01*
X000941Y019946D01*
X000909Y019928D01*
X000883Y019902D01*
X000865Y019870D01*
X000855Y019834D01*
X000855Y019551D01*
X000855Y019616D02*
X000785Y019616D01*
X000785Y019538D02*
X001110Y019538D01*
X001180Y019538D02*
X002375Y019538D01*
X002475Y018988D02*
X000785Y018988D01*
X000785Y018909D02*
X002475Y018909D01*
X002475Y018831D02*
X000785Y018831D01*
X000785Y018752D02*
X002475Y018752D01*
X002475Y018674D02*
X000785Y018674D01*
X000785Y018595D02*
X002475Y018595D01*
X002475Y018517D02*
X000785Y018517D01*
X000785Y018438D02*
X002475Y018438D01*
X002475Y018360D02*
X000785Y018360D01*
X000785Y018281D02*
X002475Y018281D01*
X002475Y018203D02*
X000785Y018203D01*
X000785Y018124D02*
X002475Y018124D01*
X002475Y018046D02*
X000785Y018046D01*
X000785Y017967D02*
X002475Y017967D01*
X002398Y017888D02*
X001415Y017888D01*
X001407Y017902D02*
X001381Y017928D01*
X001349Y017946D01*
X001313Y017956D01*
X001180Y017956D01*
X001180Y017551D01*
X001110Y017551D01*
X001110Y017481D01*
X000855Y017481D01*
X000855Y017198D01*
X000865Y017162D01*
X000883Y017130D01*
X000909Y017104D01*
X000941Y017086D01*
X000977Y017076D01*
X001110Y017076D01*
X001110Y017481D01*
X001180Y017481D01*
X001180Y017551D01*
X001435Y017551D01*
X001435Y017834D01*
X001425Y017870D01*
X001407Y017902D01*
X001435Y017810D02*
X002375Y017810D01*
X002375Y017731D02*
X001435Y017731D01*
X001435Y017653D02*
X002375Y017653D01*
X002375Y017574D02*
X001435Y017574D01*
X001435Y017481D02*
X001180Y017481D01*
X001180Y017076D01*
X001313Y017076D01*
X001349Y017086D01*
X001381Y017104D01*
X001407Y017130D01*
X001425Y017162D01*
X001435Y017198D01*
X001435Y017481D01*
X001435Y017417D02*
X002375Y017417D01*
X002375Y017339D02*
X001435Y017339D01*
X001435Y017260D02*
X002375Y017260D01*
X002375Y017182D02*
X001431Y017182D01*
X001379Y017103D02*
X002438Y017103D01*
X002375Y017496D02*
X001180Y017496D01*
X001110Y017496D02*
X000785Y017496D01*
X000785Y017574D02*
X000855Y017574D01*
X000855Y017551D02*
X001110Y017551D01*
X001110Y017956D01*
X000977Y017956D01*
X000941Y017946D01*
X000909Y017928D01*
X000883Y017902D01*
X000865Y017870D01*
X000855Y017834D01*
X000855Y017551D01*
X000855Y017653D02*
X000785Y017653D01*
X000785Y017731D02*
X000855Y017731D01*
X000855Y017810D02*
X000785Y017810D01*
X000785Y017888D02*
X000875Y017888D01*
X001110Y017888D02*
X001180Y017888D01*
X001180Y017810D02*
X001110Y017810D01*
X001110Y017731D02*
X001180Y017731D01*
X001180Y017653D02*
X001110Y017653D01*
X001110Y017574D02*
X001180Y017574D01*
X001180Y017417D02*
X001110Y017417D01*
X001110Y017339D02*
X001180Y017339D01*
X001180Y017260D02*
X001110Y017260D01*
X001110Y017182D02*
X001180Y017182D01*
X001180Y017103D02*
X001110Y017103D01*
X001235Y016961D02*
X001187Y016913D01*
X001146Y016857D01*
X001115Y016796D01*
X001094Y016730D01*
X001084Y016668D01*
X001480Y016668D01*
X001480Y016588D01*
X001560Y016588D01*
X001560Y016192D01*
X001622Y016202D01*
X001688Y016223D01*
X001749Y016255D01*
X001805Y016295D01*
X001853Y016344D01*
X001894Y016399D01*
X001925Y016460D01*
X001946Y016526D01*
X001956Y016588D01*
X001560Y016588D01*
X001560Y016668D01*
X001956Y016668D01*
X001946Y016730D01*
X001925Y016796D01*
X001894Y016857D01*
X001853Y016913D01*
X001805Y016961D01*
X001749Y017002D01*
X001688Y017033D01*
X001622Y017054D01*
X001560Y017064D01*
X001560Y016668D01*
X001480Y016668D01*
X001480Y017064D01*
X001418Y017054D01*
X001352Y017033D01*
X001291Y017002D01*
X001235Y016961D01*
X001220Y016946D02*
X000785Y016946D01*
X000785Y017024D02*
X001336Y017024D01*
X001480Y017024D02*
X001560Y017024D01*
X001560Y016946D02*
X001480Y016946D01*
X001480Y016867D02*
X001560Y016867D01*
X001560Y016789D02*
X001480Y016789D01*
X001480Y016710D02*
X001560Y016710D01*
X001560Y016632D02*
X003070Y016632D01*
X003070Y016710D02*
X001949Y016710D01*
X001927Y016789D02*
X003070Y016789D01*
X003070Y016867D02*
X001886Y016867D01*
X001820Y016946D02*
X003070Y016946D01*
X003070Y017024D02*
X001704Y017024D01*
X001480Y016632D02*
X000785Y016632D01*
X000785Y016710D02*
X001091Y016710D01*
X001113Y016789D02*
X000785Y016789D01*
X000785Y016867D02*
X001154Y016867D01*
X001084Y016588D02*
X001094Y016526D01*
X001115Y016460D01*
X001146Y016399D01*
X001187Y016344D01*
X001235Y016295D01*
X001291Y016255D01*
X001352Y016223D01*
X001418Y016202D01*
X001480Y016192D01*
X001480Y016588D01*
X001084Y016588D01*
X001090Y016553D02*
X000785Y016553D01*
X000785Y016475D02*
X001111Y016475D01*
X001149Y016396D02*
X000785Y016396D01*
X000785Y016318D02*
X001213Y016318D01*
X001322Y016239D02*
X000785Y016239D01*
X000785Y016160D02*
X002113Y016160D01*
X002109Y016156D02*
X002109Y015899D01*
X002109Y015643D01*
X002109Y015389D01*
X002109Y015155D01*
X002098Y015137D01*
X002089Y015101D01*
X002089Y015004D01*
X002089Y014907D01*
X002098Y014871D01*
X002117Y014839D01*
X002136Y014820D01*
X002118Y014778D01*
X002118Y014679D01*
X002156Y014588D01*
X002226Y014518D01*
X002317Y014480D01*
X002416Y014480D01*
X002507Y014518D01*
X002577Y014588D01*
X002615Y014679D01*
X002615Y014778D01*
X002612Y014785D01*
X002671Y014785D01*
X002671Y015004D01*
X002089Y015004D01*
X002671Y015004D01*
X002671Y015004D01*
X002672Y015004D01*
X002672Y015004D01*
X003254Y015004D01*
X003254Y014907D01*
X003245Y014871D01*
X003227Y014839D01*
X003200Y014813D01*
X003169Y014795D01*
X003133Y014785D01*
X002672Y014785D01*
X002672Y015004D01*
X003254Y015004D01*
X003254Y015101D01*
X003245Y015137D01*
X003234Y015155D01*
X003234Y015186D01*
X003450Y014971D01*
X003494Y014971D01*
X003494Y014875D01*
X003564Y014804D01*
X004057Y014804D01*
X004127Y014875D01*
X004127Y015407D01*
X004057Y015477D01*
X003564Y015477D01*
X003494Y015407D01*
X003315Y015586D01*
X003299Y015602D01*
X003456Y015602D01*
X003596Y015602D01*
X003674Y015679D01*
X004057Y015679D01*
X004127Y015750D01*
X004127Y016282D01*
X004057Y016352D01*
X003564Y016352D01*
X003494Y016282D01*
X003494Y015980D01*
X003456Y015942D01*
X003354Y015942D01*
X003470Y016058D01*
X003470Y016224D01*
X003470Y016629D01*
X003482Y016608D01*
X003508Y016582D01*
X003540Y016564D01*
X003575Y016554D01*
X003770Y016554D01*
X003770Y016851D01*
X003850Y016851D01*
X003850Y016554D01*
X004045Y016554D01*
X004081Y016564D01*
X004113Y016582D01*
X004139Y016608D01*
X004154Y016634D01*
X004213Y016574D01*
X004746Y016574D01*
X004816Y016644D01*
X004816Y016721D01*
X004950Y016721D01*
X005225Y016446D01*
X005225Y016306D01*
X005204Y016314D01*
X005086Y016314D01*
X004976Y016269D01*
X004893Y016186D01*
X004796Y016186D01*
X004796Y016282D01*
X004726Y016352D01*
X004233Y016352D01*
X004163Y016282D01*
X004163Y015750D01*
X004233Y015679D01*
X004726Y015679D01*
X004796Y015750D01*
X004796Y015846D01*
X004893Y015846D01*
X004976Y015763D01*
X005086Y015718D01*
X005204Y015718D01*
X005314Y015763D01*
X005398Y015847D01*
X005443Y015957D01*
X005443Y015977D01*
X005581Y015839D01*
X005575Y015827D01*
X005565Y015792D01*
X005565Y015683D01*
X005945Y015683D01*
X005945Y015663D01*
X005565Y015663D01*
X005565Y015555D01*
X005572Y015528D01*
X005558Y015528D01*
X005417Y015528D01*
X005200Y015311D01*
X004796Y015311D01*
X004796Y015407D01*
X004726Y015477D01*
X004233Y015477D01*
X004163Y015407D01*
X004163Y014875D01*
X004233Y014804D01*
X004726Y014804D01*
X004796Y014875D01*
X004796Y014971D01*
X005200Y014971D01*
X005340Y014971D01*
X005558Y015189D01*
X005585Y015189D01*
X005585Y014894D01*
X005593Y014886D01*
X005585Y014878D01*
X005585Y014584D01*
X005472Y014584D01*
X005325Y014436D01*
X004816Y014436D01*
X004816Y014513D01*
X004746Y014583D01*
X004213Y014583D01*
X004154Y014523D01*
X004139Y014549D01*
X004113Y014575D01*
X004081Y014593D01*
X004045Y014603D01*
X003850Y014603D01*
X003850Y014306D01*
X003770Y014306D01*
X003770Y014226D01*
X003454Y014226D01*
X003454Y014051D01*
X003463Y014015D01*
X003482Y013983D01*
X003508Y013957D01*
X003540Y013939D01*
X003575Y013929D01*
X003770Y013929D01*
X003770Y014226D01*
X003850Y014226D01*
X003850Y013929D01*
X004045Y013929D01*
X004081Y013939D01*
X004113Y013957D01*
X004139Y013983D01*
X004154Y014009D01*
X004213Y013949D01*
X004746Y013949D01*
X004816Y014019D01*
X004816Y014096D01*
X005465Y014096D01*
X005565Y014196D01*
X005609Y014240D01*
X005655Y014194D01*
X006255Y014194D01*
X006305Y014244D01*
X007177Y014244D01*
X007205Y014216D01*
X007183Y014216D01*
X007183Y013836D01*
X007163Y013836D01*
X007163Y014216D01*
X007054Y014216D01*
X007019Y014206D01*
X007000Y014196D01*
X006708Y014196D01*
X006700Y014188D01*
X006692Y014196D01*
X006393Y014196D01*
X006323Y014126D01*
X006323Y013996D01*
X005025Y013996D01*
X004885Y013996D01*
X004596Y013708D01*
X004213Y013708D01*
X004154Y013648D01*
X004139Y013674D01*
X004113Y013700D01*
X004081Y013718D01*
X004045Y013728D01*
X003850Y013728D01*
X003850Y013431D01*
X003770Y013431D01*
X003770Y013351D01*
X003454Y013351D01*
X003454Y013176D01*
X002915Y013176D01*
X002915Y013166D02*
X002915Y013866D01*
X002845Y013936D01*
X002445Y013936D01*
X002375Y013866D01*
X002375Y013166D01*
X002445Y013096D01*
X002475Y013096D01*
X002475Y011936D01*
X002445Y011936D01*
X002375Y011866D01*
X002375Y011166D01*
X002445Y011096D01*
X002700Y011096D01*
X002850Y010946D01*
X002950Y010846D01*
X012200Y010846D01*
X012340Y010846D01*
X012715Y011221D01*
X012815Y011321D01*
X012815Y012556D01*
X012923Y012601D01*
X013060Y012738D01*
X013135Y012919D01*
X013135Y013113D01*
X013060Y013294D01*
X012923Y013431D01*
X012742Y013506D01*
X012548Y013506D01*
X012367Y013431D01*
X012230Y013294D01*
X012155Y013113D01*
X012155Y012919D01*
X012230Y012738D01*
X012367Y012601D01*
X012475Y012556D01*
X012475Y011461D01*
X012200Y011186D01*
X012180Y011186D01*
X012215Y011221D01*
X012315Y011321D01*
X012315Y011764D01*
X012398Y011847D01*
X012443Y011957D01*
X012443Y012075D01*
X012398Y012185D01*
X012314Y012269D01*
X012204Y012314D01*
X012086Y012314D01*
X011976Y012269D01*
X011892Y012185D01*
X011847Y012075D01*
X011847Y011957D01*
X011892Y011847D01*
X011975Y011764D01*
X011975Y011461D01*
X011950Y011436D01*
X010482Y011436D01*
X010482Y011551D01*
X010743Y011551D01*
X010743Y011514D01*
X010813Y011443D01*
X011227Y011443D01*
X011297Y011514D01*
X011297Y011928D01*
X011227Y011998D01*
X010813Y011998D01*
X010743Y011928D01*
X010743Y011891D01*
X010482Y011891D01*
X010482Y011928D01*
X010411Y011998D01*
X009940Y011998D01*
X009940Y012034D01*
X010411Y012034D01*
X010482Y012104D01*
X010482Y012597D01*
X010411Y012667D01*
X010234Y012667D01*
X010215Y012686D01*
X009943Y012958D01*
X009943Y013075D01*
X009898Y013185D01*
X009814Y013269D01*
X009704Y013314D01*
X009586Y013314D01*
X009476Y013269D01*
X009392Y013185D01*
X009347Y013075D01*
X009347Y012957D01*
X009392Y012847D01*
X009476Y012763D01*
X009586Y012718D01*
X009703Y012718D01*
X009816Y012605D01*
X009809Y012597D01*
X009809Y012468D01*
X009756Y012521D01*
X009615Y012521D01*
X009607Y012521D01*
X009607Y012597D01*
X009536Y012667D01*
X009004Y012667D01*
X008934Y012597D01*
X008934Y012104D01*
X009004Y012034D01*
X009536Y012034D01*
X009600Y012098D01*
X009600Y011934D01*
X009536Y011998D01*
X009004Y011998D01*
X008934Y011928D01*
X008934Y011891D01*
X008672Y011891D01*
X008672Y011928D01*
X008602Y011998D01*
X008188Y011998D01*
X008118Y011928D01*
X008118Y011514D01*
X008188Y011443D01*
X008602Y011443D01*
X008672Y011514D01*
X008672Y011551D01*
X008934Y011551D01*
X008934Y011435D01*
X009004Y011364D01*
X009536Y011364D01*
X009600Y011428D01*
X009600Y011321D01*
X009725Y011196D01*
X009735Y011186D01*
X005973Y011186D01*
X006005Y011218D01*
X006005Y011869D01*
X005935Y011939D01*
X005087Y011939D01*
X005017Y011869D01*
X005017Y011218D01*
X005049Y011186D01*
X004241Y011186D01*
X004273Y011218D01*
X004273Y011471D01*
X004465Y011471D01*
X004565Y011571D01*
X004690Y011696D01*
X004690Y011836D01*
X004690Y013074D01*
X004746Y013074D01*
X004816Y013144D01*
X004816Y013447D01*
X005025Y013656D01*
X006323Y013656D01*
X006323Y013526D01*
X006393Y013456D01*
X006688Y013456D01*
X006688Y012687D01*
X006398Y012687D01*
X006370Y012658D01*
X006005Y012658D01*
X006005Y012814D01*
X005935Y012884D01*
X005087Y012884D01*
X005017Y012814D01*
X005017Y012163D01*
X005087Y012093D01*
X005935Y012093D01*
X006005Y012163D01*
X006005Y012318D01*
X006328Y012318D01*
X006328Y012084D01*
X006388Y012025D01*
X006362Y012010D01*
X006336Y011984D01*
X006318Y011952D01*
X006308Y011916D01*
X006308Y011721D01*
X006605Y011721D01*
X006605Y011641D01*
X006685Y011641D01*
X006685Y011325D01*
X006860Y011325D01*
X006896Y011334D01*
X006928Y011353D01*
X006954Y011379D01*
X006972Y011411D01*
X006982Y011446D01*
X006982Y011641D01*
X006685Y011641D01*
X006685Y011721D01*
X006982Y011721D01*
X006982Y011916D01*
X006972Y011952D01*
X006954Y011984D01*
X006928Y012010D01*
X006902Y012025D01*
X006962Y012084D01*
X006962Y012463D01*
X006983Y012488D01*
X007028Y012532D01*
X007028Y012540D01*
X007033Y012547D01*
X007028Y012610D01*
X007028Y013443D01*
X007054Y013436D01*
X007163Y013436D01*
X007163Y013816D01*
X007183Y013816D01*
X007183Y013436D01*
X007291Y013436D01*
X007318Y013443D01*
X007318Y013353D01*
X007475Y013196D01*
X007475Y012961D01*
X007450Y012936D01*
X007350Y012836D01*
X007350Y012687D01*
X007273Y012687D01*
X007203Y012617D01*
X007203Y012084D01*
X007263Y012025D01*
X007237Y012010D01*
X007211Y011984D01*
X007193Y011952D01*
X007183Y011916D01*
X007183Y011721D01*
X007480Y011721D01*
X007480Y011641D01*
X007560Y011641D01*
X007560Y011325D01*
X007735Y011325D01*
X007771Y011334D01*
X007803Y011353D01*
X007829Y011379D01*
X007847Y011411D01*
X007857Y011446D01*
X007857Y011641D01*
X007560Y011641D01*
X007560Y011721D01*
X007857Y011721D01*
X007857Y011916D01*
X007847Y011952D01*
X007829Y011984D01*
X007803Y012010D01*
X007777Y012025D01*
X007837Y012084D01*
X007837Y012141D01*
X008118Y012141D01*
X008118Y012104D01*
X008188Y012034D01*
X008602Y012034D01*
X008672Y012104D01*
X008672Y012518D01*
X008602Y012589D01*
X008565Y012589D01*
X008565Y012696D01*
X009215Y013346D01*
X010450Y013346D01*
X010850Y012946D01*
X010850Y012589D01*
X010813Y012589D01*
X010743Y012518D01*
X010743Y012104D01*
X010813Y012034D01*
X011227Y012034D01*
X011297Y012104D01*
X011297Y012518D01*
X011227Y012589D01*
X011190Y012589D01*
X011190Y012946D01*
X011190Y013086D01*
X010690Y013586D01*
X010620Y013656D01*
X012312Y013656D01*
X012367Y013601D01*
X012548Y013526D01*
X012742Y013526D01*
X012923Y013601D01*
X013060Y013738D01*
X013135Y013919D01*
X013135Y014113D01*
X013060Y014294D01*
X012923Y014431D01*
X012742Y014506D01*
X012548Y014506D01*
X012367Y014431D01*
X012230Y014294D01*
X012155Y014113D01*
X012155Y013996D01*
X010365Y013996D01*
X010440Y014071D01*
X010468Y014099D01*
X010471Y014096D01*
X010819Y014096D01*
X011065Y014342D01*
X011065Y014690D01*
X010909Y014846D01*
X011353Y014846D01*
X011205Y014698D01*
X011205Y014556D01*
X011605Y014556D01*
X011605Y014476D01*
X011205Y014476D01*
X011205Y014334D01*
X011463Y014076D01*
X011605Y014076D01*
X011605Y014476D01*
X011685Y014476D01*
X011685Y014556D01*
X012085Y014556D01*
X012085Y014698D01*
X011937Y014846D01*
X012185Y014846D01*
X012230Y014738D01*
X012367Y014601D01*
X012548Y014526D01*
X012742Y014526D01*
X012923Y014601D01*
X013060Y014738D01*
X013135Y014919D01*
X013135Y015113D01*
X013060Y015294D01*
X012923Y015431D01*
X012742Y015506D01*
X012548Y015506D01*
X012367Y015431D01*
X012230Y015294D01*
X012185Y015186D01*
X011909Y015186D01*
X012065Y015342D01*
X012065Y015690D01*
X011819Y015936D01*
X011471Y015936D01*
X011468Y015933D01*
X011215Y016186D01*
X011075Y016186D01*
X011065Y016186D01*
X011065Y016866D01*
X010995Y016936D01*
X010465Y016936D01*
X010025Y017376D01*
X009885Y017376D01*
X008967Y017376D01*
X008967Y017471D01*
X009700Y017471D01*
X009840Y017471D01*
X010087Y017718D01*
X010204Y017718D01*
X010314Y017763D01*
X010398Y017847D01*
X010443Y017957D01*
X010443Y018075D01*
X010398Y018185D01*
X010314Y018269D01*
X010204Y018314D01*
X010086Y018314D01*
X009976Y018269D01*
X009895Y018188D01*
X009814Y018269D01*
X009704Y018314D01*
X009586Y018314D01*
X009476Y018269D01*
X009393Y018186D01*
X008450Y018186D01*
X008350Y018086D01*
X007972Y017709D01*
X007972Y017853D01*
X008337Y018218D01*
X008454Y018218D01*
X008564Y018263D01*
X008645Y018344D01*
X008726Y018263D01*
X008836Y018218D01*
X008954Y018218D01*
X009064Y018263D01*
X009147Y018346D01*
X009450Y018346D01*
X009590Y018346D01*
X009609Y018364D01*
X009911Y018364D01*
X009982Y018435D01*
X009982Y018772D01*
X010062Y018691D01*
X010232Y018521D01*
X010368Y018521D01*
X010368Y018514D01*
X010438Y018443D01*
X010685Y018443D01*
X011445Y017683D01*
X011445Y016910D01*
X011225Y016690D01*
X011225Y016342D01*
X011471Y016096D01*
X011782Y016096D01*
X012062Y015816D01*
X012198Y015816D01*
X012230Y015738D01*
X012367Y015601D01*
X012548Y015526D01*
X012742Y015526D01*
X012923Y015601D01*
X013060Y015738D01*
X013135Y015919D01*
X013135Y016113D01*
X013060Y016294D01*
X012923Y016431D01*
X012742Y016506D01*
X012548Y016506D01*
X012367Y016431D01*
X012230Y016294D01*
X012206Y016237D01*
X012065Y016379D01*
X012065Y016690D01*
X011845Y016910D01*
X011845Y017849D01*
X011728Y017966D01*
X010922Y018771D01*
X010922Y018928D01*
X010852Y018998D01*
X010438Y018998D01*
X010379Y018940D01*
X010345Y018974D01*
X010345Y019224D01*
X010228Y019341D01*
X010018Y019551D01*
X009982Y019551D01*
X009982Y019597D01*
X009911Y019667D01*
X009379Y019667D01*
X009309Y019597D01*
X009309Y019551D01*
X006482Y019551D01*
X006482Y019597D01*
X006411Y019667D01*
X005879Y019667D01*
X005809Y019597D01*
X005809Y019551D01*
X005522Y019551D01*
X005405Y019433D01*
X004816Y018845D01*
X004816Y018888D01*
X004746Y018958D01*
X004213Y018958D01*
X004154Y018898D01*
X004139Y018924D01*
X004113Y018950D01*
X004081Y018968D01*
X004045Y018978D01*
X003850Y018978D01*
X003850Y018681D01*
X003770Y018681D01*
X003770Y018601D01*
X003454Y018601D01*
X003454Y018426D01*
X003463Y018390D01*
X003482Y018358D01*
X003508Y018332D01*
X003540Y018314D01*
X003575Y018304D01*
X003770Y018304D01*
X003770Y018601D01*
X003850Y018601D01*
X003850Y018304D01*
X004045Y018304D01*
X004081Y018314D01*
X004113Y018332D01*
X004139Y018358D01*
X004154Y018384D01*
X004213Y018324D01*
X004280Y018324D01*
X004280Y018102D01*
X004233Y018102D01*
X004163Y018032D01*
X004163Y017500D01*
X004233Y017429D01*
X004726Y017429D01*
X004796Y017500D01*
X004796Y017596D01*
X005839Y017596D01*
X006110Y017325D01*
X006110Y016838D01*
X005813Y016838D01*
X005693Y016958D01*
X005693Y017075D01*
X005648Y017185D01*
X005564Y017269D01*
X005454Y017314D01*
X005336Y017314D01*
X005226Y017269D01*
X005142Y017185D01*
X005097Y017075D01*
X005097Y017055D01*
X005090Y017061D01*
X004816Y017061D01*
X004816Y017138D01*
X004746Y017208D01*
X004213Y017208D01*
X004154Y017148D01*
X004139Y017174D01*
X004113Y017200D01*
X004081Y017218D01*
X004045Y017228D01*
X003850Y017228D01*
X003850Y016931D01*
X003770Y016931D01*
X003770Y017228D01*
X003575Y017228D01*
X003540Y017218D01*
X003508Y017200D01*
X003482Y017174D01*
X003470Y017153D01*
X003470Y017558D01*
X003478Y017566D01*
X003494Y017566D01*
X003494Y017500D01*
X003564Y017429D01*
X004057Y017429D01*
X004127Y017500D01*
X004127Y018032D01*
X004057Y018102D01*
X003564Y018102D01*
X003494Y018032D01*
X003494Y017966D01*
X003312Y017966D01*
X003195Y017849D01*
X003070Y017724D01*
X003070Y017558D01*
X003070Y016228D01*
X002604Y016228D01*
X002615Y016254D01*
X002615Y016353D01*
X002577Y016444D01*
X002507Y016514D01*
X002416Y016552D01*
X002317Y016552D01*
X002226Y016514D01*
X002156Y016444D01*
X002118Y016353D01*
X002118Y016254D01*
X002144Y016192D01*
X002109Y016156D01*
X002109Y016082D02*
X000785Y016082D01*
X000785Y016003D02*
X001090Y016003D01*
X001096Y016010D02*
X001026Y015940D01*
X001026Y015092D01*
X001096Y015022D01*
X001944Y015022D01*
X002014Y015092D01*
X002014Y015940D01*
X001944Y016010D01*
X001096Y016010D01*
X001026Y015925D02*
X000785Y015925D01*
X000785Y015846D02*
X001026Y015846D01*
X001026Y015768D02*
X000785Y015768D01*
X000785Y015689D02*
X001026Y015689D01*
X001026Y015611D02*
X000785Y015611D01*
X000785Y015532D02*
X001026Y015532D01*
X001026Y015454D02*
X000785Y015454D01*
X000785Y015375D02*
X001026Y015375D01*
X001026Y015296D02*
X000785Y015296D01*
X000785Y015218D02*
X001026Y015218D01*
X001026Y015139D02*
X000785Y015139D01*
X000785Y015061D02*
X001057Y015061D01*
X000785Y014982D02*
X002089Y014982D01*
X002090Y014904D02*
X000785Y014904D01*
X000785Y014825D02*
X001404Y014825D01*
X001418Y014830D02*
X001352Y014809D01*
X001291Y014777D01*
X001235Y014737D01*
X001187Y014688D01*
X001146Y014633D01*
X001115Y014571D01*
X001094Y014506D01*
X001084Y014444D01*
X001480Y014444D01*
X001480Y014840D01*
X001418Y014830D01*
X001480Y014825D02*
X001560Y014825D01*
X001560Y014840D02*
X001560Y014444D01*
X001480Y014444D01*
X001480Y014364D01*
X001084Y014364D01*
X001094Y014301D01*
X001115Y014236D01*
X001146Y014175D01*
X001187Y014119D01*
X001235Y014071D01*
X001291Y014030D01*
X001352Y013999D01*
X001418Y013978D01*
X001480Y013968D01*
X001480Y014364D01*
X001560Y014364D01*
X001560Y014444D01*
X001956Y014444D01*
X001946Y014506D01*
X001925Y014571D01*
X001894Y014633D01*
X001853Y014688D01*
X001805Y014737D01*
X001749Y014777D01*
X001688Y014809D01*
X001622Y014830D01*
X001560Y014840D01*
X001636Y014825D02*
X002131Y014825D01*
X002118Y014747D02*
X001791Y014747D01*
X001868Y014668D02*
X002123Y014668D01*
X002155Y014590D02*
X001916Y014590D01*
X001944Y014511D02*
X002243Y014511D01*
X002490Y014511D02*
X003462Y014511D01*
X003463Y014517D02*
X003454Y014481D01*
X003454Y014306D01*
X003770Y014306D01*
X003770Y014603D01*
X003575Y014603D01*
X003540Y014593D01*
X003508Y014575D01*
X003482Y014549D01*
X003463Y014517D01*
X003454Y014433D02*
X001560Y014433D01*
X001560Y014364D02*
X001956Y014364D01*
X001946Y014301D01*
X001925Y014236D01*
X001894Y014175D01*
X001853Y014119D01*
X001805Y014071D01*
X001749Y014030D01*
X001688Y013999D01*
X001622Y013978D01*
X001560Y013968D01*
X001560Y014364D01*
X001560Y014354D02*
X001480Y014354D01*
X001480Y014433D02*
X000785Y014433D01*
X000785Y014511D02*
X001096Y014511D01*
X001124Y014590D02*
X000785Y014590D01*
X000785Y014668D02*
X001172Y014668D01*
X001249Y014747D02*
X000785Y014747D01*
X000785Y014354D02*
X001086Y014354D01*
X001102Y014275D02*
X000785Y014275D01*
X000785Y014197D02*
X001135Y014197D01*
X001188Y014118D02*
X000785Y014118D01*
X000785Y014040D02*
X001278Y014040D01*
X001313Y013956D02*
X001180Y013956D01*
X001180Y013551D01*
X001110Y013551D01*
X001110Y013481D01*
X000855Y013481D01*
X000855Y013198D01*
X000865Y013162D01*
X000883Y013130D01*
X000909Y013104D01*
X000941Y013086D01*
X000977Y013076D01*
X001110Y013076D01*
X001110Y013481D01*
X001180Y013481D01*
X001180Y013551D01*
X001435Y013551D01*
X001435Y013834D01*
X001425Y013870D01*
X001407Y013902D01*
X001381Y013928D01*
X001349Y013946D01*
X001313Y013956D01*
X001418Y013883D02*
X002392Y013883D01*
X002375Y013804D02*
X001435Y013804D01*
X001435Y013726D02*
X002375Y013726D01*
X002375Y013647D02*
X001435Y013647D01*
X001435Y013569D02*
X002375Y013569D01*
X002375Y013490D02*
X001180Y013490D01*
X001180Y013481D02*
X001435Y013481D01*
X001435Y013198D01*
X001425Y013162D01*
X001407Y013130D01*
X001381Y013104D01*
X001349Y013086D01*
X001313Y013076D01*
X001180Y013076D01*
X001180Y013481D01*
X001180Y013411D02*
X001110Y013411D01*
X001110Y013333D02*
X001180Y013333D01*
X001180Y013254D02*
X001110Y013254D01*
X001110Y013176D02*
X001180Y013176D01*
X001180Y013097D02*
X001110Y013097D01*
X000921Y013097D02*
X000785Y013097D01*
X000785Y013019D02*
X002475Y013019D01*
X002475Y012940D02*
X000785Y012940D01*
X000785Y012862D02*
X002475Y012862D01*
X002475Y012783D02*
X000785Y012783D01*
X000785Y012705D02*
X002475Y012705D01*
X002475Y012626D02*
X000785Y012626D01*
X000785Y012547D02*
X002475Y012547D01*
X002475Y012469D02*
X000785Y012469D01*
X000785Y012390D02*
X002475Y012390D01*
X002475Y012312D02*
X000785Y012312D01*
X000785Y012233D02*
X002475Y012233D01*
X002475Y012155D02*
X000785Y012155D01*
X000785Y012076D02*
X002475Y012076D01*
X002475Y011998D02*
X000785Y011998D01*
X000785Y011919D02*
X000900Y011919D01*
X000909Y011928D02*
X000883Y011902D01*
X000865Y011870D01*
X000855Y011834D01*
X000855Y011551D01*
X001110Y011551D01*
X001110Y011481D01*
X000855Y011481D01*
X000855Y011198D01*
X000865Y011162D01*
X000883Y011130D01*
X000909Y011104D01*
X000941Y011086D01*
X000977Y011076D01*
X001110Y011076D01*
X001110Y011481D01*
X001180Y011481D01*
X001180Y011551D01*
X001110Y011551D01*
X001110Y011956D01*
X000977Y011956D01*
X000941Y011946D01*
X000909Y011928D01*
X000857Y011841D02*
X000785Y011841D01*
X000785Y011762D02*
X000855Y011762D01*
X000855Y011684D02*
X000785Y011684D01*
X000785Y011605D02*
X000855Y011605D01*
X000785Y011526D02*
X001110Y011526D01*
X001180Y011526D02*
X002375Y011526D01*
X002375Y011448D02*
X001435Y011448D01*
X001435Y011481D02*
X001180Y011481D01*
X001180Y011076D01*
X001313Y011076D01*
X001349Y011086D01*
X001381Y011104D01*
X001407Y011130D01*
X001425Y011162D01*
X001435Y011198D01*
X001435Y011481D01*
X001435Y011551D02*
X001435Y011834D01*
X001425Y011870D01*
X001407Y011902D01*
X001381Y011928D01*
X001349Y011946D01*
X001313Y011956D01*
X001180Y011956D01*
X001180Y011551D01*
X001435Y011551D01*
X001435Y011605D02*
X002375Y011605D01*
X002375Y011684D02*
X001435Y011684D01*
X001435Y011762D02*
X002375Y011762D01*
X002375Y011841D02*
X001433Y011841D01*
X001390Y011919D02*
X002429Y011919D01*
X002815Y011936D02*
X002815Y013096D01*
X002845Y013096D01*
X002915Y013166D01*
X002915Y013254D02*
X003454Y013254D01*
X003454Y013176D02*
X003463Y013140D01*
X003482Y013108D01*
X003508Y013082D01*
X003540Y013064D01*
X003575Y013054D01*
X003770Y013054D01*
X003770Y013351D01*
X003850Y013351D01*
X003850Y013054D01*
X004045Y013054D01*
X004081Y013064D01*
X004113Y013082D01*
X004139Y013108D01*
X004154Y013134D01*
X004213Y013074D01*
X004350Y013074D01*
X004350Y011836D01*
X004325Y011811D01*
X004273Y011811D01*
X004273Y011869D01*
X004203Y011939D01*
X003355Y011939D01*
X003285Y011869D01*
X003285Y011218D01*
X003317Y011186D01*
X003090Y011186D01*
X002915Y011361D01*
X002915Y011866D01*
X002845Y011936D01*
X002815Y011936D01*
X002862Y011919D02*
X003335Y011919D01*
X003285Y011841D02*
X002915Y011841D01*
X002915Y011762D02*
X003285Y011762D01*
X003285Y011684D02*
X002915Y011684D01*
X002915Y011605D02*
X003285Y011605D01*
X003285Y011526D02*
X002915Y011526D01*
X002915Y011448D02*
X003285Y011448D01*
X003285Y011369D02*
X002915Y011369D01*
X002986Y011291D02*
X003285Y011291D01*
X003291Y011212D02*
X003064Y011212D01*
X002898Y010898D02*
X000785Y010898D01*
X000785Y010820D02*
X013505Y010820D01*
X013505Y010898D02*
X012393Y010898D01*
X012471Y010977D02*
X013505Y010977D01*
X013505Y011055D02*
X012550Y011055D01*
X012628Y011134D02*
X013505Y011134D01*
X013505Y011212D02*
X012707Y011212D01*
X012785Y011291D02*
X013505Y011291D01*
X013505Y011369D02*
X012815Y011369D01*
X012815Y011448D02*
X013505Y011448D01*
X013505Y011526D02*
X012815Y011526D01*
X012815Y011605D02*
X013505Y011605D01*
X013505Y011684D02*
X012815Y011684D01*
X012815Y011762D02*
X013505Y011762D01*
X013505Y011841D02*
X012815Y011841D01*
X012815Y011919D02*
X013505Y011919D01*
X013505Y011998D02*
X012815Y011998D01*
X012815Y012076D02*
X013505Y012076D01*
X013505Y012155D02*
X012815Y012155D01*
X012815Y012233D02*
X013505Y012233D01*
X013505Y012312D02*
X012815Y012312D01*
X012815Y012390D02*
X013505Y012390D01*
X013505Y012469D02*
X012815Y012469D01*
X012815Y012547D02*
X013505Y012547D01*
X013505Y012626D02*
X012948Y012626D01*
X013027Y012705D02*
X013505Y012705D01*
X013505Y012783D02*
X013079Y012783D01*
X013111Y012862D02*
X013505Y012862D01*
X013505Y012940D02*
X013135Y012940D01*
X013135Y013019D02*
X013505Y013019D01*
X013505Y013097D02*
X013135Y013097D01*
X013109Y013176D02*
X013505Y013176D01*
X013505Y013254D02*
X013077Y013254D01*
X013021Y013333D02*
X013505Y013333D01*
X013505Y013411D02*
X012942Y013411D01*
X012781Y013490D02*
X013505Y013490D01*
X013505Y013569D02*
X012845Y013569D01*
X012969Y013647D02*
X013505Y013647D01*
X013505Y013726D02*
X013048Y013726D01*
X013088Y013804D02*
X013505Y013804D01*
X013505Y013883D02*
X013120Y013883D01*
X013135Y013961D02*
X013505Y013961D01*
X013505Y014040D02*
X013135Y014040D01*
X013133Y014118D02*
X013505Y014118D01*
X013505Y014197D02*
X013100Y014197D01*
X013068Y014275D02*
X013505Y014275D01*
X013505Y014354D02*
X013000Y014354D01*
X012920Y014433D02*
X013505Y014433D01*
X013505Y014511D02*
X011685Y014511D01*
X011685Y014476D02*
X012085Y014476D01*
X012085Y014334D01*
X011827Y014076D01*
X011685Y014076D01*
X011685Y014476D01*
X011685Y014433D02*
X011605Y014433D01*
X011605Y014511D02*
X011065Y014511D01*
X011065Y014433D02*
X011205Y014433D01*
X011205Y014354D02*
X011065Y014354D01*
X010998Y014275D02*
X011263Y014275D01*
X011342Y014197D02*
X010920Y014197D01*
X010841Y014118D02*
X011420Y014118D01*
X011605Y014118D02*
X011685Y014118D01*
X011685Y014197D02*
X011605Y014197D01*
X011605Y014275D02*
X011685Y014275D01*
X011685Y014354D02*
X011605Y014354D01*
X011870Y014118D02*
X012157Y014118D01*
X012155Y014040D02*
X010409Y014040D01*
X010629Y013647D02*
X012321Y013647D01*
X012445Y013569D02*
X010708Y013569D01*
X010786Y013490D02*
X012509Y013490D01*
X012348Y013411D02*
X010865Y013411D01*
X010943Y013333D02*
X012269Y013333D01*
X012213Y013254D02*
X011022Y013254D01*
X011101Y013176D02*
X012181Y013176D01*
X012155Y013097D02*
X011179Y013097D01*
X011190Y013019D02*
X012155Y013019D01*
X012155Y012940D02*
X011190Y012940D01*
X011190Y012862D02*
X012179Y012862D01*
X012211Y012783D02*
X011190Y012783D01*
X011190Y012705D02*
X012263Y012705D01*
X012342Y012626D02*
X011190Y012626D01*
X011268Y012547D02*
X012475Y012547D01*
X012475Y012469D02*
X011297Y012469D01*
X011297Y012390D02*
X012475Y012390D01*
X012475Y012312D02*
X012211Y012312D01*
X012080Y012312D02*
X011297Y012312D01*
X011297Y012233D02*
X011940Y012233D01*
X011880Y012155D02*
X011297Y012155D01*
X011270Y012076D02*
X011847Y012076D01*
X011847Y011998D02*
X011228Y011998D01*
X011297Y011919D02*
X011862Y011919D01*
X011898Y011841D02*
X011297Y011841D01*
X011297Y011762D02*
X011975Y011762D01*
X011975Y011684D02*
X011297Y011684D01*
X011297Y011605D02*
X011975Y011605D01*
X011975Y011526D02*
X011297Y011526D01*
X011232Y011448D02*
X011962Y011448D01*
X012207Y011212D02*
X012226Y011212D01*
X012285Y011291D02*
X012304Y011291D01*
X012315Y011369D02*
X012383Y011369D01*
X012315Y011448D02*
X012462Y011448D01*
X012475Y011526D02*
X012315Y011526D01*
X012315Y011605D02*
X012475Y011605D01*
X012475Y011684D02*
X012315Y011684D01*
X012315Y011762D02*
X012475Y011762D01*
X012475Y011841D02*
X012392Y011841D01*
X012428Y011919D02*
X012475Y011919D01*
X012475Y011998D02*
X012443Y011998D01*
X012443Y012076D02*
X012475Y012076D01*
X012475Y012155D02*
X012411Y012155D01*
X012350Y012233D02*
X012475Y012233D01*
X013505Y010741D02*
X000785Y010741D01*
X000785Y010662D02*
X013505Y010662D01*
X013505Y010391D02*
X013505Y000906D01*
X000785Y000906D01*
X000785Y010391D01*
X013505Y010391D01*
X013505Y010348D02*
X000785Y010348D01*
X000785Y010270D02*
X013505Y010270D01*
X013505Y010191D02*
X000785Y010191D01*
X000785Y010113D02*
X002945Y010113D01*
X002976Y010144D02*
X002892Y010060D01*
X002878Y010027D01*
X002845Y010061D01*
X002445Y010061D01*
X002375Y009991D01*
X002375Y009291D01*
X002445Y009221D01*
X002475Y009221D01*
X002475Y008061D01*
X002445Y008061D01*
X002375Y007991D01*
X002375Y007291D01*
X002445Y007221D01*
X002845Y007221D01*
X002915Y007291D01*
X002915Y007991D01*
X002845Y008061D01*
X002815Y008061D01*
X002815Y009221D01*
X002845Y009221D01*
X002915Y009291D01*
X002915Y009471D01*
X002965Y009471D01*
X003087Y009593D01*
X003204Y009593D01*
X003314Y009638D01*
X003398Y009722D01*
X003443Y009832D01*
X003443Y009950D01*
X003398Y010060D01*
X003314Y010144D01*
X003204Y010189D01*
X003086Y010189D01*
X002976Y010144D01*
X002881Y010034D02*
X002872Y010034D01*
X003057Y009563D02*
X004334Y009563D01*
X004328Y009578D02*
X004376Y009461D01*
X004466Y009372D01*
X004582Y009324D01*
X004708Y009324D01*
X004824Y009372D01*
X004914Y009461D01*
X004962Y009578D01*
X004962Y009704D01*
X004914Y009820D01*
X004824Y009910D01*
X004708Y009958D01*
X004582Y009958D01*
X004466Y009910D01*
X004376Y009820D01*
X004328Y009704D01*
X004328Y009578D01*
X004328Y009641D02*
X003317Y009641D01*
X003396Y009720D02*
X004335Y009720D01*
X004367Y009798D02*
X003430Y009798D01*
X003443Y009877D02*
X004433Y009877D01*
X004577Y009956D02*
X003441Y009956D01*
X003409Y010034D02*
X013505Y010034D01*
X013505Y009956D02*
X012714Y009956D01*
X012708Y009958D02*
X012582Y009958D01*
X012466Y009910D01*
X012376Y009820D01*
X012328Y009704D01*
X012328Y009578D01*
X012376Y009461D01*
X012466Y009372D01*
X012582Y009324D01*
X012708Y009324D01*
X012824Y009372D01*
X012914Y009461D01*
X012962Y009578D01*
X012962Y009704D01*
X012914Y009820D01*
X012824Y009910D01*
X012708Y009958D01*
X012577Y009956D02*
X004714Y009956D01*
X004857Y009877D02*
X012433Y009877D01*
X012367Y009798D02*
X004923Y009798D01*
X004955Y009720D02*
X005809Y009720D01*
X005809Y009722D02*
X005809Y009676D01*
X005688Y009676D01*
X005522Y009676D01*
X004816Y008970D01*
X004816Y009013D01*
X004859Y009013D01*
X004816Y009013D02*
X004746Y009083D01*
X004213Y009083D01*
X004154Y009023D01*
X004139Y009049D01*
X004113Y009075D01*
X004081Y009093D01*
X004045Y009103D01*
X003850Y009103D01*
X003850Y008806D01*
X003770Y008806D01*
X003770Y008726D01*
X003454Y008726D01*
X003454Y008551D01*
X003463Y008515D01*
X003482Y008483D01*
X003508Y008457D01*
X003540Y008439D01*
X003575Y008429D01*
X003770Y008429D01*
X003770Y008726D01*
X003850Y008726D01*
X003850Y008429D01*
X004045Y008429D01*
X004081Y008439D01*
X004113Y008457D01*
X004139Y008483D01*
X004154Y008509D01*
X004213Y008449D01*
X004280Y008449D01*
X004280Y008227D01*
X004233Y008227D01*
X004163Y008157D01*
X004163Y007625D01*
X004233Y007554D01*
X004726Y007554D01*
X004796Y007625D01*
X004796Y007721D01*
X005839Y007721D01*
X006110Y007450D01*
X006110Y006963D01*
X005813Y006963D01*
X005693Y007083D01*
X005693Y007200D01*
X005648Y007310D01*
X005564Y007394D01*
X005454Y007439D01*
X005336Y007439D01*
X005226Y007394D01*
X005142Y007310D01*
X005097Y007200D01*
X005097Y007180D01*
X005090Y007186D01*
X004816Y007186D01*
X004816Y007263D01*
X004746Y007333D01*
X004213Y007333D01*
X004154Y007273D01*
X004139Y007299D01*
X004113Y007325D01*
X004081Y007343D01*
X004045Y007353D01*
X003850Y007353D01*
X003850Y007056D01*
X003770Y007056D01*
X003770Y007353D01*
X003575Y007353D01*
X003540Y007343D01*
X003508Y007325D01*
X003482Y007299D01*
X003470Y007278D01*
X003470Y007683D01*
X003478Y007691D01*
X003494Y007691D01*
X003494Y007625D01*
X003564Y007554D01*
X004057Y007554D01*
X004127Y007625D01*
X004127Y008157D01*
X004057Y008227D01*
X003564Y008227D01*
X003494Y008157D01*
X003494Y008091D01*
X003312Y008091D01*
X003195Y007974D01*
X003070Y007849D01*
X003070Y007683D01*
X003070Y006353D01*
X002604Y006353D01*
X002615Y006379D01*
X002615Y006478D01*
X002577Y006569D01*
X002507Y006639D01*
X002416Y006677D01*
X002317Y006677D01*
X002226Y006639D01*
X002156Y006569D01*
X002118Y006478D01*
X002118Y006379D01*
X002144Y006317D01*
X002109Y006281D01*
X002109Y006024D01*
X002109Y005768D01*
X002109Y005514D01*
X002109Y005280D01*
X002098Y005262D01*
X002089Y005226D01*
X002089Y005129D01*
X002089Y005032D01*
X002098Y004996D01*
X002117Y004964D01*
X002136Y004945D01*
X002118Y004903D01*
X002118Y004804D01*
X002156Y004713D01*
X002226Y004643D01*
X002317Y004605D01*
X002416Y004605D01*
X002507Y004643D01*
X002577Y004713D01*
X002615Y004804D01*
X002615Y004903D01*
X002612Y004910D01*
X002671Y004910D01*
X002671Y005129D01*
X002089Y005129D01*
X002671Y005129D01*
X002671Y005129D01*
X002672Y005129D01*
X002672Y005129D01*
X003254Y005129D01*
X003254Y005032D01*
X003245Y004996D01*
X003227Y004964D01*
X003200Y004938D01*
X003169Y004920D01*
X003133Y004910D01*
X002672Y004910D01*
X002672Y005129D01*
X003254Y005129D01*
X003254Y005226D01*
X003245Y005262D01*
X003234Y005280D01*
X003234Y005311D01*
X003450Y005096D01*
X003494Y005096D01*
X003494Y005000D01*
X003564Y004929D01*
X004057Y004929D01*
X004127Y005000D01*
X004127Y005532D01*
X004057Y005602D01*
X003564Y005602D01*
X003494Y005532D01*
X003315Y005711D01*
X003299Y005727D01*
X003456Y005727D01*
X003596Y005727D01*
X003674Y005804D01*
X004057Y005804D01*
X004127Y005875D01*
X004127Y006407D01*
X004057Y006477D01*
X003564Y006477D01*
X003494Y006407D01*
X003494Y006105D01*
X003456Y006067D01*
X003354Y006067D01*
X003470Y006183D01*
X003470Y006349D01*
X003470Y006754D01*
X003482Y006733D01*
X003508Y006707D01*
X003540Y006689D01*
X003575Y006679D01*
X003770Y006679D01*
X003770Y006976D01*
X003850Y006976D01*
X003850Y006679D01*
X004045Y006679D01*
X004081Y006689D01*
X004113Y006707D01*
X004139Y006733D01*
X004154Y006759D01*
X004213Y006699D01*
X004746Y006699D01*
X004816Y006769D01*
X004816Y006846D01*
X004950Y006846D01*
X005225Y006571D01*
X005225Y006431D01*
X005204Y006439D01*
X005086Y006439D01*
X004976Y006394D01*
X004893Y006311D01*
X004796Y006311D01*
X004796Y006407D01*
X004726Y006477D01*
X004233Y006477D01*
X004163Y006407D01*
X004163Y005875D01*
X004233Y005804D01*
X004726Y005804D01*
X004796Y005875D01*
X004796Y005971D01*
X004893Y005971D01*
X004976Y005888D01*
X005086Y005843D01*
X005204Y005843D01*
X005314Y005888D01*
X005398Y005972D01*
X005443Y006082D01*
X005443Y006102D01*
X005581Y005964D01*
X005575Y005952D01*
X005565Y005917D01*
X005565Y005808D01*
X005945Y005808D01*
X005945Y005788D01*
X005565Y005788D01*
X005565Y005680D01*
X005572Y005653D01*
X005558Y005653D01*
X005417Y005653D01*
X005200Y005436D01*
X004796Y005436D01*
X004796Y005532D01*
X004726Y005602D01*
X004233Y005602D01*
X004163Y005532D01*
X004163Y005000D01*
X004233Y004929D01*
X004726Y004929D01*
X004796Y005000D01*
X004796Y005096D01*
X005200Y005096D01*
X005340Y005096D01*
X005558Y005314D01*
X005585Y005314D01*
X005585Y005019D01*
X005593Y005011D01*
X005585Y005003D01*
X005585Y004709D01*
X005472Y004709D01*
X005325Y004561D01*
X004816Y004561D01*
X004816Y004638D01*
X004746Y004708D01*
X004213Y004708D01*
X004154Y004648D01*
X004139Y004674D01*
X004113Y004700D01*
X004081Y004718D01*
X004045Y004728D01*
X003850Y004728D01*
X003850Y004431D01*
X003770Y004431D01*
X003770Y004351D01*
X003454Y004351D01*
X003454Y004176D01*
X003463Y004140D01*
X003482Y004108D01*
X003508Y004082D01*
X003540Y004064D01*
X003575Y004054D01*
X003770Y004054D01*
X003770Y004351D01*
X003850Y004351D01*
X003850Y004054D01*
X004045Y004054D01*
X004081Y004064D01*
X004113Y004082D01*
X004139Y004108D01*
X004154Y004134D01*
X004213Y004074D01*
X004746Y004074D01*
X004816Y004144D01*
X004816Y004221D01*
X005465Y004221D01*
X005565Y004321D01*
X005609Y004365D01*
X005655Y004319D01*
X006255Y004319D01*
X006305Y004369D01*
X007075Y004369D01*
X007177Y004369D01*
X007205Y004341D01*
X007183Y004341D01*
X007183Y003961D01*
X007163Y003961D01*
X007163Y004341D01*
X007054Y004341D01*
X007019Y004331D01*
X007000Y004321D01*
X006708Y004321D01*
X006700Y004313D01*
X006692Y004321D01*
X006393Y004321D01*
X006323Y004251D01*
X006323Y004121D01*
X005025Y004121D01*
X004885Y004121D01*
X004596Y003833D01*
X004213Y003833D01*
X004154Y003773D01*
X004139Y003799D01*
X004113Y003825D01*
X004081Y003843D01*
X004045Y003853D01*
X003850Y003853D01*
X003850Y003556D01*
X003770Y003556D01*
X003770Y003476D01*
X003454Y003476D01*
X003454Y003301D01*
X003463Y003265D01*
X003482Y003233D01*
X003508Y003207D01*
X003540Y003189D01*
X003575Y003179D01*
X003770Y003179D01*
X003770Y003476D01*
X003850Y003476D01*
X003850Y003179D01*
X004045Y003179D01*
X004081Y003189D01*
X004113Y003207D01*
X004139Y003233D01*
X004154Y003259D01*
X004213Y003199D01*
X004350Y003199D01*
X004350Y001961D01*
X004325Y001936D01*
X004273Y001936D01*
X004273Y001994D01*
X004203Y002064D01*
X003355Y002064D01*
X003285Y001994D01*
X003285Y001343D01*
X003317Y001311D01*
X003090Y001311D01*
X002915Y001486D01*
X002915Y001991D01*
X002845Y002061D01*
X002815Y002061D01*
X002815Y003221D01*
X002845Y003221D01*
X002915Y003291D01*
X002915Y003991D01*
X002845Y004061D01*
X002445Y004061D01*
X002375Y003991D01*
X002375Y003291D01*
X002445Y003221D01*
X002475Y003221D01*
X002475Y002061D01*
X002445Y002061D01*
X002375Y001991D01*
X002375Y001291D01*
X002445Y001221D01*
X002700Y001221D01*
X002850Y001071D01*
X002950Y000971D01*
X012200Y000971D01*
X012340Y000971D01*
X012715Y001346D01*
X012815Y001446D01*
X012815Y002681D01*
X012923Y002726D01*
X013060Y002863D01*
X013135Y003044D01*
X013505Y003044D01*
X013505Y003122D02*
X013135Y003122D01*
X013135Y003044D02*
X013135Y003238D01*
X013060Y003419D01*
X012923Y003556D01*
X012742Y003631D01*
X012548Y003631D01*
X012367Y003556D01*
X012230Y003419D01*
X012155Y003238D01*
X012155Y003044D01*
X011190Y003044D01*
X011190Y003071D02*
X011190Y003211D01*
X010690Y003711D01*
X010620Y003781D01*
X012312Y003781D01*
X012367Y003726D01*
X012548Y003651D01*
X012742Y003651D01*
X012923Y003726D01*
X013060Y003863D01*
X013135Y004044D01*
X013135Y004238D01*
X013060Y004419D01*
X012923Y004556D01*
X012742Y004631D01*
X012548Y004631D01*
X012367Y004556D01*
X012230Y004419D01*
X012155Y004238D01*
X012155Y004121D01*
X010365Y004121D01*
X010440Y004196D01*
X010468Y004224D01*
X010471Y004221D01*
X010819Y004221D01*
X011065Y004467D01*
X011065Y004815D01*
X010909Y004971D01*
X011353Y004971D01*
X011205Y004823D01*
X011205Y004681D01*
X011605Y004681D01*
X011605Y004601D01*
X011205Y004601D01*
X011205Y004459D01*
X011463Y004201D01*
X011605Y004201D01*
X011605Y004601D01*
X011685Y004601D01*
X011685Y004681D01*
X012085Y004681D01*
X012085Y004823D01*
X011937Y004971D01*
X012185Y004971D01*
X012230Y004863D01*
X012367Y004726D01*
X012548Y004651D01*
X012742Y004651D01*
X012923Y004726D01*
X013060Y004863D01*
X013135Y005044D01*
X013135Y005238D01*
X013060Y005419D01*
X012923Y005556D01*
X012742Y005631D01*
X012548Y005631D01*
X012367Y005556D01*
X012230Y005419D01*
X012185Y005311D01*
X011909Y005311D01*
X012065Y005467D01*
X012065Y005815D01*
X011819Y006061D01*
X011471Y006061D01*
X011468Y006058D01*
X011215Y006311D01*
X011075Y006311D01*
X011065Y006311D01*
X011065Y006991D01*
X010995Y007061D01*
X010465Y007061D01*
X010025Y007501D01*
X009885Y007501D01*
X008967Y007501D01*
X008967Y007596D01*
X009700Y007596D01*
X009840Y007596D01*
X010087Y007843D01*
X010204Y007843D01*
X010314Y007888D01*
X010398Y007972D01*
X010443Y008082D01*
X010443Y008200D01*
X010398Y008310D01*
X010314Y008394D01*
X010204Y008439D01*
X010086Y008439D01*
X009976Y008394D01*
X009895Y008313D01*
X009814Y008394D01*
X009704Y008439D01*
X009586Y008439D01*
X009476Y008394D01*
X009393Y008311D01*
X008450Y008311D01*
X008350Y008211D01*
X007972Y007834D01*
X007972Y007978D01*
X008337Y008343D01*
X008454Y008343D01*
X008564Y008388D01*
X008645Y008469D01*
X008726Y008388D01*
X008836Y008343D01*
X008954Y008343D01*
X009064Y008388D01*
X009147Y008471D01*
X009450Y008471D01*
X009590Y008471D01*
X009609Y008489D01*
X009911Y008489D01*
X009982Y008560D01*
X009982Y008897D01*
X010062Y008816D01*
X010232Y008646D01*
X010368Y008646D01*
X010368Y008639D01*
X010438Y008568D01*
X010685Y008568D01*
X011445Y007808D01*
X011445Y007035D01*
X011225Y006815D01*
X011225Y006467D01*
X011471Y006221D01*
X011782Y006221D01*
X012062Y005941D01*
X012198Y005941D01*
X012230Y005863D01*
X012367Y005726D01*
X012548Y005651D01*
X012742Y005651D01*
X012923Y005726D01*
X013060Y005863D01*
X013135Y006044D01*
X013135Y006238D01*
X013060Y006419D01*
X012923Y006556D01*
X012742Y006631D01*
X012548Y006631D01*
X012367Y006556D01*
X012230Y006419D01*
X012206Y006362D01*
X012065Y006504D01*
X012065Y006815D01*
X011845Y007035D01*
X011845Y007974D01*
X011728Y008091D01*
X010922Y008896D01*
X010922Y009053D01*
X010852Y009123D01*
X010438Y009123D01*
X010379Y009065D01*
X010345Y009099D01*
X010345Y009349D01*
X010228Y009466D01*
X010018Y009676D01*
X009982Y009676D01*
X009982Y009722D01*
X009911Y009792D01*
X009379Y009792D01*
X009309Y009722D01*
X009309Y009676D01*
X006482Y009676D01*
X006482Y009722D01*
X006411Y009792D01*
X005879Y009792D01*
X005809Y009722D01*
X005488Y009641D02*
X004962Y009641D01*
X004956Y009563D02*
X005409Y009563D01*
X005331Y009484D02*
X004923Y009484D01*
X004858Y009406D02*
X005252Y009406D01*
X005173Y009327D02*
X004715Y009327D01*
X004575Y009327D02*
X002915Y009327D01*
X002915Y009406D02*
X004432Y009406D01*
X004367Y009484D02*
X002979Y009484D01*
X002872Y009249D02*
X005095Y009249D01*
X005016Y009170D02*
X002815Y009170D01*
X002815Y009092D02*
X003537Y009092D01*
X003540Y009093D02*
X003508Y009075D01*
X003482Y009049D01*
X003463Y009017D01*
X003454Y008981D01*
X003454Y008806D01*
X003770Y008806D01*
X003770Y009103D01*
X003575Y009103D01*
X003540Y009093D01*
X003462Y009013D02*
X002815Y009013D01*
X002815Y008934D02*
X003454Y008934D01*
X003454Y008856D02*
X002815Y008856D01*
X002815Y008777D02*
X003770Y008777D01*
X003770Y008699D02*
X003850Y008699D01*
X003850Y008620D02*
X003770Y008620D01*
X003770Y008542D02*
X003850Y008542D01*
X003850Y008463D02*
X003770Y008463D01*
X003502Y008463D02*
X002815Y008463D01*
X002815Y008385D02*
X004280Y008385D01*
X004280Y008306D02*
X002815Y008306D01*
X002815Y008228D02*
X004280Y008228D01*
X004163Y008149D02*
X004127Y008149D01*
X004127Y008071D02*
X004163Y008071D01*
X004163Y007992D02*
X004127Y007992D01*
X004127Y007913D02*
X004163Y007913D01*
X004163Y007835D02*
X004127Y007835D01*
X004127Y007756D02*
X004163Y007756D01*
X004163Y007678D02*
X004127Y007678D01*
X004102Y007599D02*
X004188Y007599D01*
X004166Y007285D02*
X004147Y007285D01*
X003850Y007285D02*
X003770Y007285D01*
X003770Y007207D02*
X003850Y007207D01*
X003850Y007128D02*
X003770Y007128D01*
X003770Y006971D02*
X003850Y006971D01*
X003850Y006892D02*
X003770Y006892D01*
X003770Y006814D02*
X003850Y006814D01*
X003850Y006735D02*
X003770Y006735D01*
X003481Y006735D02*
X003470Y006735D01*
X003470Y006657D02*
X005139Y006657D01*
X005060Y006735D02*
X004782Y006735D01*
X004816Y006814D02*
X004982Y006814D01*
X005217Y006578D02*
X003470Y006578D01*
X003470Y006500D02*
X005225Y006500D01*
X005042Y006421D02*
X004783Y006421D01*
X004796Y006343D02*
X004925Y006343D01*
X004914Y005950D02*
X004796Y005950D01*
X004793Y005871D02*
X005016Y005871D01*
X005274Y005871D02*
X005565Y005871D01*
X005574Y005950D02*
X005376Y005950D01*
X005421Y006028D02*
X005517Y006028D01*
X005565Y005714D02*
X003312Y005714D01*
X003391Y005636D02*
X005399Y005636D01*
X005321Y005557D02*
X004772Y005557D01*
X004796Y005479D02*
X005242Y005479D01*
X005409Y005164D02*
X005585Y005164D01*
X005585Y005086D02*
X004796Y005086D01*
X004796Y005007D02*
X005589Y005007D01*
X005585Y004929D02*
X003184Y004929D01*
X003248Y005007D02*
X003494Y005007D01*
X003494Y005086D02*
X003254Y005086D01*
X003254Y005164D02*
X003381Y005164D01*
X003303Y005243D02*
X003250Y005243D01*
X003469Y005557D02*
X003519Y005557D01*
X003662Y005793D02*
X005945Y005793D01*
X005965Y005793D02*
X006725Y005793D01*
X006725Y005871D02*
X006345Y005871D01*
X006345Y005917D02*
X006335Y005952D01*
X006325Y005971D01*
X006325Y006039D01*
X006351Y006013D01*
X006461Y005968D01*
X006579Y005968D01*
X006689Y006013D01*
X006725Y006049D01*
X006725Y005483D01*
X006689Y005519D01*
X006579Y005564D01*
X006461Y005564D01*
X006351Y005519D01*
X006325Y005493D01*
X006325Y005626D01*
X006335Y005644D01*
X006345Y005680D01*
X006345Y005788D01*
X005965Y005788D01*
X005965Y005808D01*
X006345Y005808D01*
X006345Y005917D01*
X006336Y005950D02*
X006725Y005950D01*
X006725Y006028D02*
X006704Y006028D01*
X006725Y005714D02*
X006345Y005714D01*
X006330Y005636D02*
X006725Y005636D01*
X006725Y005557D02*
X006597Y005557D01*
X006443Y005557D02*
X006325Y005557D01*
X006325Y006028D02*
X006336Y006028D01*
X006895Y006391D02*
X006270Y007016D01*
X006270Y007516D01*
X005895Y007891D01*
X005882Y007678D02*
X004796Y007678D01*
X004771Y007599D02*
X005960Y007599D01*
X006039Y007521D02*
X003470Y007521D01*
X003470Y007599D02*
X003519Y007599D01*
X003494Y007678D02*
X003470Y007678D01*
X003470Y007442D02*
X006110Y007442D01*
X006110Y007364D02*
X005594Y007364D01*
X005658Y007285D02*
X006110Y007285D01*
X006110Y007207D02*
X005691Y007207D01*
X005693Y007128D02*
X006110Y007128D01*
X006110Y007049D02*
X005727Y007049D01*
X005805Y006971D02*
X006110Y006971D01*
X006543Y006993D02*
X006895Y006641D01*
X007895Y006641D01*
X007645Y005641D02*
X007645Y004891D01*
X008117Y004419D01*
X008117Y003951D01*
X007803Y003951D02*
X007803Y004359D01*
X007270Y004891D01*
X007270Y005266D01*
X007183Y004300D02*
X007163Y004300D01*
X007163Y004222D02*
X007183Y004222D01*
X007183Y004143D02*
X007163Y004143D01*
X007163Y004065D02*
X007183Y004065D01*
X007183Y003986D02*
X007163Y003986D01*
X007163Y003941D02*
X007183Y003941D01*
X007183Y003561D01*
X007291Y003561D01*
X007318Y003568D01*
X007318Y003478D01*
X007475Y003321D01*
X007475Y003086D01*
X007450Y003061D01*
X007350Y002961D01*
X007350Y002812D01*
X007273Y002812D01*
X007203Y002742D01*
X007203Y002209D01*
X007263Y002150D01*
X007237Y002135D01*
X007211Y002109D01*
X007193Y002077D01*
X007183Y002041D01*
X007183Y001846D01*
X007480Y001846D01*
X007480Y001766D01*
X007560Y001766D01*
X007560Y001450D01*
X007735Y001450D01*
X007771Y001459D01*
X007803Y001478D01*
X007829Y001504D01*
X007847Y001536D01*
X007857Y001571D01*
X007857Y001766D01*
X007560Y001766D01*
X007560Y001846D01*
X007857Y001846D01*
X007857Y002041D01*
X007847Y002077D01*
X007829Y002109D01*
X007803Y002135D01*
X007777Y002150D01*
X007837Y002209D01*
X007837Y002266D01*
X008118Y002266D01*
X008118Y002229D01*
X008188Y002159D01*
X008602Y002159D01*
X008672Y002229D01*
X008672Y002643D01*
X008602Y002714D01*
X008565Y002714D01*
X008565Y002821D01*
X009215Y003471D01*
X010450Y003471D01*
X010850Y003071D01*
X010850Y002714D01*
X010813Y002714D01*
X010743Y002643D01*
X010743Y002229D01*
X010813Y002159D01*
X011227Y002159D01*
X011297Y002229D01*
X011297Y002643D01*
X011227Y002714D01*
X011190Y002714D01*
X011190Y003071D01*
X011190Y003122D02*
X012155Y003122D01*
X012155Y003044D02*
X012230Y002863D01*
X012367Y002726D01*
X012475Y002681D01*
X012475Y001586D01*
X012200Y001311D01*
X012180Y001311D01*
X012215Y001346D01*
X012315Y001446D01*
X012315Y001889D01*
X012398Y001972D01*
X012443Y002082D01*
X012443Y002200D01*
X012398Y002310D01*
X012314Y002394D01*
X012204Y002439D01*
X012086Y002439D01*
X011976Y002394D01*
X011892Y002310D01*
X011847Y002200D01*
X011847Y002082D01*
X011892Y001972D01*
X011975Y001889D01*
X011975Y001586D01*
X011950Y001561D01*
X010482Y001561D01*
X010482Y001676D01*
X010743Y001676D01*
X010743Y001639D01*
X010813Y001568D01*
X011227Y001568D01*
X011297Y001639D01*
X011297Y002053D01*
X011227Y002123D01*
X010813Y002123D01*
X010743Y002053D01*
X010743Y002016D01*
X010482Y002016D01*
X010482Y002053D01*
X010411Y002123D01*
X009940Y002123D01*
X009940Y002159D01*
X010411Y002159D01*
X010482Y002229D01*
X010482Y002722D01*
X010411Y002792D01*
X010234Y002792D01*
X010215Y002811D01*
X009943Y003083D01*
X009943Y003200D01*
X009898Y003310D01*
X009814Y003394D01*
X009704Y003439D01*
X009586Y003439D01*
X009476Y003394D01*
X009392Y003310D01*
X009347Y003200D01*
X009347Y003082D01*
X009392Y002972D01*
X009476Y002888D01*
X009586Y002843D01*
X009703Y002843D01*
X009816Y002730D01*
X009809Y002722D01*
X009809Y002593D01*
X009756Y002646D01*
X009615Y002646D01*
X009607Y002646D01*
X009607Y002722D01*
X009536Y002792D01*
X009004Y002792D01*
X008934Y002722D01*
X008934Y002229D01*
X009004Y002159D01*
X009536Y002159D01*
X009600Y002223D01*
X009600Y002059D01*
X009536Y002123D01*
X009004Y002123D01*
X008934Y002053D01*
X008934Y002016D01*
X008672Y002016D01*
X008672Y002053D01*
X008602Y002123D01*
X008188Y002123D01*
X008118Y002053D01*
X008118Y001639D01*
X008188Y001568D01*
X008602Y001568D01*
X008672Y001639D01*
X008672Y001676D01*
X008934Y001676D01*
X008934Y001560D01*
X009004Y001489D01*
X009536Y001489D01*
X009600Y001553D01*
X009600Y001446D01*
X009725Y001321D01*
X009735Y001311D01*
X005973Y001311D01*
X006005Y001343D01*
X006005Y001994D01*
X005935Y002064D01*
X005087Y002064D01*
X005017Y001994D01*
X005017Y001343D01*
X005049Y001311D01*
X004241Y001311D01*
X004273Y001343D01*
X004273Y001596D01*
X004465Y001596D01*
X004565Y001696D01*
X004690Y001821D01*
X004690Y001961D01*
X004690Y003199D01*
X004746Y003199D01*
X004816Y003269D01*
X004816Y003572D01*
X005025Y003781D01*
X006323Y003781D01*
X006323Y003651D01*
X006393Y003581D01*
X006688Y003581D01*
X006688Y002812D01*
X006398Y002812D01*
X006370Y002783D01*
X006005Y002783D01*
X006005Y002939D01*
X005935Y003009D01*
X005087Y003009D01*
X005017Y002939D01*
X005017Y002288D01*
X005087Y002218D01*
X005935Y002218D01*
X006005Y002288D01*
X006005Y002443D01*
X006328Y002443D01*
X006328Y002209D01*
X006388Y002150D01*
X006362Y002135D01*
X006336Y002109D01*
X006318Y002077D01*
X006308Y002041D01*
X006308Y001846D01*
X006605Y001846D01*
X006605Y001766D01*
X006685Y001766D01*
X006685Y001450D01*
X006860Y001450D01*
X006896Y001459D01*
X006928Y001478D01*
X006954Y001504D01*
X006972Y001536D01*
X006982Y001571D01*
X006982Y001766D01*
X006685Y001766D01*
X006685Y001846D01*
X006982Y001846D01*
X006982Y002041D01*
X006972Y002077D01*
X006954Y002109D01*
X006928Y002135D01*
X006902Y002150D01*
X006962Y002209D01*
X006962Y002588D01*
X006983Y002613D01*
X007028Y002657D01*
X007028Y002665D01*
X007033Y002672D01*
X007028Y002735D01*
X007028Y003568D01*
X007054Y003561D01*
X007163Y003561D01*
X007163Y003941D01*
X007163Y003908D02*
X007183Y003908D01*
X007183Y003829D02*
X007163Y003829D01*
X007163Y003751D02*
X007183Y003751D01*
X007183Y003672D02*
X007163Y003672D01*
X007163Y003594D02*
X007183Y003594D01*
X007318Y003515D02*
X007028Y003515D01*
X007028Y003436D02*
X007359Y003436D01*
X007438Y003358D02*
X007028Y003358D01*
X007028Y003279D02*
X007475Y003279D01*
X007475Y003201D02*
X007028Y003201D01*
X007028Y003122D02*
X007475Y003122D01*
X007432Y003044D02*
X007028Y003044D01*
X007028Y002965D02*
X007354Y002965D01*
X007350Y002887D02*
X007028Y002887D01*
X007028Y002808D02*
X007269Y002808D01*
X007203Y002730D02*
X007028Y002730D01*
X007021Y002651D02*
X007203Y002651D01*
X007203Y002572D02*
X006962Y002572D01*
X006962Y002494D02*
X007203Y002494D01*
X007203Y002415D02*
X006962Y002415D01*
X006962Y002337D02*
X007203Y002337D01*
X007203Y002258D02*
X006962Y002258D01*
X006932Y002180D02*
X007233Y002180D01*
X007207Y002101D02*
X006958Y002101D01*
X006982Y002023D02*
X007183Y002023D01*
X007183Y001944D02*
X006982Y001944D01*
X006982Y001866D02*
X007183Y001866D01*
X007183Y001766D02*
X007183Y001571D01*
X007193Y001536D01*
X007211Y001504D01*
X007237Y001478D01*
X007269Y001459D01*
X007305Y001450D01*
X007480Y001450D01*
X007480Y001766D01*
X007183Y001766D01*
X007183Y001709D02*
X006982Y001709D01*
X006982Y001630D02*
X007183Y001630D01*
X007189Y001551D02*
X006976Y001551D01*
X006919Y001473D02*
X007246Y001473D01*
X007480Y001473D02*
X007560Y001473D01*
X007560Y001551D02*
X007480Y001551D01*
X007480Y001630D02*
X007560Y001630D01*
X007560Y001709D02*
X007480Y001709D01*
X007480Y001787D02*
X006685Y001787D01*
X006685Y001709D02*
X006605Y001709D01*
X006605Y001766D02*
X006605Y001450D01*
X006430Y001450D01*
X006394Y001459D01*
X006362Y001478D01*
X006336Y001504D01*
X006318Y001536D01*
X006308Y001571D01*
X006308Y001766D01*
X006605Y001766D01*
X006605Y001787D02*
X006005Y001787D01*
X006005Y001709D02*
X006308Y001709D01*
X006308Y001630D02*
X006005Y001630D01*
X006005Y001551D02*
X006314Y001551D01*
X006371Y001473D02*
X006005Y001473D01*
X006005Y001394D02*
X009651Y001394D01*
X009600Y001473D02*
X007794Y001473D01*
X007851Y001551D02*
X008942Y001551D01*
X008934Y001630D02*
X008664Y001630D01*
X008672Y002023D02*
X008934Y002023D01*
X008982Y002101D02*
X008624Y002101D01*
X008623Y002180D02*
X008983Y002180D01*
X008934Y002258D02*
X008672Y002258D01*
X008672Y002337D02*
X008934Y002337D01*
X008934Y002415D02*
X008672Y002415D01*
X008672Y002494D02*
X008934Y002494D01*
X008934Y002572D02*
X008672Y002572D01*
X008665Y002651D02*
X008934Y002651D01*
X008941Y002730D02*
X008565Y002730D01*
X008565Y002808D02*
X009737Y002808D01*
X009816Y002730D02*
X009599Y002730D01*
X009607Y002651D02*
X009809Y002651D01*
X010061Y002965D02*
X010850Y002965D01*
X010850Y002887D02*
X010140Y002887D01*
X010218Y002808D02*
X010850Y002808D01*
X010850Y002730D02*
X010474Y002730D01*
X010482Y002651D02*
X010750Y002651D01*
X010743Y002572D02*
X010482Y002572D01*
X010482Y002494D02*
X010743Y002494D01*
X010743Y002415D02*
X010482Y002415D01*
X010482Y002337D02*
X010743Y002337D01*
X010743Y002258D02*
X010482Y002258D01*
X010432Y002180D02*
X010792Y002180D01*
X010791Y002101D02*
X010433Y002101D01*
X010482Y002023D02*
X010743Y002023D01*
X010751Y001630D02*
X010482Y001630D01*
X011289Y001630D02*
X011975Y001630D01*
X011975Y001709D02*
X011297Y001709D01*
X011297Y001787D02*
X011975Y001787D01*
X011975Y001866D02*
X011297Y001866D01*
X011297Y001944D02*
X011920Y001944D01*
X011871Y002023D02*
X011297Y002023D01*
X011249Y002101D02*
X011847Y002101D01*
X011847Y002180D02*
X011248Y002180D01*
X011297Y002258D02*
X011871Y002258D01*
X011919Y002337D02*
X011297Y002337D01*
X011297Y002415D02*
X012028Y002415D01*
X012262Y002415D02*
X012475Y002415D01*
X012475Y002337D02*
X012371Y002337D01*
X012419Y002258D02*
X012475Y002258D01*
X012475Y002180D02*
X012443Y002180D01*
X012443Y002101D02*
X012475Y002101D01*
X012475Y002023D02*
X012419Y002023D01*
X012370Y001944D02*
X012475Y001944D01*
X012475Y001866D02*
X012315Y001866D01*
X012315Y001787D02*
X012475Y001787D01*
X012475Y001709D02*
X012315Y001709D01*
X012315Y001630D02*
X012475Y001630D01*
X012440Y001551D02*
X012315Y001551D01*
X012315Y001473D02*
X012362Y001473D01*
X012283Y001394D02*
X012264Y001394D01*
X012204Y001316D02*
X012185Y001316D01*
X012450Y001080D02*
X013505Y001080D01*
X013505Y001002D02*
X012371Y001002D01*
X012528Y001159D02*
X013505Y001159D01*
X013505Y001237D02*
X012607Y001237D01*
X012685Y001316D02*
X013505Y001316D01*
X013505Y001394D02*
X012764Y001394D01*
X012815Y001473D02*
X013505Y001473D01*
X013505Y001551D02*
X012815Y001551D01*
X012815Y001630D02*
X013505Y001630D01*
X013505Y001709D02*
X012815Y001709D01*
X012815Y001787D02*
X013505Y001787D01*
X013505Y001866D02*
X012815Y001866D01*
X012815Y001944D02*
X013505Y001944D01*
X013505Y002023D02*
X012815Y002023D01*
X012815Y002101D02*
X013505Y002101D01*
X013505Y002180D02*
X012815Y002180D01*
X012815Y002258D02*
X013505Y002258D01*
X013505Y002337D02*
X012815Y002337D01*
X012815Y002415D02*
X013505Y002415D01*
X013505Y002494D02*
X012815Y002494D01*
X012815Y002572D02*
X013505Y002572D01*
X013505Y002651D02*
X012815Y002651D01*
X012927Y002730D02*
X013505Y002730D01*
X013505Y002808D02*
X013005Y002808D01*
X013070Y002887D02*
X013505Y002887D01*
X013505Y002965D02*
X013103Y002965D01*
X013135Y003201D02*
X013505Y003201D01*
X013505Y003279D02*
X013118Y003279D01*
X013086Y003358D02*
X013505Y003358D01*
X013505Y003436D02*
X013042Y003436D01*
X012964Y003515D02*
X013505Y003515D01*
X013505Y003594D02*
X012833Y003594D01*
X012793Y003672D02*
X013505Y003672D01*
X013505Y003751D02*
X012948Y003751D01*
X013026Y003829D02*
X013505Y003829D01*
X013505Y003908D02*
X013079Y003908D01*
X013111Y003986D02*
X013505Y003986D01*
X013505Y004065D02*
X013135Y004065D01*
X013135Y004143D02*
X013505Y004143D01*
X013505Y004222D02*
X013135Y004222D01*
X013109Y004300D02*
X013505Y004300D01*
X013505Y004379D02*
X013077Y004379D01*
X013021Y004458D02*
X013505Y004458D01*
X013505Y004536D02*
X012943Y004536D01*
X012782Y004615D02*
X013505Y004615D01*
X013505Y004693D02*
X012844Y004693D01*
X012969Y004772D02*
X013505Y004772D01*
X013505Y004850D02*
X013047Y004850D01*
X013087Y004929D02*
X013505Y004929D01*
X013505Y005007D02*
X013120Y005007D01*
X013135Y005086D02*
X013505Y005086D01*
X013505Y005164D02*
X013135Y005164D01*
X013133Y005243D02*
X013505Y005243D01*
X013505Y005321D02*
X013101Y005321D01*
X013068Y005400D02*
X013505Y005400D01*
X013505Y005479D02*
X013000Y005479D01*
X012921Y005557D02*
X013505Y005557D01*
X013505Y005636D02*
X012065Y005636D01*
X012065Y005714D02*
X012395Y005714D01*
X012300Y005793D02*
X012065Y005793D01*
X012009Y005871D02*
X012226Y005871D01*
X012053Y005950D02*
X011930Y005950D01*
X011975Y006028D02*
X011852Y006028D01*
X011896Y006107D02*
X011419Y006107D01*
X011341Y006185D02*
X011818Y006185D01*
X012069Y006500D02*
X012311Y006500D01*
X012232Y006421D02*
X012148Y006421D01*
X012065Y006578D02*
X012420Y006578D01*
X012449Y006668D02*
X012378Y006705D01*
X012313Y006752D01*
X012256Y006809D01*
X012209Y006874D01*
X012172Y006945D01*
X012148Y007022D01*
X012135Y007101D01*
X012135Y007101D01*
X012605Y007101D01*
X012605Y007181D01*
X012135Y007181D01*
X012135Y007181D01*
X012148Y007260D01*
X012172Y007337D01*
X012209Y007408D01*
X012256Y007473D01*
X012313Y007530D01*
X012378Y007577D01*
X012449Y007614D01*
X012526Y007638D01*
X012542Y007641D01*
X012526Y007644D01*
X012449Y007668D01*
X012378Y007705D01*
X012313Y007752D01*
X012256Y007809D01*
X012209Y007874D01*
X012172Y007945D01*
X012148Y008022D01*
X012135Y008101D01*
X012135Y008101D01*
X012605Y008101D01*
X012605Y008181D01*
X012135Y008181D01*
X012135Y008181D01*
X012148Y008260D01*
X012172Y008337D01*
X012209Y008408D01*
X012256Y008473D01*
X012313Y008530D01*
X012378Y008577D01*
X012449Y008614D01*
X012526Y008638D01*
X012605Y008651D01*
X012605Y008651D01*
X012605Y008181D01*
X012685Y008181D01*
X012685Y008651D01*
X012685Y008651D01*
X012764Y008638D01*
X012841Y008614D01*
X012912Y008577D01*
X012977Y008530D01*
X013034Y008473D01*
X013081Y008408D01*
X013118Y008337D01*
X013142Y008260D01*
X013155Y008181D01*
X013155Y008181D01*
X012685Y008181D01*
X012685Y008101D01*
X013155Y008101D01*
X013155Y008101D01*
X013142Y008022D01*
X013118Y007945D01*
X013081Y007874D01*
X013034Y007809D01*
X012977Y007752D01*
X012912Y007705D01*
X012841Y007668D01*
X012764Y007644D01*
X012748Y007641D01*
X012764Y007638D01*
X012841Y007614D01*
X012912Y007577D01*
X012977Y007530D01*
X013034Y007473D01*
X013081Y007408D01*
X013118Y007337D01*
X013142Y007260D01*
X013155Y007181D01*
X013155Y007181D01*
X012685Y007181D01*
X012605Y007181D01*
X012605Y007631D01*
X012605Y008101D01*
X012685Y008101D01*
X012685Y007631D01*
X012685Y007181D01*
X012685Y007101D01*
X013155Y007101D01*
X013155Y007101D01*
X013142Y007022D01*
X013118Y006945D01*
X013081Y006874D01*
X013034Y006809D01*
X012977Y006752D01*
X012912Y006705D01*
X012841Y006668D01*
X012764Y006644D01*
X012685Y006631D01*
X012685Y006631D01*
X012685Y007101D01*
X012605Y007101D01*
X012605Y006631D01*
X012605Y006631D01*
X012526Y006644D01*
X012449Y006668D01*
X012485Y006657D02*
X012065Y006657D01*
X012065Y006735D02*
X012336Y006735D01*
X012252Y006814D02*
X012065Y006814D01*
X011988Y006892D02*
X012199Y006892D01*
X012164Y006971D02*
X011909Y006971D01*
X011845Y007049D02*
X012143Y007049D01*
X012139Y007207D02*
X011845Y007207D01*
X011845Y007285D02*
X012156Y007285D01*
X012186Y007364D02*
X011845Y007364D01*
X011845Y007442D02*
X012234Y007442D01*
X012304Y007521D02*
X011845Y007521D01*
X011845Y007599D02*
X012421Y007599D01*
X012431Y007678D02*
X011845Y007678D01*
X011845Y007756D02*
X012308Y007756D01*
X012237Y007835D02*
X011845Y007835D01*
X011845Y007913D02*
X012189Y007913D01*
X012157Y007992D02*
X011827Y007992D01*
X011748Y008071D02*
X012140Y008071D01*
X012142Y008228D02*
X011591Y008228D01*
X011513Y008306D02*
X012162Y008306D01*
X012197Y008385D02*
X011434Y008385D01*
X011410Y008469D02*
X011605Y008469D01*
X011605Y008766D01*
X011685Y008766D01*
X011685Y008469D01*
X011880Y008469D01*
X011916Y008479D01*
X011948Y008497D01*
X011974Y008524D01*
X011992Y008555D01*
X012002Y008591D01*
X012002Y008766D01*
X011685Y008766D01*
X011685Y008846D01*
X012002Y008846D01*
X012002Y009022D01*
X011992Y009057D01*
X011974Y009089D01*
X011948Y009115D01*
X011916Y009134D01*
X011880Y009143D01*
X011685Y009143D01*
X011685Y008846D01*
X011605Y008846D01*
X011605Y008766D01*
X011289Y008766D01*
X011289Y008591D01*
X011298Y008555D01*
X011316Y008524D01*
X011343Y008497D01*
X011374Y008479D01*
X011410Y008469D01*
X011356Y008463D02*
X012249Y008463D01*
X012329Y008542D02*
X011984Y008542D01*
X012002Y008620D02*
X012470Y008620D01*
X012605Y008620D02*
X012685Y008620D01*
X012685Y008542D02*
X012605Y008542D01*
X012605Y008463D02*
X012685Y008463D01*
X012685Y008385D02*
X012605Y008385D01*
X012605Y008306D02*
X012685Y008306D01*
X012685Y008228D02*
X012605Y008228D01*
X012605Y008149D02*
X011670Y008149D01*
X011685Y008542D02*
X011605Y008542D01*
X011605Y008620D02*
X011685Y008620D01*
X011685Y008699D02*
X011605Y008699D01*
X011605Y008777D02*
X011041Y008777D01*
X010963Y008856D02*
X011289Y008856D01*
X011289Y008846D02*
X011289Y009022D01*
X011298Y009057D01*
X011316Y009089D01*
X011343Y009115D01*
X011374Y009134D01*
X011410Y009143D01*
X011605Y009143D01*
X011605Y008846D01*
X011289Y008846D01*
X011289Y008934D02*
X010922Y008934D01*
X010922Y009013D02*
X011289Y009013D01*
X011319Y009092D02*
X010884Y009092D01*
X010852Y009159D02*
X010922Y009229D01*
X010922Y009306D01*
X011309Y009306D01*
X011309Y009229D01*
X011379Y009159D01*
X011911Y009159D01*
X011982Y009229D01*
X011982Y009722D01*
X011911Y009792D01*
X011379Y009792D01*
X011309Y009722D01*
X011309Y009646D01*
X010920Y009646D01*
X010852Y009714D01*
X010438Y009714D01*
X010368Y009643D01*
X010368Y009229D01*
X010438Y009159D01*
X010852Y009159D01*
X010864Y009170D02*
X011367Y009170D01*
X011309Y009249D02*
X010922Y009249D01*
X011120Y008699D02*
X011289Y008699D01*
X011289Y008620D02*
X011199Y008620D01*
X011277Y008542D02*
X011306Y008542D01*
X011026Y008228D02*
X010432Y008228D01*
X010443Y008149D02*
X011104Y008149D01*
X011183Y008071D02*
X010439Y008071D01*
X010406Y007992D02*
X011261Y007992D01*
X011340Y007913D02*
X010339Y007913D01*
X010079Y007835D02*
X011418Y007835D01*
X011445Y007756D02*
X010001Y007756D01*
X009922Y007678D02*
X011445Y007678D01*
X011445Y007599D02*
X009844Y007599D01*
X010084Y007442D02*
X011445Y007442D01*
X011445Y007364D02*
X010163Y007364D01*
X010241Y007285D02*
X011445Y007285D01*
X011445Y007207D02*
X010320Y007207D01*
X010398Y007128D02*
X011445Y007128D01*
X011445Y007049D02*
X011006Y007049D01*
X011065Y006971D02*
X011381Y006971D01*
X011303Y006892D02*
X011065Y006892D01*
X011065Y006814D02*
X011225Y006814D01*
X011225Y006735D02*
X011065Y006735D01*
X011065Y006657D02*
X011225Y006657D01*
X011225Y006578D02*
X011065Y006578D01*
X011065Y006500D02*
X011225Y006500D01*
X011271Y006421D02*
X011065Y006421D01*
X011065Y006343D02*
X011349Y006343D01*
X011428Y006264D02*
X011262Y006264D01*
X011845Y007128D02*
X012605Y007128D01*
X012605Y007049D02*
X012685Y007049D01*
X012685Y006971D02*
X012605Y006971D01*
X012605Y006892D02*
X012685Y006892D01*
X012685Y006814D02*
X012605Y006814D01*
X012605Y006735D02*
X012685Y006735D01*
X012685Y006657D02*
X012605Y006657D01*
X012805Y006657D02*
X013505Y006657D01*
X013505Y006735D02*
X012954Y006735D01*
X013038Y006814D02*
X013505Y006814D01*
X013505Y006892D02*
X013091Y006892D01*
X013126Y006971D02*
X013505Y006971D01*
X013505Y007049D02*
X013147Y007049D01*
X013151Y007207D02*
X013505Y007207D01*
X013505Y007285D02*
X013134Y007285D01*
X013104Y007364D02*
X013505Y007364D01*
X013505Y007442D02*
X013057Y007442D01*
X012986Y007521D02*
X013505Y007521D01*
X013505Y007599D02*
X012869Y007599D01*
X012859Y007678D02*
X013505Y007678D01*
X013505Y007756D02*
X012982Y007756D01*
X013053Y007835D02*
X013505Y007835D01*
X013505Y007913D02*
X013101Y007913D01*
X013133Y007992D02*
X013505Y007992D01*
X013505Y008071D02*
X013150Y008071D01*
X013148Y008228D02*
X013505Y008228D01*
X013505Y008306D02*
X013128Y008306D01*
X013093Y008385D02*
X013505Y008385D01*
X013505Y008463D02*
X013041Y008463D01*
X012961Y008542D02*
X013505Y008542D01*
X013505Y008620D02*
X012820Y008620D01*
X012685Y008149D02*
X013505Y008149D01*
X013505Y008699D02*
X012002Y008699D01*
X012002Y008856D02*
X013505Y008856D01*
X013505Y008934D02*
X012002Y008934D01*
X012002Y009013D02*
X013505Y009013D01*
X013505Y009092D02*
X011971Y009092D01*
X011923Y009170D02*
X013505Y009170D01*
X013505Y009249D02*
X011982Y009249D01*
X011982Y009327D02*
X012575Y009327D01*
X012715Y009327D02*
X013505Y009327D01*
X013505Y009406D02*
X012858Y009406D01*
X012923Y009484D02*
X013505Y009484D01*
X013505Y009563D02*
X012956Y009563D01*
X012962Y009641D02*
X013505Y009641D01*
X013505Y009720D02*
X012955Y009720D01*
X012923Y009798D02*
X013505Y009798D01*
X013505Y009877D02*
X012857Y009877D01*
X012335Y009720D02*
X011982Y009720D01*
X011982Y009641D02*
X012328Y009641D01*
X012334Y009563D02*
X011982Y009563D01*
X011982Y009484D02*
X012367Y009484D01*
X012432Y009406D02*
X011982Y009406D01*
X011685Y009092D02*
X011605Y009092D01*
X011605Y009013D02*
X011685Y009013D01*
X011685Y008934D02*
X011605Y008934D01*
X011605Y008856D02*
X011685Y008856D01*
X011685Y008777D02*
X013505Y008777D01*
X012685Y008071D02*
X012605Y008071D01*
X012605Y007992D02*
X012685Y007992D01*
X012685Y007913D02*
X012605Y007913D01*
X012605Y007835D02*
X012685Y007835D01*
X012685Y007756D02*
X012605Y007756D01*
X012605Y007678D02*
X012685Y007678D01*
X012685Y007599D02*
X012605Y007599D01*
X012605Y007521D02*
X012685Y007521D01*
X012685Y007442D02*
X012605Y007442D01*
X012605Y007364D02*
X012685Y007364D01*
X012685Y007285D02*
X012605Y007285D01*
X012605Y007207D02*
X012685Y007207D01*
X012685Y007128D02*
X013505Y007128D01*
X013505Y006578D02*
X012870Y006578D01*
X012979Y006500D02*
X013505Y006500D01*
X013505Y006421D02*
X013058Y006421D01*
X013092Y006343D02*
X013505Y006343D01*
X013505Y006264D02*
X013124Y006264D01*
X013135Y006185D02*
X013505Y006185D01*
X013505Y006107D02*
X013135Y006107D01*
X013129Y006028D02*
X013505Y006028D01*
X013505Y005950D02*
X013096Y005950D01*
X013064Y005871D02*
X013505Y005871D01*
X013505Y005793D02*
X012990Y005793D01*
X012895Y005714D02*
X013505Y005714D01*
X012446Y004693D02*
X012085Y004693D01*
X012085Y004772D02*
X012321Y004772D01*
X012243Y004850D02*
X012058Y004850D01*
X011979Y004929D02*
X012203Y004929D01*
X012085Y004601D02*
X011685Y004601D01*
X011685Y004201D01*
X011827Y004201D01*
X012085Y004459D01*
X012085Y004601D01*
X012085Y004536D02*
X012347Y004536D01*
X012269Y004458D02*
X012084Y004458D01*
X012005Y004379D02*
X012213Y004379D01*
X012181Y004300D02*
X011927Y004300D01*
X011848Y004222D02*
X012155Y004222D01*
X012155Y004143D02*
X010388Y004143D01*
X010466Y004222D02*
X010470Y004222D01*
X010820Y004222D02*
X011442Y004222D01*
X011363Y004300D02*
X010898Y004300D01*
X010977Y004379D02*
X011285Y004379D01*
X011206Y004458D02*
X011056Y004458D01*
X011065Y004536D02*
X011205Y004536D01*
X011205Y004693D02*
X011065Y004693D01*
X011065Y004615D02*
X011605Y004615D01*
X011605Y004536D02*
X011685Y004536D01*
X011685Y004458D02*
X011605Y004458D01*
X011605Y004379D02*
X011685Y004379D01*
X011685Y004300D02*
X011605Y004300D01*
X011605Y004222D02*
X011685Y004222D01*
X011685Y004615D02*
X012508Y004615D01*
X012189Y005321D02*
X011919Y005321D01*
X011998Y005400D02*
X012222Y005400D01*
X012290Y005479D02*
X012065Y005479D01*
X012065Y005557D02*
X012369Y005557D01*
X011311Y004929D02*
X010951Y004929D01*
X011030Y004850D02*
X011232Y004850D01*
X011205Y004772D02*
X011065Y004772D01*
X010651Y003751D02*
X012342Y003751D01*
X012497Y003672D02*
X010729Y003672D01*
X010808Y003594D02*
X012457Y003594D01*
X012326Y003515D02*
X010886Y003515D01*
X010965Y003436D02*
X012248Y003436D01*
X012205Y003358D02*
X011043Y003358D01*
X011122Y003279D02*
X012172Y003279D01*
X012155Y003201D02*
X011190Y003201D01*
X011190Y002965D02*
X012187Y002965D01*
X012220Y002887D02*
X011190Y002887D01*
X011190Y002808D02*
X012285Y002808D01*
X012363Y002730D02*
X011190Y002730D01*
X011290Y002651D02*
X012475Y002651D01*
X012475Y002572D02*
X011297Y002572D01*
X011297Y002494D02*
X012475Y002494D01*
X013505Y000923D02*
X000785Y000923D01*
X000785Y001002D02*
X002919Y001002D01*
X002840Y001080D02*
X000785Y001080D01*
X000785Y001159D02*
X002762Y001159D01*
X002929Y001473D02*
X003285Y001473D01*
X003285Y001551D02*
X002915Y001551D01*
X002915Y001630D02*
X003285Y001630D01*
X003285Y001709D02*
X002915Y001709D01*
X002915Y001787D02*
X003285Y001787D01*
X003285Y001866D02*
X002915Y001866D01*
X002915Y001944D02*
X003285Y001944D01*
X003314Y002023D02*
X002883Y002023D01*
X002815Y002101D02*
X004350Y002101D01*
X004350Y002023D02*
X004244Y002023D01*
X004273Y001944D02*
X004333Y001944D01*
X004350Y002180D02*
X002815Y002180D01*
X002815Y002258D02*
X003315Y002258D01*
X003285Y002288D02*
X003355Y002218D01*
X004203Y002218D01*
X004273Y002288D01*
X004273Y002939D01*
X004203Y003009D01*
X003355Y003009D01*
X003285Y002939D01*
X003285Y002288D01*
X003285Y002337D02*
X002815Y002337D01*
X002815Y002415D02*
X003285Y002415D01*
X003285Y002494D02*
X002815Y002494D01*
X002815Y002572D02*
X003285Y002572D01*
X003285Y002651D02*
X002815Y002651D01*
X002815Y002730D02*
X003285Y002730D01*
X003285Y002808D02*
X002815Y002808D01*
X002815Y002887D02*
X003285Y002887D01*
X003311Y002965D02*
X002815Y002965D01*
X002815Y003044D02*
X004350Y003044D01*
X004350Y003122D02*
X002815Y003122D01*
X002815Y003201D02*
X003519Y003201D01*
X003460Y003279D02*
X002903Y003279D01*
X002915Y003358D02*
X003454Y003358D01*
X003454Y003436D02*
X002915Y003436D01*
X002915Y003515D02*
X003770Y003515D01*
X003770Y003556D02*
X003454Y003556D01*
X003454Y003731D01*
X003463Y003767D01*
X003482Y003799D01*
X003508Y003825D01*
X003540Y003843D01*
X003575Y003853D01*
X003770Y003853D01*
X003770Y003556D01*
X003770Y003594D02*
X003850Y003594D01*
X003850Y003672D02*
X003770Y003672D01*
X003770Y003751D02*
X003850Y003751D01*
X003850Y003829D02*
X003770Y003829D01*
X003770Y004065D02*
X003850Y004065D01*
X003850Y004143D02*
X003770Y004143D01*
X003770Y004222D02*
X003850Y004222D01*
X003850Y004300D02*
X003770Y004300D01*
X003770Y004379D02*
X001931Y004379D01*
X001925Y004361D02*
X001946Y004426D01*
X001956Y004489D01*
X001560Y004489D01*
X001560Y004569D01*
X001480Y004569D01*
X001480Y004965D01*
X001418Y004955D01*
X001352Y004934D01*
X001291Y004902D01*
X001235Y004862D01*
X001187Y004813D01*
X001146Y004758D01*
X001115Y004696D01*
X001094Y004631D01*
X001084Y004569D01*
X001480Y004569D01*
X001480Y004489D01*
X001084Y004489D01*
X001094Y004426D01*
X001115Y004361D01*
X001146Y004300D01*
X000785Y004300D01*
X000785Y004222D02*
X001209Y004222D01*
X001187Y004244D02*
X001235Y004196D01*
X001291Y004155D01*
X001352Y004124D01*
X001418Y004103D01*
X001480Y004093D01*
X001480Y004489D01*
X001560Y004489D01*
X001560Y004093D01*
X001622Y004103D01*
X001688Y004124D01*
X001749Y004155D01*
X001805Y004196D01*
X001853Y004244D01*
X001894Y004300D01*
X003454Y004300D01*
X003454Y004222D02*
X001831Y004222D01*
X001894Y004300D02*
X001925Y004361D01*
X001951Y004458D02*
X003454Y004458D01*
X003454Y004431D02*
X003454Y004606D01*
X003463Y004642D01*
X003482Y004674D01*
X003508Y004700D01*
X003540Y004718D01*
X003575Y004728D01*
X003770Y004728D01*
X003770Y004431D01*
X003454Y004431D01*
X003454Y004536D02*
X001560Y004536D01*
X001560Y004569D02*
X001956Y004569D01*
X001946Y004631D01*
X001925Y004696D01*
X001894Y004758D01*
X001853Y004813D01*
X001805Y004862D01*
X001749Y004902D01*
X001688Y004934D01*
X001622Y004955D01*
X001560Y004965D01*
X001560Y004569D01*
X001560Y004615D02*
X001480Y004615D01*
X001480Y004693D02*
X001560Y004693D01*
X001560Y004772D02*
X001480Y004772D01*
X001480Y004850D02*
X001560Y004850D01*
X001560Y004929D02*
X001480Y004929D01*
X001343Y004929D02*
X000785Y004929D01*
X000785Y005007D02*
X002095Y005007D01*
X002089Y005086D02*
X000785Y005086D01*
X000785Y005164D02*
X001079Y005164D01*
X001096Y005147D02*
X001026Y005217D01*
X001026Y006065D01*
X001096Y006135D01*
X001944Y006135D01*
X002014Y006065D01*
X002014Y005217D01*
X001944Y005147D01*
X001096Y005147D01*
X001026Y005243D02*
X000785Y005243D01*
X000785Y005321D02*
X001026Y005321D01*
X001026Y005400D02*
X000785Y005400D01*
X000785Y005479D02*
X001026Y005479D01*
X001026Y005557D02*
X000785Y005557D01*
X000785Y005636D02*
X001026Y005636D01*
X001026Y005714D02*
X000785Y005714D01*
X000785Y005793D02*
X001026Y005793D01*
X001026Y005871D02*
X000785Y005871D01*
X000785Y005950D02*
X001026Y005950D01*
X001026Y006028D02*
X000785Y006028D01*
X000785Y006107D02*
X001068Y006107D01*
X000785Y006185D02*
X002109Y006185D01*
X002109Y006107D02*
X001972Y006107D01*
X002014Y006028D02*
X002109Y006028D01*
X002109Y005950D02*
X002014Y005950D01*
X002014Y005871D02*
X002109Y005871D01*
X002109Y005793D02*
X002014Y005793D01*
X002014Y005714D02*
X002109Y005714D01*
X002109Y005636D02*
X002014Y005636D01*
X002014Y005557D02*
X002109Y005557D01*
X002109Y005479D02*
X002014Y005479D01*
X002014Y005400D02*
X002109Y005400D01*
X002109Y005321D02*
X002014Y005321D01*
X002014Y005243D02*
X002093Y005243D01*
X002089Y005164D02*
X001961Y005164D01*
X002129Y004929D02*
X001697Y004929D01*
X001816Y004850D02*
X002118Y004850D01*
X002132Y004772D02*
X001884Y004772D01*
X001926Y004693D02*
X002176Y004693D01*
X002295Y004615D02*
X001949Y004615D01*
X001726Y004143D02*
X003462Y004143D01*
X003538Y004065D02*
X001361Y004065D01*
X001349Y004071D02*
X001313Y004081D01*
X001180Y004081D01*
X001180Y003676D01*
X001110Y003676D01*
X001110Y003606D01*
X000855Y003606D01*
X000855Y003323D01*
X000865Y003287D01*
X000883Y003255D01*
X000909Y003229D01*
X000941Y003211D01*
X000977Y003201D01*
X001110Y003201D01*
X001110Y003606D01*
X001180Y003606D01*
X001180Y003676D01*
X001435Y003676D01*
X001435Y003959D01*
X001425Y003995D01*
X001407Y004027D01*
X001381Y004053D01*
X001349Y004071D01*
X001314Y004143D02*
X000785Y004143D01*
X000785Y004065D02*
X000930Y004065D01*
X000941Y004071D02*
X000909Y004053D01*
X000883Y004027D01*
X000865Y003995D01*
X000855Y003959D01*
X000855Y003676D01*
X001110Y003676D01*
X001110Y004081D01*
X000977Y004081D01*
X000941Y004071D01*
X000862Y003986D02*
X000785Y003986D01*
X000785Y003908D02*
X000855Y003908D01*
X000855Y003829D02*
X000785Y003829D01*
X000785Y003751D02*
X000855Y003751D01*
X000785Y003672D02*
X001110Y003672D01*
X001180Y003672D02*
X002375Y003672D01*
X002375Y003594D02*
X001435Y003594D01*
X001435Y003606D02*
X001435Y003323D01*
X001425Y003287D01*
X001407Y003255D01*
X001381Y003229D01*
X001349Y003211D01*
X001313Y003201D01*
X001180Y003201D01*
X001180Y003606D01*
X001435Y003606D01*
X001435Y003515D02*
X002375Y003515D01*
X002375Y003436D02*
X001435Y003436D01*
X001435Y003358D02*
X002375Y003358D01*
X002387Y003279D02*
X001421Y003279D01*
X001180Y003279D02*
X001110Y003279D01*
X001110Y003358D02*
X001180Y003358D01*
X001180Y003436D02*
X001110Y003436D01*
X001110Y003515D02*
X001180Y003515D01*
X001180Y003594D02*
X001110Y003594D01*
X001110Y003751D02*
X001180Y003751D01*
X001180Y003829D02*
X001110Y003829D01*
X001110Y003908D02*
X001180Y003908D01*
X001180Y003986D02*
X001110Y003986D01*
X001110Y004065D02*
X001180Y004065D01*
X001187Y004244D02*
X001146Y004300D01*
X001109Y004379D02*
X000785Y004379D01*
X000785Y004458D02*
X001089Y004458D01*
X001091Y004615D02*
X000785Y004615D01*
X000785Y004693D02*
X001114Y004693D01*
X001157Y004772D02*
X000785Y004772D01*
X000785Y004850D02*
X001224Y004850D01*
X001480Y004536D02*
X000785Y004536D01*
X001428Y003986D02*
X002375Y003986D01*
X002375Y003908D02*
X001435Y003908D01*
X001435Y003829D02*
X002375Y003829D01*
X002375Y003751D02*
X001435Y003751D01*
X001480Y004143D02*
X001560Y004143D01*
X001560Y004222D02*
X001480Y004222D01*
X001480Y004300D02*
X001560Y004300D01*
X001560Y004379D02*
X001480Y004379D01*
X001480Y004458D02*
X001560Y004458D01*
X000855Y003594D02*
X000785Y003594D01*
X000785Y003515D02*
X000855Y003515D01*
X000855Y003436D02*
X000785Y003436D01*
X000785Y003358D02*
X000855Y003358D01*
X000869Y003279D02*
X000785Y003279D01*
X000785Y003201D02*
X002475Y003201D01*
X002475Y003122D02*
X000785Y003122D01*
X000785Y003044D02*
X002475Y003044D01*
X002475Y002965D02*
X000785Y002965D01*
X000785Y002887D02*
X002475Y002887D01*
X002475Y002808D02*
X000785Y002808D01*
X000785Y002730D02*
X002475Y002730D01*
X002475Y002651D02*
X000785Y002651D01*
X000785Y002572D02*
X002475Y002572D01*
X002475Y002494D02*
X000785Y002494D01*
X000785Y002415D02*
X002475Y002415D01*
X002475Y002337D02*
X000785Y002337D01*
X000785Y002258D02*
X002475Y002258D01*
X002475Y002180D02*
X000785Y002180D01*
X000785Y002101D02*
X002475Y002101D01*
X002407Y002023D02*
X001410Y002023D01*
X001407Y002027D02*
X001381Y002053D01*
X001349Y002071D01*
X001313Y002081D01*
X001180Y002081D01*
X001180Y001676D01*
X001110Y001676D01*
X001110Y001606D01*
X000855Y001606D01*
X000855Y001323D01*
X000865Y001287D01*
X000883Y001255D01*
X000909Y001229D01*
X000941Y001211D01*
X000977Y001201D01*
X001110Y001201D01*
X001110Y001606D01*
X001180Y001606D01*
X001180Y001676D01*
X001435Y001676D01*
X001435Y001959D01*
X001425Y001995D01*
X001407Y002027D01*
X001435Y001944D02*
X002375Y001944D01*
X002375Y001866D02*
X001435Y001866D01*
X001435Y001787D02*
X002375Y001787D01*
X002375Y001709D02*
X001435Y001709D01*
X001435Y001606D02*
X001180Y001606D01*
X001180Y001201D01*
X001313Y001201D01*
X001349Y001211D01*
X001381Y001229D01*
X001407Y001255D01*
X001425Y001287D01*
X001435Y001323D01*
X001435Y001606D01*
X001435Y001551D02*
X002375Y001551D01*
X002375Y001473D02*
X001435Y001473D01*
X001435Y001394D02*
X002375Y001394D01*
X002375Y001316D02*
X001433Y001316D01*
X001389Y001237D02*
X002429Y001237D01*
X002375Y001630D02*
X001180Y001630D01*
X001110Y001630D02*
X000785Y001630D01*
X000785Y001709D02*
X000855Y001709D01*
X000855Y001676D02*
X001110Y001676D01*
X001110Y002081D01*
X000977Y002081D01*
X000941Y002071D01*
X000909Y002053D01*
X000883Y002027D01*
X000865Y001995D01*
X000855Y001959D01*
X000855Y001676D01*
X000855Y001787D02*
X000785Y001787D01*
X000785Y001866D02*
X000855Y001866D01*
X000855Y001944D02*
X000785Y001944D01*
X000785Y002023D02*
X000881Y002023D01*
X001110Y002023D02*
X001180Y002023D01*
X001180Y001944D02*
X001110Y001944D01*
X001110Y001866D02*
X001180Y001866D01*
X001180Y001787D02*
X001110Y001787D01*
X001110Y001709D02*
X001180Y001709D01*
X001180Y001551D02*
X001110Y001551D01*
X001110Y001473D02*
X001180Y001473D01*
X001180Y001394D02*
X001110Y001394D01*
X001110Y001316D02*
X001180Y001316D01*
X001180Y001237D02*
X001110Y001237D01*
X000901Y001237D02*
X000785Y001237D01*
X000785Y001316D02*
X000857Y001316D01*
X000855Y001394D02*
X000785Y001394D01*
X000785Y001473D02*
X000855Y001473D01*
X000855Y001551D02*
X000785Y001551D01*
X002438Y004615D02*
X003456Y004615D01*
X003501Y004693D02*
X002557Y004693D01*
X002601Y004772D02*
X005585Y004772D01*
X005585Y004850D02*
X002615Y004850D01*
X002671Y004929D02*
X002672Y004929D01*
X002671Y005007D02*
X002672Y005007D01*
X002671Y005086D02*
X002672Y005086D01*
X003394Y006107D02*
X003494Y006107D01*
X003494Y006185D02*
X003470Y006185D01*
X003470Y006264D02*
X003494Y006264D01*
X003494Y006343D02*
X003470Y006343D01*
X003470Y006421D02*
X003507Y006421D01*
X003070Y006421D02*
X002615Y006421D01*
X002606Y006500D02*
X003070Y006500D01*
X003070Y006578D02*
X002568Y006578D01*
X002464Y006657D02*
X003070Y006657D01*
X003070Y006735D02*
X001560Y006735D01*
X001560Y006713D02*
X001560Y006793D01*
X001956Y006793D01*
X001946Y006855D01*
X001925Y006921D01*
X001894Y006982D01*
X001853Y007038D01*
X001805Y007086D01*
X001749Y007127D01*
X001688Y007158D01*
X001622Y007179D01*
X001560Y007189D01*
X001560Y006793D01*
X001480Y006793D01*
X001480Y006713D01*
X001560Y006713D01*
X001560Y006317D01*
X001622Y006327D01*
X001688Y006348D01*
X001749Y006380D01*
X001805Y006420D01*
X001853Y006469D01*
X001894Y006524D01*
X001925Y006585D01*
X001946Y006651D01*
X001956Y006713D01*
X001560Y006713D01*
X001560Y006657D02*
X001480Y006657D01*
X001480Y006713D02*
X001480Y006317D01*
X001418Y006327D01*
X001352Y006348D01*
X001291Y006380D01*
X001235Y006420D01*
X001187Y006469D01*
X001146Y006524D01*
X001115Y006585D01*
X001094Y006651D01*
X001084Y006713D01*
X001480Y006713D01*
X001480Y006735D02*
X000785Y006735D01*
X000785Y006657D02*
X001093Y006657D01*
X001119Y006578D02*
X000785Y006578D01*
X000785Y006500D02*
X001164Y006500D01*
X001234Y006421D02*
X000785Y006421D01*
X000785Y006343D02*
X001370Y006343D01*
X001480Y006343D02*
X001560Y006343D01*
X001560Y006421D02*
X001480Y006421D01*
X001480Y006500D02*
X001560Y006500D01*
X001560Y006578D02*
X001480Y006578D01*
X001480Y006793D02*
X001084Y006793D01*
X001094Y006855D01*
X001115Y006921D01*
X001146Y006982D01*
X001187Y007038D01*
X001235Y007086D01*
X001291Y007127D01*
X001352Y007158D01*
X001418Y007179D01*
X001480Y007189D01*
X001480Y006793D01*
X001480Y006814D02*
X001560Y006814D01*
X001560Y006892D02*
X001480Y006892D01*
X001480Y006971D02*
X001560Y006971D01*
X001560Y007049D02*
X001480Y007049D01*
X001480Y007128D02*
X001560Y007128D01*
X001407Y007255D02*
X001425Y007287D01*
X001435Y007323D01*
X001435Y007606D01*
X001180Y007606D01*
X001180Y007676D01*
X001110Y007676D01*
X001110Y007606D01*
X000855Y007606D01*
X000855Y007323D01*
X000865Y007287D01*
X000883Y007255D01*
X000909Y007229D01*
X000941Y007211D01*
X000977Y007201D01*
X001110Y007201D01*
X001110Y007606D01*
X001180Y007606D01*
X001180Y007201D01*
X001313Y007201D01*
X001349Y007211D01*
X001381Y007229D01*
X001407Y007255D01*
X001424Y007285D02*
X002381Y007285D01*
X002375Y007364D02*
X001435Y007364D01*
X001435Y007442D02*
X002375Y007442D01*
X002375Y007521D02*
X001435Y007521D01*
X001435Y007599D02*
X002375Y007599D01*
X002375Y007678D02*
X001435Y007678D01*
X001435Y007676D02*
X001435Y007959D01*
X001425Y007995D01*
X001407Y008027D01*
X001381Y008053D01*
X001349Y008071D01*
X001313Y008081D01*
X001180Y008081D01*
X001180Y007676D01*
X001435Y007676D01*
X001435Y007756D02*
X002375Y007756D01*
X002375Y007835D02*
X001435Y007835D01*
X001435Y007913D02*
X002375Y007913D01*
X002376Y007992D02*
X001426Y007992D01*
X001351Y008071D02*
X002475Y008071D01*
X002475Y008149D02*
X000785Y008149D01*
X000785Y008071D02*
X000939Y008071D01*
X000941Y008071D02*
X000909Y008053D01*
X000883Y008027D01*
X000865Y007995D01*
X000855Y007959D01*
X000855Y007676D01*
X001110Y007676D01*
X001110Y008081D01*
X000977Y008081D01*
X000941Y008071D01*
X000864Y007992D02*
X000785Y007992D01*
X000785Y007913D02*
X000855Y007913D01*
X000855Y007835D02*
X000785Y007835D01*
X000785Y007756D02*
X000855Y007756D01*
X000855Y007678D02*
X000785Y007678D01*
X000785Y007599D02*
X000855Y007599D01*
X000855Y007521D02*
X000785Y007521D01*
X000785Y007442D02*
X000855Y007442D01*
X000855Y007364D02*
X000785Y007364D01*
X000785Y007285D02*
X000866Y007285D01*
X000785Y007207D02*
X000956Y007207D01*
X001110Y007207D02*
X001180Y007207D01*
X001180Y007285D02*
X001110Y007285D01*
X001110Y007364D02*
X001180Y007364D01*
X001180Y007442D02*
X001110Y007442D01*
X001110Y007521D02*
X001180Y007521D01*
X001180Y007599D02*
X001110Y007599D01*
X001110Y007678D02*
X001180Y007678D01*
X001180Y007756D02*
X001110Y007756D01*
X001110Y007835D02*
X001180Y007835D01*
X001180Y007913D02*
X001110Y007913D01*
X001110Y007992D02*
X001180Y007992D01*
X001180Y008071D02*
X001110Y008071D01*
X000785Y008228D02*
X002475Y008228D01*
X002475Y008306D02*
X000785Y008306D01*
X000785Y008385D02*
X002475Y008385D01*
X002475Y008463D02*
X000785Y008463D01*
X000785Y008542D02*
X002475Y008542D01*
X002475Y008620D02*
X000785Y008620D01*
X000785Y008699D02*
X002475Y008699D01*
X002475Y008777D02*
X000785Y008777D01*
X000785Y008856D02*
X002475Y008856D01*
X002475Y008934D02*
X000785Y008934D01*
X000785Y009013D02*
X002475Y009013D01*
X002475Y009092D02*
X000785Y009092D01*
X000785Y009170D02*
X002475Y009170D01*
X002418Y009249D02*
X001401Y009249D01*
X001407Y009255D02*
X001425Y009287D01*
X001435Y009323D01*
X001435Y009606D01*
X001180Y009606D01*
X001180Y009676D01*
X001110Y009676D01*
X001110Y009606D01*
X000855Y009606D01*
X000855Y009323D01*
X000865Y009287D01*
X000883Y009255D01*
X000909Y009229D01*
X000941Y009211D01*
X000977Y009201D01*
X001110Y009201D01*
X001110Y009606D01*
X001180Y009606D01*
X001180Y009201D01*
X001313Y009201D01*
X001349Y009211D01*
X001381Y009229D01*
X001407Y009255D01*
X001435Y009327D02*
X002375Y009327D01*
X002375Y009406D02*
X001435Y009406D01*
X001435Y009484D02*
X002375Y009484D01*
X002375Y009563D02*
X001435Y009563D01*
X001435Y009676D02*
X001435Y009959D01*
X001425Y009995D01*
X001407Y010027D01*
X001381Y010053D01*
X001349Y010071D01*
X001313Y010081D01*
X001180Y010081D01*
X001180Y009676D01*
X001435Y009676D01*
X001435Y009720D02*
X002375Y009720D01*
X002375Y009798D02*
X001435Y009798D01*
X001435Y009877D02*
X002375Y009877D01*
X002375Y009956D02*
X001435Y009956D01*
X001400Y010034D02*
X002418Y010034D01*
X002375Y009641D02*
X001180Y009641D01*
X001110Y009641D02*
X000785Y009641D01*
X000785Y009563D02*
X000855Y009563D01*
X000855Y009484D02*
X000785Y009484D01*
X000785Y009406D02*
X000855Y009406D01*
X000855Y009327D02*
X000785Y009327D01*
X000785Y009249D02*
X000889Y009249D01*
X001110Y009249D02*
X001180Y009249D01*
X001180Y009327D02*
X001110Y009327D01*
X001110Y009406D02*
X001180Y009406D01*
X001180Y009484D02*
X001110Y009484D01*
X001110Y009563D02*
X001180Y009563D01*
X001110Y009676D02*
X000855Y009676D01*
X000855Y009959D01*
X000865Y009995D01*
X000883Y010027D01*
X000909Y010053D01*
X000941Y010071D01*
X000977Y010081D01*
X001110Y010081D01*
X001110Y009676D01*
X001110Y009720D02*
X001180Y009720D01*
X001180Y009798D02*
X001110Y009798D01*
X001110Y009877D02*
X001180Y009877D01*
X001180Y009956D02*
X001110Y009956D01*
X001110Y010034D02*
X001180Y010034D01*
X000890Y010034D02*
X000785Y010034D01*
X000785Y009956D02*
X000855Y009956D01*
X000855Y009877D02*
X000785Y009877D01*
X000785Y009798D02*
X000855Y009798D01*
X000855Y009720D02*
X000785Y009720D01*
X000785Y010977D02*
X002819Y010977D01*
X002740Y011055D02*
X000785Y011055D01*
X000785Y011134D02*
X000881Y011134D01*
X000855Y011212D02*
X000785Y011212D01*
X000785Y011291D02*
X000855Y011291D01*
X000855Y011369D02*
X000785Y011369D01*
X000785Y011448D02*
X000855Y011448D01*
X001110Y011448D02*
X001180Y011448D01*
X001180Y011369D02*
X001110Y011369D01*
X001110Y011291D02*
X001180Y011291D01*
X001180Y011212D02*
X001110Y011212D01*
X001110Y011134D02*
X001180Y011134D01*
X001409Y011134D02*
X002408Y011134D01*
X002375Y011212D02*
X001435Y011212D01*
X001435Y011291D02*
X002375Y011291D01*
X002375Y011369D02*
X001435Y011369D01*
X001180Y011605D02*
X001110Y011605D01*
X001110Y011684D02*
X001180Y011684D01*
X001180Y011762D02*
X001110Y011762D01*
X001110Y011841D02*
X001180Y011841D01*
X001180Y011919D02*
X001110Y011919D01*
X001369Y013097D02*
X002444Y013097D01*
X002375Y013176D02*
X001429Y013176D01*
X001435Y013254D02*
X002375Y013254D01*
X002375Y013333D02*
X001435Y013333D01*
X001435Y013411D02*
X002375Y013411D01*
X002846Y013097D02*
X003493Y013097D01*
X003454Y013333D02*
X002915Y013333D01*
X002915Y013411D02*
X003770Y013411D01*
X003770Y013431D02*
X003454Y013431D01*
X003454Y013606D01*
X003463Y013642D01*
X003482Y013674D01*
X003508Y013700D01*
X003540Y013718D01*
X003575Y013728D01*
X003770Y013728D01*
X003770Y013431D01*
X003770Y013490D02*
X003850Y013490D01*
X003850Y013569D02*
X003770Y013569D01*
X003770Y013647D02*
X003850Y013647D01*
X003850Y013726D02*
X003770Y013726D01*
X003770Y013961D02*
X003850Y013961D01*
X003850Y014040D02*
X003770Y014040D01*
X003770Y014118D02*
X003850Y014118D01*
X003850Y014197D02*
X003770Y014197D01*
X003770Y014275D02*
X001938Y014275D01*
X001954Y014354D02*
X003454Y014354D01*
X003454Y014197D02*
X001905Y014197D01*
X001852Y014118D02*
X003454Y014118D01*
X003457Y014040D02*
X001762Y014040D01*
X001560Y014040D02*
X001480Y014040D01*
X001480Y014118D02*
X001560Y014118D01*
X001560Y014197D02*
X001480Y014197D01*
X001480Y014275D02*
X001560Y014275D01*
X001560Y014511D02*
X001480Y014511D01*
X001480Y014590D02*
X001560Y014590D01*
X001560Y014668D02*
X001480Y014668D01*
X001480Y014747D02*
X001560Y014747D01*
X001983Y015061D02*
X002089Y015061D01*
X002100Y015139D02*
X002014Y015139D01*
X002014Y015218D02*
X002109Y015218D01*
X002109Y015296D02*
X002014Y015296D01*
X002014Y015375D02*
X002109Y015375D01*
X002109Y015454D02*
X002014Y015454D01*
X002014Y015532D02*
X002109Y015532D01*
X002109Y015611D02*
X002014Y015611D01*
X002014Y015689D02*
X002109Y015689D01*
X002109Y015768D02*
X002014Y015768D01*
X002014Y015846D02*
X002109Y015846D01*
X002109Y015925D02*
X002014Y015925D01*
X001950Y016003D02*
X002109Y016003D01*
X002124Y016239D02*
X001718Y016239D01*
X001827Y016318D02*
X002118Y016318D01*
X002136Y016396D02*
X001891Y016396D01*
X001929Y016475D02*
X002187Y016475D01*
X001950Y016553D02*
X003070Y016553D01*
X003070Y016475D02*
X002546Y016475D01*
X002597Y016396D02*
X003070Y016396D01*
X003070Y016318D02*
X002615Y016318D01*
X002608Y016239D02*
X003070Y016239D01*
X003415Y016003D02*
X003494Y016003D01*
X003494Y016082D02*
X003470Y016082D01*
X003470Y016160D02*
X003494Y016160D01*
X003494Y016239D02*
X003470Y016239D01*
X003470Y016318D02*
X003529Y016318D01*
X003470Y016396D02*
X005225Y016396D01*
X005225Y016318D02*
X004761Y016318D01*
X004796Y016239D02*
X004946Y016239D01*
X005196Y016475D02*
X003470Y016475D01*
X003470Y016553D02*
X005117Y016553D01*
X005039Y016632D02*
X004804Y016632D01*
X004816Y016710D02*
X004960Y016710D01*
X004816Y017103D02*
X005108Y017103D01*
X005141Y017182D02*
X004772Y017182D01*
X004792Y017496D02*
X005939Y017496D01*
X005860Y017574D02*
X004796Y017574D01*
X005217Y017260D02*
X003470Y017260D01*
X003470Y017182D02*
X003490Y017182D01*
X003470Y017339D02*
X006096Y017339D01*
X006110Y017260D02*
X005573Y017260D01*
X005649Y017182D02*
X006110Y017182D01*
X006110Y017103D02*
X005682Y017103D01*
X005693Y017024D02*
X006110Y017024D01*
X006110Y016946D02*
X005705Y016946D01*
X005784Y016867D02*
X006110Y016867D01*
X006270Y016891D02*
X006270Y017391D01*
X005895Y017766D01*
X006018Y017417D02*
X003470Y017417D01*
X003470Y017496D02*
X003498Y017496D01*
X003770Y017182D02*
X003850Y017182D01*
X003850Y017103D02*
X003770Y017103D01*
X003770Y017024D02*
X003850Y017024D01*
X003850Y016946D02*
X003770Y016946D01*
X003770Y016789D02*
X003850Y016789D01*
X003850Y016710D02*
X003770Y016710D01*
X003770Y016632D02*
X003850Y016632D01*
X004092Y016318D02*
X004198Y016318D01*
X004163Y016239D02*
X004127Y016239D01*
X004127Y016160D02*
X004163Y016160D01*
X004163Y016082D02*
X004127Y016082D01*
X004127Y016003D02*
X004163Y016003D01*
X004163Y015925D02*
X004127Y015925D01*
X004127Y015846D02*
X004163Y015846D01*
X004163Y015768D02*
X004127Y015768D01*
X004067Y015689D02*
X004223Y015689D01*
X004209Y015454D02*
X004081Y015454D01*
X004127Y015375D02*
X004163Y015375D01*
X004163Y015296D02*
X004127Y015296D01*
X004127Y015218D02*
X004163Y015218D01*
X004163Y015139D02*
X004127Y015139D01*
X004127Y015061D02*
X004163Y015061D01*
X004163Y014982D02*
X004127Y014982D01*
X004127Y014904D02*
X004163Y014904D01*
X004212Y014825D02*
X004078Y014825D01*
X004087Y014590D02*
X005585Y014590D01*
X005585Y014668D02*
X002610Y014668D01*
X002615Y014747D02*
X005585Y014747D01*
X005585Y014825D02*
X004747Y014825D01*
X004796Y014904D02*
X005585Y014904D01*
X005585Y014982D02*
X005352Y014982D01*
X005430Y015061D02*
X005585Y015061D01*
X005585Y015139D02*
X005509Y015139D01*
X005264Y015375D02*
X004796Y015375D01*
X004750Y015454D02*
X005342Y015454D01*
X005571Y015532D02*
X003369Y015532D01*
X003448Y015454D02*
X003540Y015454D01*
X003605Y015611D02*
X005565Y015611D01*
X005565Y015689D02*
X004736Y015689D01*
X004796Y015768D02*
X004971Y015768D01*
X005319Y015768D02*
X005565Y015768D01*
X005574Y015846D02*
X005397Y015846D01*
X005430Y015925D02*
X005496Y015925D01*
X005965Y015683D02*
X006345Y015683D01*
X006345Y015792D01*
X006335Y015827D01*
X006325Y015846D01*
X006452Y015846D01*
X006461Y015843D02*
X006579Y015843D01*
X006689Y015888D01*
X006725Y015924D01*
X006725Y015358D01*
X006689Y015394D01*
X006579Y015439D01*
X006461Y015439D01*
X006351Y015394D01*
X006325Y015368D01*
X006325Y015501D01*
X006335Y015519D01*
X006345Y015555D01*
X006345Y015663D01*
X005965Y015663D01*
X005965Y015683D01*
X006345Y015689D02*
X006725Y015689D01*
X006725Y015611D02*
X006345Y015611D01*
X006339Y015532D02*
X006725Y015532D01*
X006725Y015454D02*
X006325Y015454D01*
X006325Y015375D02*
X006332Y015375D01*
X006708Y015375D02*
X006725Y015375D01*
X006725Y015768D02*
X006345Y015768D01*
X006325Y015846D02*
X006325Y015914D01*
X006351Y015888D01*
X006461Y015843D01*
X006588Y015846D02*
X006725Y015846D01*
X006895Y016266D02*
X006270Y016891D01*
X006543Y016868D02*
X006543Y017206D01*
X006543Y016868D02*
X006895Y016516D01*
X007895Y016516D01*
X007645Y015516D02*
X007645Y014766D01*
X008117Y014294D01*
X008117Y013826D01*
X007803Y013826D02*
X007803Y014234D01*
X007270Y014766D01*
X007270Y015141D01*
X007183Y014197D02*
X007163Y014197D01*
X007163Y014118D02*
X007183Y014118D01*
X007183Y014040D02*
X007163Y014040D01*
X007163Y013961D02*
X007183Y013961D01*
X007183Y013883D02*
X007163Y013883D01*
X007163Y013804D02*
X007183Y013804D01*
X007183Y013726D02*
X007163Y013726D01*
X007163Y013647D02*
X007183Y013647D01*
X007183Y013569D02*
X007163Y013569D01*
X007163Y013490D02*
X007183Y013490D01*
X007318Y013411D02*
X007028Y013411D01*
X007028Y013333D02*
X007338Y013333D01*
X007416Y013254D02*
X007028Y013254D01*
X007028Y013176D02*
X007475Y013176D01*
X007475Y013097D02*
X007028Y013097D01*
X007028Y013019D02*
X007475Y013019D01*
X007454Y012940D02*
X007028Y012940D01*
X007028Y012862D02*
X007375Y012862D01*
X007350Y012783D02*
X007028Y012783D01*
X007028Y012705D02*
X007350Y012705D01*
X007212Y012626D02*
X007028Y012626D01*
X007033Y012547D02*
X007203Y012547D01*
X007203Y012469D02*
X006967Y012469D01*
X006962Y012390D02*
X007203Y012390D01*
X007203Y012312D02*
X006962Y012312D01*
X006962Y012233D02*
X007203Y012233D01*
X007203Y012155D02*
X006962Y012155D01*
X006954Y012076D02*
X007211Y012076D01*
X007225Y011998D02*
X006940Y011998D01*
X006981Y011919D02*
X007184Y011919D01*
X007183Y011841D02*
X006982Y011841D01*
X006982Y011762D02*
X007183Y011762D01*
X007183Y011641D02*
X007183Y011446D01*
X007193Y011411D01*
X007211Y011379D01*
X007237Y011353D01*
X007269Y011334D01*
X007305Y011325D01*
X007480Y011325D01*
X007480Y011641D01*
X007183Y011641D01*
X007183Y011605D02*
X006982Y011605D01*
X006982Y011526D02*
X007183Y011526D01*
X007183Y011448D02*
X006982Y011448D01*
X006944Y011369D02*
X007221Y011369D01*
X007480Y011369D02*
X007560Y011369D01*
X007560Y011448D02*
X007480Y011448D01*
X007480Y011526D02*
X007560Y011526D01*
X007560Y011605D02*
X007480Y011605D01*
X007480Y011684D02*
X006685Y011684D01*
X006685Y011605D02*
X006605Y011605D01*
X006605Y011641D02*
X006605Y011325D01*
X006430Y011325D01*
X006394Y011334D01*
X006362Y011353D01*
X006336Y011379D01*
X006318Y011411D01*
X006308Y011446D01*
X006308Y011641D01*
X006605Y011641D01*
X006605Y011684D02*
X006005Y011684D01*
X006005Y011762D02*
X006308Y011762D01*
X006308Y011841D02*
X006005Y011841D01*
X005955Y011919D02*
X006309Y011919D01*
X006350Y011998D02*
X004690Y011998D01*
X004690Y012076D02*
X006336Y012076D01*
X006328Y012155D02*
X005997Y012155D01*
X006005Y012233D02*
X006328Y012233D01*
X006328Y012312D02*
X006005Y012312D01*
X006005Y012705D02*
X006688Y012705D01*
X006688Y012783D02*
X006005Y012783D01*
X005957Y012862D02*
X006688Y012862D01*
X006688Y012940D02*
X004690Y012940D01*
X004690Y012862D02*
X005065Y012862D01*
X005017Y012783D02*
X004690Y012783D01*
X004690Y012705D02*
X005017Y012705D01*
X005017Y012626D02*
X004690Y012626D01*
X004690Y012547D02*
X005017Y012547D01*
X005017Y012469D02*
X004690Y012469D01*
X004690Y012390D02*
X005017Y012390D01*
X005017Y012312D02*
X004690Y012312D01*
X004690Y012233D02*
X005017Y012233D01*
X005026Y012155D02*
X004690Y012155D01*
X004690Y011919D02*
X005067Y011919D01*
X005017Y011841D02*
X004690Y011841D01*
X004690Y011762D02*
X005017Y011762D01*
X005017Y011684D02*
X004678Y011684D01*
X004599Y011605D02*
X005017Y011605D01*
X005017Y011526D02*
X004521Y011526D01*
X004350Y011841D02*
X004273Y011841D01*
X004223Y011919D02*
X004350Y011919D01*
X004350Y011998D02*
X002815Y011998D01*
X002815Y012076D02*
X004350Y012076D01*
X004350Y012155D02*
X004265Y012155D01*
X004273Y012163D02*
X004273Y012814D01*
X004203Y012884D01*
X003355Y012884D01*
X003285Y012814D01*
X003285Y012163D01*
X003355Y012093D01*
X004203Y012093D01*
X004273Y012163D01*
X004273Y012233D02*
X004350Y012233D01*
X004350Y012312D02*
X004273Y012312D01*
X004273Y012390D02*
X004350Y012390D01*
X004350Y012469D02*
X004273Y012469D01*
X004273Y012547D02*
X004350Y012547D01*
X004350Y012626D02*
X004273Y012626D01*
X004273Y012705D02*
X004350Y012705D01*
X004350Y012783D02*
X004273Y012783D01*
X004225Y012862D02*
X004350Y012862D01*
X004350Y012940D02*
X002815Y012940D01*
X002815Y012862D02*
X003333Y012862D01*
X003285Y012783D02*
X002815Y012783D01*
X002815Y012705D02*
X003285Y012705D01*
X003285Y012626D02*
X002815Y012626D01*
X002815Y012547D02*
X003285Y012547D01*
X003285Y012469D02*
X002815Y012469D01*
X002815Y012390D02*
X003285Y012390D01*
X003285Y012312D02*
X002815Y012312D01*
X002815Y012233D02*
X003285Y012233D01*
X003293Y012155D02*
X002815Y012155D01*
X002815Y013019D02*
X004350Y013019D01*
X004190Y013097D02*
X004128Y013097D01*
X003850Y013097D02*
X003770Y013097D01*
X003770Y013176D02*
X003850Y013176D01*
X003850Y013254D02*
X003770Y013254D01*
X003770Y013333D02*
X003850Y013333D01*
X003454Y013490D02*
X002915Y013490D01*
X002915Y013569D02*
X003454Y013569D01*
X003466Y013647D02*
X002915Y013647D01*
X002915Y013726D02*
X003567Y013726D01*
X003504Y013961D02*
X000785Y013961D01*
X000785Y013883D02*
X000872Y013883D01*
X000865Y013870D02*
X000855Y013834D01*
X000855Y013551D01*
X001110Y013551D01*
X001110Y013956D01*
X000977Y013956D01*
X000941Y013946D01*
X000909Y013928D01*
X000883Y013902D01*
X000865Y013870D01*
X000855Y013804D02*
X000785Y013804D01*
X000785Y013726D02*
X000855Y013726D01*
X000855Y013647D02*
X000785Y013647D01*
X000785Y013569D02*
X000855Y013569D01*
X000785Y013490D02*
X001110Y013490D01*
X001110Y013569D02*
X001180Y013569D01*
X001180Y013647D02*
X001110Y013647D01*
X001110Y013726D02*
X001180Y013726D01*
X001180Y013804D02*
X001110Y013804D01*
X001110Y013883D02*
X001180Y013883D01*
X000855Y013411D02*
X000785Y013411D01*
X000785Y013333D02*
X000855Y013333D01*
X000855Y013254D02*
X000785Y013254D01*
X000785Y013176D02*
X000861Y013176D01*
X002578Y014590D02*
X003533Y014590D01*
X003543Y014825D02*
X003212Y014825D01*
X003254Y014904D02*
X003494Y014904D01*
X003438Y014982D02*
X003254Y014982D01*
X003254Y015061D02*
X003360Y015061D01*
X003281Y015139D02*
X003244Y015139D01*
X002672Y014982D02*
X002671Y014982D01*
X002671Y014904D02*
X002672Y014904D01*
X002671Y014825D02*
X002672Y014825D01*
X002898Y013883D02*
X004771Y013883D01*
X004758Y013961D02*
X004850Y013961D01*
X004816Y014040D02*
X006323Y014040D01*
X006323Y014118D02*
X005488Y014118D01*
X005566Y014197D02*
X005652Y014197D01*
X005400Y014511D02*
X004816Y014511D01*
X004693Y013804D02*
X002915Y013804D01*
X003770Y014354D02*
X003850Y014354D01*
X003850Y014433D02*
X003770Y014433D01*
X003770Y014511D02*
X003850Y014511D01*
X003850Y014590D02*
X003770Y014590D01*
X004117Y013961D02*
X004201Y013961D01*
X004053Y013726D02*
X004614Y013726D01*
X004816Y013411D02*
X006688Y013411D01*
X006688Y013333D02*
X004816Y013333D01*
X004816Y013254D02*
X006688Y013254D01*
X006688Y013176D02*
X004816Y013176D01*
X004769Y013097D02*
X006688Y013097D01*
X006688Y013019D02*
X004690Y013019D01*
X004859Y013490D02*
X006359Y013490D01*
X006323Y013569D02*
X004938Y013569D01*
X005016Y013647D02*
X006323Y013647D01*
X006258Y014197D02*
X007002Y014197D01*
X008020Y014766D02*
X008432Y014354D01*
X008432Y013826D01*
X009045Y013176D02*
X009388Y013176D01*
X009356Y013097D02*
X008967Y013097D01*
X008888Y013019D02*
X009347Y013019D01*
X009353Y012940D02*
X008810Y012940D01*
X008731Y012862D02*
X009386Y012862D01*
X009456Y012783D02*
X008653Y012783D01*
X008574Y012705D02*
X009716Y012705D01*
X009795Y012626D02*
X009578Y012626D01*
X009607Y012547D02*
X009809Y012547D01*
X009807Y012469D02*
X009809Y012469D01*
X009600Y012076D02*
X009579Y012076D01*
X009600Y011998D02*
X009537Y011998D01*
X009541Y011369D02*
X009600Y011369D01*
X009630Y011291D02*
X006005Y011291D01*
X006005Y011369D02*
X006346Y011369D01*
X006308Y011448D02*
X006005Y011448D01*
X006005Y011526D02*
X006308Y011526D01*
X006308Y011605D02*
X006005Y011605D01*
X005999Y011212D02*
X009708Y011212D01*
X008999Y011369D02*
X007819Y011369D01*
X007857Y011448D02*
X008183Y011448D01*
X008118Y011526D02*
X007857Y011526D01*
X007857Y011605D02*
X008118Y011605D01*
X008118Y011684D02*
X007560Y011684D01*
X007857Y011762D02*
X008118Y011762D01*
X008118Y011841D02*
X007857Y011841D01*
X007856Y011919D02*
X008118Y011919D01*
X008187Y011998D02*
X007815Y011998D01*
X007829Y012076D02*
X008145Y012076D01*
X008565Y012626D02*
X008962Y012626D01*
X008934Y012547D02*
X008643Y012547D01*
X008672Y012469D02*
X008934Y012469D01*
X008934Y012390D02*
X008672Y012390D01*
X008672Y012312D02*
X008934Y012312D01*
X008934Y012233D02*
X008672Y012233D01*
X008672Y012155D02*
X008934Y012155D01*
X008961Y012076D02*
X008645Y012076D01*
X008603Y011998D02*
X009003Y011998D01*
X008934Y011919D02*
X008672Y011919D01*
X008672Y011526D02*
X008934Y011526D01*
X008934Y011448D02*
X008607Y011448D01*
X009124Y013254D02*
X009461Y013254D01*
X009202Y013333D02*
X010463Y013333D01*
X010541Y013254D02*
X009829Y013254D01*
X009902Y013176D02*
X010620Y013176D01*
X010698Y013097D02*
X009934Y013097D01*
X009943Y013019D02*
X010777Y013019D01*
X010850Y012940D02*
X009961Y012940D01*
X010040Y012862D02*
X010850Y012862D01*
X010850Y012783D02*
X010118Y012783D01*
X010197Y012705D02*
X010850Y012705D01*
X010850Y012626D02*
X010453Y012626D01*
X010482Y012547D02*
X010772Y012547D01*
X010743Y012469D02*
X010482Y012469D01*
X010482Y012390D02*
X010743Y012390D01*
X010743Y012312D02*
X010482Y012312D01*
X010482Y012233D02*
X010743Y012233D01*
X010743Y012155D02*
X010482Y012155D01*
X010454Y012076D02*
X010770Y012076D01*
X010812Y011998D02*
X010412Y011998D01*
X010482Y011919D02*
X010743Y011919D01*
X010743Y011526D02*
X010482Y011526D01*
X010482Y011448D02*
X010808Y011448D01*
X011309Y009720D02*
X009982Y009720D01*
X010052Y009641D02*
X010368Y009641D01*
X010368Y009563D02*
X010131Y009563D01*
X010210Y009484D02*
X010368Y009484D01*
X010368Y009406D02*
X010288Y009406D01*
X010345Y009327D02*
X010368Y009327D01*
X010368Y009249D02*
X010345Y009249D01*
X010345Y009170D02*
X010426Y009170D01*
X010406Y009092D02*
X010352Y009092D01*
X010179Y008699D02*
X009982Y008699D01*
X009982Y008777D02*
X010101Y008777D01*
X010022Y008856D02*
X009982Y008856D01*
X009982Y008620D02*
X010386Y008620D01*
X010323Y008385D02*
X010868Y008385D01*
X010790Y008463D02*
X009139Y008463D01*
X009056Y008385D02*
X009467Y008385D01*
X009823Y008385D02*
X009967Y008385D01*
X009964Y008542D02*
X010711Y008542D01*
X010947Y008306D02*
X010400Y008306D01*
X009309Y009720D02*
X006482Y009720D01*
X006605Y011369D02*
X006685Y011369D01*
X006685Y011448D02*
X006605Y011448D01*
X006605Y011526D02*
X006685Y011526D01*
X005017Y011448D02*
X004273Y011448D01*
X004273Y011369D02*
X005017Y011369D01*
X005017Y011291D02*
X004273Y011291D01*
X004267Y011212D02*
X005023Y011212D01*
X004938Y009092D02*
X004084Y009092D01*
X003850Y009092D02*
X003770Y009092D01*
X003770Y009013D02*
X003850Y009013D01*
X003850Y008934D02*
X003770Y008934D01*
X003770Y008856D02*
X003850Y008856D01*
X003454Y008699D02*
X002815Y008699D01*
X002815Y008620D02*
X003454Y008620D01*
X003456Y008542D02*
X002815Y008542D01*
X002815Y008149D02*
X003494Y008149D01*
X003292Y008071D02*
X002815Y008071D01*
X002914Y007992D02*
X003213Y007992D01*
X003135Y007913D02*
X002915Y007913D01*
X002915Y007835D02*
X003070Y007835D01*
X003070Y007756D02*
X002915Y007756D01*
X002915Y007678D02*
X003070Y007678D01*
X003070Y007599D02*
X002915Y007599D01*
X002915Y007521D02*
X003070Y007521D01*
X003070Y007442D02*
X002915Y007442D01*
X002915Y007364D02*
X003070Y007364D01*
X003070Y007285D02*
X002909Y007285D01*
X003070Y007207D02*
X001334Y007207D01*
X001293Y007128D02*
X000785Y007128D01*
X000785Y007049D02*
X001199Y007049D01*
X001141Y006971D02*
X000785Y006971D01*
X000785Y006892D02*
X001106Y006892D01*
X001087Y006814D02*
X000785Y006814D01*
X000785Y006264D02*
X002109Y006264D01*
X002133Y006343D02*
X001670Y006343D01*
X001806Y006421D02*
X002118Y006421D01*
X002127Y006500D02*
X001876Y006500D01*
X001921Y006578D02*
X002165Y006578D01*
X002269Y006657D02*
X001947Y006657D01*
X001953Y006814D02*
X003070Y006814D01*
X003070Y006892D02*
X001934Y006892D01*
X001899Y006971D02*
X003070Y006971D01*
X003070Y007049D02*
X001842Y007049D01*
X001747Y007128D02*
X003070Y007128D01*
X003470Y007285D02*
X003474Y007285D01*
X003470Y007364D02*
X005196Y007364D01*
X005132Y007285D02*
X004794Y007285D01*
X004816Y007207D02*
X005099Y007207D01*
X004177Y006735D02*
X004140Y006735D01*
X004113Y006421D02*
X004177Y006421D01*
X004163Y006343D02*
X004127Y006343D01*
X004127Y006264D02*
X004163Y006264D01*
X004163Y006185D02*
X004127Y006185D01*
X004127Y006107D02*
X004163Y006107D01*
X004163Y006028D02*
X004127Y006028D01*
X004127Y005950D02*
X004163Y005950D01*
X004166Y005871D02*
X004124Y005871D01*
X004102Y005557D02*
X004188Y005557D01*
X004163Y005479D02*
X004127Y005479D01*
X004127Y005400D02*
X004163Y005400D01*
X004163Y005321D02*
X004127Y005321D01*
X004127Y005243D02*
X004163Y005243D01*
X004163Y005164D02*
X004127Y005164D01*
X004127Y005086D02*
X004163Y005086D01*
X004163Y005007D02*
X004127Y005007D01*
X004120Y004693D02*
X004199Y004693D01*
X003850Y004693D02*
X003770Y004693D01*
X003770Y004615D02*
X003850Y004615D01*
X003850Y004536D02*
X003770Y004536D01*
X003770Y004458D02*
X003850Y004458D01*
X004083Y004065D02*
X004829Y004065D01*
X004815Y004143D02*
X006323Y004143D01*
X006323Y004222D02*
X005466Y004222D01*
X005545Y004300D02*
X006372Y004300D01*
X006323Y003751D02*
X004995Y003751D01*
X004916Y003672D02*
X006323Y003672D01*
X006380Y003594D02*
X004838Y003594D01*
X004816Y003515D02*
X006688Y003515D01*
X006688Y003436D02*
X004816Y003436D01*
X004816Y003358D02*
X006688Y003358D01*
X006688Y003279D02*
X004816Y003279D01*
X004748Y003201D02*
X006688Y003201D01*
X006688Y003122D02*
X004690Y003122D01*
X004690Y003044D02*
X006688Y003044D01*
X006688Y002965D02*
X005979Y002965D01*
X006005Y002887D02*
X006688Y002887D01*
X006394Y002808D02*
X006005Y002808D01*
X006005Y002415D02*
X006328Y002415D01*
X006328Y002337D02*
X006005Y002337D01*
X005975Y002258D02*
X006328Y002258D01*
X006358Y002180D02*
X004690Y002180D01*
X004690Y002258D02*
X005047Y002258D01*
X005017Y002337D02*
X004690Y002337D01*
X004690Y002415D02*
X005017Y002415D01*
X005017Y002494D02*
X004690Y002494D01*
X004690Y002572D02*
X005017Y002572D01*
X005017Y002651D02*
X004690Y002651D01*
X004690Y002730D02*
X005017Y002730D01*
X005017Y002808D02*
X004690Y002808D01*
X004690Y002887D02*
X005017Y002887D01*
X005044Y002965D02*
X004690Y002965D01*
X004350Y002965D02*
X004246Y002965D01*
X004273Y002887D02*
X004350Y002887D01*
X004350Y002808D02*
X004273Y002808D01*
X004273Y002730D02*
X004350Y002730D01*
X004350Y002651D02*
X004273Y002651D01*
X004273Y002572D02*
X004350Y002572D01*
X004350Y002494D02*
X004273Y002494D01*
X004273Y002415D02*
X004350Y002415D01*
X004350Y002337D02*
X004273Y002337D01*
X004243Y002258D02*
X004350Y002258D01*
X004690Y002101D02*
X006332Y002101D01*
X006308Y002023D02*
X005976Y002023D01*
X006005Y001944D02*
X006308Y001944D01*
X006308Y001866D02*
X006005Y001866D01*
X005978Y001316D02*
X009730Y001316D01*
X009600Y001551D02*
X009598Y001551D01*
X009600Y002101D02*
X009558Y002101D01*
X009557Y002180D02*
X009600Y002180D01*
X009479Y002887D02*
X008631Y002887D01*
X008710Y002965D02*
X009399Y002965D01*
X009362Y003044D02*
X008788Y003044D01*
X008867Y003122D02*
X009347Y003122D01*
X009347Y003201D02*
X008945Y003201D01*
X009024Y003279D02*
X009379Y003279D01*
X009440Y003358D02*
X009102Y003358D01*
X009181Y003436D02*
X009579Y003436D01*
X009711Y003436D02*
X010484Y003436D01*
X010563Y003358D02*
X009850Y003358D01*
X009911Y003279D02*
X010641Y003279D01*
X010720Y003201D02*
X009943Y003201D01*
X009943Y003122D02*
X010798Y003122D01*
X010850Y003044D02*
X009983Y003044D01*
X009335Y004854D02*
X008807Y004854D01*
X008770Y004891D01*
X008432Y004479D02*
X008020Y004891D01*
X008020Y005266D01*
X008432Y004479D02*
X008432Y003951D01*
X009335Y005169D02*
X009742Y005169D01*
X009895Y005016D01*
X008967Y007521D02*
X011445Y007521D01*
X013505Y010113D02*
X003345Y010113D01*
X004119Y008463D02*
X004199Y008463D01*
X005487Y005243D02*
X005585Y005243D01*
X005457Y004693D02*
X004761Y004693D01*
X004816Y004615D02*
X005378Y004615D01*
X004750Y003986D02*
X002915Y003986D01*
X002915Y003908D02*
X004671Y003908D01*
X004210Y003829D02*
X004105Y003829D01*
X003850Y003436D02*
X003770Y003436D01*
X003770Y003358D02*
X003850Y003358D01*
X003850Y003279D02*
X003770Y003279D01*
X003770Y003201D02*
X003850Y003201D01*
X004102Y003201D02*
X004212Y003201D01*
X003454Y003594D02*
X002915Y003594D01*
X002915Y003672D02*
X003454Y003672D01*
X003459Y003751D02*
X002915Y003751D01*
X002915Y003829D02*
X003515Y003829D01*
X004690Y002023D02*
X005046Y002023D01*
X005017Y001944D02*
X004690Y001944D01*
X004690Y001866D02*
X005017Y001866D01*
X005017Y001787D02*
X004656Y001787D01*
X004578Y001709D02*
X005017Y001709D01*
X005017Y001630D02*
X004499Y001630D01*
X004273Y001551D02*
X005017Y001551D01*
X005017Y001473D02*
X004273Y001473D01*
X004273Y001394D02*
X005017Y001394D01*
X005045Y001316D02*
X004245Y001316D01*
X003312Y001316D02*
X003086Y001316D01*
X003007Y001394D02*
X003285Y001394D01*
X006605Y001473D02*
X006685Y001473D01*
X006685Y001551D02*
X006605Y001551D01*
X006605Y001630D02*
X006685Y001630D01*
X007560Y001787D02*
X008118Y001787D01*
X008118Y001709D02*
X007857Y001709D01*
X007857Y001630D02*
X008126Y001630D01*
X008118Y001866D02*
X007857Y001866D01*
X007857Y001944D02*
X008118Y001944D01*
X008118Y002023D02*
X007857Y002023D01*
X007833Y002101D02*
X008166Y002101D01*
X008167Y002180D02*
X007807Y002180D01*
X007837Y002258D02*
X008118Y002258D01*
X006543Y006993D02*
X006543Y007331D01*
X007972Y007835D02*
X007974Y007835D01*
X007972Y007913D02*
X008052Y007913D01*
X007986Y007992D02*
X008131Y007992D01*
X008065Y008071D02*
X008209Y008071D01*
X008144Y008149D02*
X008288Y008149D01*
X008222Y008228D02*
X008366Y008228D01*
X008301Y008306D02*
X008445Y008306D01*
X008556Y008385D02*
X008734Y008385D01*
X008651Y008463D02*
X008639Y008463D01*
X011948Y014197D02*
X012190Y014197D01*
X012222Y014275D02*
X012027Y014275D01*
X012085Y014354D02*
X012290Y014354D01*
X012370Y014433D02*
X012085Y014433D01*
X012085Y014590D02*
X012394Y014590D01*
X012300Y014668D02*
X012085Y014668D01*
X012036Y014747D02*
X012226Y014747D01*
X012194Y014825D02*
X011958Y014825D01*
X011941Y015218D02*
X012198Y015218D01*
X012233Y015296D02*
X012019Y015296D01*
X012065Y015375D02*
X012311Y015375D01*
X012421Y015454D02*
X012065Y015454D01*
X012065Y015532D02*
X012533Y015532D01*
X012357Y015611D02*
X012065Y015611D01*
X012065Y015689D02*
X012279Y015689D01*
X012217Y015768D02*
X011987Y015768D01*
X012032Y015846D02*
X011909Y015846D01*
X011953Y015925D02*
X011830Y015925D01*
X011875Y016003D02*
X011398Y016003D01*
X011319Y016082D02*
X011796Y016082D01*
X012126Y016318D02*
X012254Y016318D01*
X012207Y016239D02*
X012205Y016239D01*
X012332Y016396D02*
X012065Y016396D01*
X012065Y016475D02*
X012472Y016475D01*
X012526Y016519D02*
X012605Y016506D01*
X012605Y016976D01*
X012135Y016976D01*
X012135Y016976D01*
X012148Y016897D01*
X012172Y016820D01*
X012209Y016749D01*
X012256Y016684D01*
X012313Y016627D01*
X012378Y016580D01*
X012449Y016543D01*
X012526Y016519D01*
X012605Y016506D02*
X012605Y016506D01*
X012605Y016553D02*
X012685Y016553D01*
X012685Y016506D02*
X012764Y016519D01*
X012841Y016543D01*
X012912Y016580D01*
X012977Y016627D01*
X013034Y016684D01*
X013081Y016749D01*
X013118Y016820D01*
X013142Y016897D01*
X013155Y016976D01*
X012685Y016976D01*
X012685Y017056D01*
X012605Y017056D01*
X012605Y016976D01*
X012685Y016976D01*
X012685Y016506D01*
X012685Y016506D01*
X012685Y016632D02*
X012605Y016632D01*
X012605Y016710D02*
X012685Y016710D01*
X012685Y016789D02*
X012605Y016789D01*
X012605Y016867D02*
X012685Y016867D01*
X012685Y016946D02*
X012605Y016946D01*
X012605Y017024D02*
X011845Y017024D01*
X011845Y016946D02*
X012140Y016946D01*
X012157Y016867D02*
X011888Y016867D01*
X011966Y016789D02*
X012188Y016789D01*
X012237Y016710D02*
X012045Y016710D01*
X012065Y016632D02*
X012308Y016632D01*
X012430Y016553D02*
X012065Y016553D01*
X012135Y017056D02*
X012605Y017056D01*
X012605Y017506D01*
X012605Y017976D01*
X012135Y017976D01*
X012135Y017976D01*
X012148Y017897D01*
X012172Y017820D01*
X012209Y017749D01*
X012256Y017684D01*
X012313Y017627D01*
X012378Y017580D01*
X012449Y017543D01*
X012526Y017519D01*
X012542Y017516D01*
X012526Y017513D01*
X012449Y017489D01*
X012378Y017452D01*
X012313Y017405D01*
X012256Y017348D01*
X012209Y017283D01*
X012172Y017212D01*
X012148Y017135D01*
X012135Y017056D01*
X012135Y017056D01*
X012142Y017103D02*
X011845Y017103D01*
X011845Y017182D02*
X012163Y017182D01*
X012197Y017260D02*
X011845Y017260D01*
X011845Y017339D02*
X012249Y017339D01*
X012330Y017417D02*
X011845Y017417D01*
X011845Y017496D02*
X012471Y017496D01*
X012389Y017574D02*
X011845Y017574D01*
X011845Y017653D02*
X012287Y017653D01*
X012221Y017731D02*
X011845Y017731D01*
X011845Y017810D02*
X012178Y017810D01*
X012150Y017888D02*
X011805Y017888D01*
X011727Y017967D02*
X012136Y017967D01*
X012135Y018056D02*
X012605Y018056D01*
X012605Y017976D01*
X012685Y017976D01*
X012685Y018056D01*
X012605Y018056D01*
X012605Y018526D01*
X012605Y018526D01*
X012526Y018513D01*
X012449Y018489D01*
X012378Y018452D01*
X012313Y018405D01*
X012256Y018348D01*
X012209Y018283D01*
X012172Y018212D01*
X012148Y018135D01*
X012135Y018056D01*
X012135Y018056D01*
X012146Y018124D02*
X011570Y018124D01*
X011648Y018046D02*
X012605Y018046D01*
X012605Y018124D02*
X012685Y018124D01*
X012685Y018056D02*
X012685Y018526D01*
X012685Y018526D01*
X012764Y018513D01*
X012841Y018489D01*
X012912Y018452D01*
X012977Y018405D01*
X013034Y018348D01*
X013081Y018283D01*
X013118Y018212D01*
X013142Y018135D01*
X013155Y018056D01*
X013155Y018056D01*
X012685Y018056D01*
X012685Y018046D02*
X013505Y018046D01*
X013505Y018124D02*
X013144Y018124D01*
X013121Y018203D02*
X013505Y018203D01*
X013505Y018281D02*
X013082Y018281D01*
X013023Y018360D02*
X013505Y018360D01*
X013505Y018438D02*
X012931Y018438D01*
X012743Y018517D02*
X013505Y018517D01*
X013505Y018595D02*
X012002Y018595D01*
X012002Y018641D02*
X012002Y018466D01*
X011992Y018430D01*
X011974Y018399D01*
X011948Y018372D01*
X011916Y018354D01*
X011880Y018344D01*
X011685Y018344D01*
X011685Y018641D01*
X011605Y018641D01*
X011605Y018344D01*
X011410Y018344D01*
X011374Y018354D01*
X011343Y018372D01*
X011316Y018399D01*
X011298Y018430D01*
X011289Y018466D01*
X011289Y018641D01*
X011605Y018641D01*
X011605Y018721D01*
X011289Y018721D01*
X011289Y018897D01*
X011298Y018932D01*
X011316Y018964D01*
X011343Y018990D01*
X011374Y019009D01*
X011410Y019018D01*
X011605Y019018D01*
X011605Y018721D01*
X011685Y018721D01*
X012002Y018721D01*
X012002Y018897D01*
X011992Y018932D01*
X011974Y018964D01*
X011948Y018990D01*
X011916Y019009D01*
X011880Y019018D01*
X011685Y019018D01*
X011685Y018721D01*
X011685Y018641D01*
X012002Y018641D01*
X012002Y018752D02*
X013505Y018752D01*
X013505Y018674D02*
X011685Y018674D01*
X011685Y018752D02*
X011605Y018752D01*
X011605Y018674D02*
X011020Y018674D01*
X010941Y018752D02*
X011289Y018752D01*
X011289Y018831D02*
X010922Y018831D01*
X010922Y018909D02*
X011292Y018909D01*
X011340Y018988D02*
X010862Y018988D01*
X010885Y019067D02*
X011346Y019067D01*
X011309Y019145D02*
X010922Y019145D01*
X010903Y019538D02*
X011309Y019538D01*
X011328Y019616D02*
X009962Y019616D01*
X010031Y019538D02*
X010387Y019538D01*
X010368Y019459D02*
X010110Y019459D01*
X010188Y019381D02*
X010368Y019381D01*
X010368Y019302D02*
X010267Y019302D01*
X010345Y019224D02*
X010368Y019224D01*
X010368Y019145D02*
X010345Y019145D01*
X010345Y019067D02*
X010405Y019067D01*
X010428Y018988D02*
X010345Y018988D01*
X010079Y018674D02*
X009982Y018674D01*
X009982Y018752D02*
X010001Y018752D01*
X009982Y018595D02*
X010158Y018595D01*
X009982Y018517D02*
X010368Y018517D01*
X010285Y018281D02*
X010847Y018281D01*
X010926Y018203D02*
X010380Y018203D01*
X010423Y018124D02*
X011004Y018124D01*
X011083Y018046D02*
X010443Y018046D01*
X010443Y017967D02*
X011161Y017967D01*
X011240Y017888D02*
X010415Y017888D01*
X010361Y017810D02*
X011318Y017810D01*
X011397Y017731D02*
X010238Y017731D01*
X010022Y017653D02*
X011445Y017653D01*
X011445Y017574D02*
X009944Y017574D01*
X009865Y017496D02*
X011445Y017496D01*
X011445Y017417D02*
X008967Y017417D01*
X009082Y018281D02*
X009505Y018281D01*
X009410Y018203D02*
X008322Y018203D01*
X008388Y018124D02*
X008244Y018124D01*
X008309Y018046D02*
X008165Y018046D01*
X008231Y017967D02*
X008086Y017967D01*
X008152Y017888D02*
X008008Y017888D01*
X007972Y017810D02*
X008074Y017810D01*
X007995Y017731D02*
X007972Y017731D01*
X008582Y018281D02*
X008708Y018281D01*
X009328Y019616D02*
X006462Y019616D01*
X005828Y019616D02*
X004946Y019616D01*
X004962Y019538D02*
X005509Y019538D01*
X005431Y019459D02*
X004962Y019459D01*
X004932Y019381D02*
X005352Y019381D01*
X005405Y019433D02*
X005405Y019433D01*
X005273Y019302D02*
X004879Y019302D01*
X004767Y019224D02*
X005195Y019224D01*
X005116Y019145D02*
X002894Y019145D01*
X002915Y019224D02*
X004523Y019224D01*
X004411Y019302D02*
X002915Y019302D01*
X003000Y019381D02*
X004358Y019381D01*
X004328Y019459D02*
X003079Y019459D01*
X002815Y019067D02*
X005038Y019067D01*
X004959Y018988D02*
X002815Y018988D01*
X002815Y018909D02*
X003474Y018909D01*
X003482Y018924D02*
X003463Y018892D01*
X003454Y018856D01*
X003454Y018681D01*
X003770Y018681D01*
X003770Y018978D01*
X003575Y018978D01*
X003540Y018968D01*
X003508Y018950D01*
X003482Y018924D01*
X003454Y018831D02*
X002815Y018831D01*
X002815Y018752D02*
X003454Y018752D01*
X003454Y018595D02*
X002815Y018595D01*
X002815Y018517D02*
X003454Y018517D01*
X003454Y018438D02*
X002815Y018438D01*
X002815Y018360D02*
X003481Y018360D01*
X003507Y018046D02*
X002815Y018046D01*
X002815Y018124D02*
X004280Y018124D01*
X004280Y018203D02*
X002815Y018203D01*
X002815Y018281D02*
X004280Y018281D01*
X004178Y018360D02*
X004140Y018360D01*
X004114Y018046D02*
X004176Y018046D01*
X004163Y017967D02*
X004127Y017967D01*
X004127Y017888D02*
X004163Y017888D01*
X004163Y017810D02*
X004127Y017810D01*
X004127Y017731D02*
X004163Y017731D01*
X004163Y017653D02*
X004127Y017653D01*
X004127Y017574D02*
X004163Y017574D01*
X004167Y017496D02*
X004123Y017496D01*
X004131Y017182D02*
X004187Y017182D01*
X004156Y016632D02*
X004153Y016632D01*
X003494Y017967D02*
X002815Y017967D01*
X002892Y017888D02*
X003235Y017888D01*
X003156Y017810D02*
X002915Y017810D01*
X002915Y017731D02*
X003078Y017731D01*
X003070Y017653D02*
X002915Y017653D01*
X002915Y017574D02*
X003070Y017574D01*
X003070Y017496D02*
X002915Y017496D01*
X002915Y017417D02*
X003070Y017417D01*
X003070Y017339D02*
X002915Y017339D01*
X002915Y017260D02*
X003070Y017260D01*
X003070Y017182D02*
X002915Y017182D01*
X002852Y017103D02*
X003070Y017103D01*
X003770Y018360D02*
X003850Y018360D01*
X003850Y018438D02*
X003770Y018438D01*
X003770Y018517D02*
X003850Y018517D01*
X003850Y018595D02*
X003770Y018595D01*
X003770Y018674D02*
X002815Y018674D01*
X003770Y018752D02*
X003850Y018752D01*
X003850Y018831D02*
X003770Y018831D01*
X003770Y018909D02*
X003850Y018909D01*
X004147Y018909D02*
X004165Y018909D01*
X004794Y018909D02*
X004881Y018909D01*
X004914Y019695D02*
X004824Y019785D01*
X001560Y016553D02*
X001480Y016553D01*
X001480Y016475D02*
X001560Y016475D01*
X001560Y016396D02*
X001480Y016396D01*
X001480Y016318D02*
X001560Y016318D01*
X001560Y016239D02*
X001480Y016239D01*
X000911Y017103D02*
X000785Y017103D01*
X000785Y017182D02*
X000859Y017182D01*
X000855Y017260D02*
X000785Y017260D01*
X000785Y017339D02*
X000855Y017339D01*
X000855Y017417D02*
X000785Y017417D01*
X001110Y019145D02*
X001180Y019145D01*
X001180Y019224D02*
X001110Y019224D01*
X001110Y019302D02*
X001180Y019302D01*
X001180Y019381D02*
X001110Y019381D01*
X001110Y019459D02*
X001180Y019459D01*
X001180Y019616D02*
X001110Y019616D01*
X001110Y019695D02*
X001180Y019695D01*
X001180Y019773D02*
X001110Y019773D01*
X001110Y019852D02*
X001180Y019852D01*
X001180Y019931D02*
X001110Y019931D01*
X000914Y019931D02*
X000785Y019931D01*
X000785Y019852D02*
X000860Y019852D01*
X000855Y019773D02*
X000785Y019773D01*
X000785Y019695D02*
X000855Y019695D01*
X008020Y015141D02*
X008020Y014766D01*
X008770Y014766D02*
X008807Y014729D01*
X009335Y014729D01*
X009335Y015044D02*
X009742Y015044D01*
X009895Y014891D01*
X010930Y014825D02*
X011332Y014825D01*
X011254Y014747D02*
X011008Y014747D01*
X011065Y014668D02*
X011205Y014668D01*
X011205Y014590D02*
X011065Y014590D01*
X011241Y016160D02*
X011407Y016160D01*
X011328Y016239D02*
X011065Y016239D01*
X011065Y016318D02*
X011249Y016318D01*
X011225Y016396D02*
X011065Y016396D01*
X011065Y016475D02*
X011225Y016475D01*
X011225Y016553D02*
X011065Y016553D01*
X011065Y016632D02*
X011225Y016632D01*
X011245Y016710D02*
X011065Y016710D01*
X011065Y016789D02*
X011324Y016789D01*
X011403Y016867D02*
X011063Y016867D01*
X011445Y016946D02*
X010455Y016946D01*
X010377Y017024D02*
X011445Y017024D01*
X011445Y017103D02*
X010298Y017103D01*
X010220Y017182D02*
X011445Y017182D01*
X011445Y017260D02*
X010141Y017260D01*
X010063Y017339D02*
X011445Y017339D01*
X011491Y018203D02*
X012169Y018203D01*
X012208Y018281D02*
X011413Y018281D01*
X011365Y018360D02*
X011334Y018360D01*
X011296Y018438D02*
X011256Y018438D01*
X011289Y018517D02*
X011177Y018517D01*
X011099Y018595D02*
X011289Y018595D01*
X011605Y018595D02*
X011685Y018595D01*
X011685Y018517D02*
X011605Y018517D01*
X011605Y018438D02*
X011685Y018438D01*
X011685Y018360D02*
X011605Y018360D01*
X011925Y018360D02*
X012268Y018360D01*
X012359Y018438D02*
X011994Y018438D01*
X012002Y018517D02*
X012547Y018517D01*
X012605Y018517D02*
X012685Y018517D01*
X012685Y018438D02*
X012605Y018438D01*
X012605Y018360D02*
X012685Y018360D01*
X012685Y018281D02*
X012605Y018281D01*
X012605Y018203D02*
X012685Y018203D01*
X012685Y017976D02*
X013155Y017976D01*
X013155Y017976D01*
X013142Y017897D01*
X013118Y017820D01*
X013081Y017749D01*
X013034Y017684D01*
X012977Y017627D01*
X012912Y017580D01*
X012841Y017543D01*
X012764Y017519D01*
X012748Y017516D01*
X012764Y017513D01*
X012841Y017489D01*
X012912Y017452D01*
X012977Y017405D01*
X013034Y017348D01*
X013081Y017283D01*
X013118Y017212D01*
X013142Y017135D01*
X013155Y017056D01*
X013155Y017056D01*
X012685Y017056D01*
X012685Y017506D01*
X012685Y017976D01*
X012685Y017967D02*
X012605Y017967D01*
X012605Y017888D02*
X012685Y017888D01*
X012685Y017810D02*
X012605Y017810D01*
X012605Y017731D02*
X012685Y017731D01*
X012685Y017653D02*
X012605Y017653D01*
X012605Y017574D02*
X012685Y017574D01*
X012685Y017496D02*
X012605Y017496D01*
X012605Y017417D02*
X012685Y017417D01*
X012685Y017339D02*
X012605Y017339D01*
X012605Y017260D02*
X012685Y017260D01*
X012685Y017182D02*
X012605Y017182D01*
X012605Y017103D02*
X012685Y017103D01*
X012685Y017024D02*
X013505Y017024D01*
X013505Y016946D02*
X013150Y016946D01*
X013155Y016976D02*
X013155Y016976D01*
X013133Y016867D02*
X013505Y016867D01*
X013505Y016789D02*
X013102Y016789D01*
X013053Y016710D02*
X013505Y016710D01*
X013505Y016632D02*
X012982Y016632D01*
X012860Y016553D02*
X013505Y016553D01*
X013505Y016475D02*
X012818Y016475D01*
X012958Y016396D02*
X013505Y016396D01*
X013505Y016318D02*
X013036Y016318D01*
X013083Y016239D02*
X013505Y016239D01*
X013505Y016160D02*
X013116Y016160D01*
X013135Y016082D02*
X013505Y016082D01*
X013505Y016003D02*
X013135Y016003D01*
X013135Y015925D02*
X013505Y015925D01*
X013505Y015846D02*
X013105Y015846D01*
X013073Y015768D02*
X013505Y015768D01*
X013505Y015689D02*
X013011Y015689D01*
X012933Y015611D02*
X013505Y015611D01*
X013505Y015532D02*
X012757Y015532D01*
X012869Y015454D02*
X013505Y015454D01*
X013505Y015375D02*
X012979Y015375D01*
X013057Y015296D02*
X013505Y015296D01*
X013505Y015218D02*
X013092Y015218D01*
X013124Y015139D02*
X013505Y015139D01*
X013505Y015061D02*
X013135Y015061D01*
X013135Y014982D02*
X013505Y014982D01*
X013505Y014904D02*
X013129Y014904D01*
X013096Y014825D02*
X013505Y014825D01*
X013505Y014747D02*
X013064Y014747D01*
X012990Y014668D02*
X013505Y014668D01*
X013505Y014590D02*
X012896Y014590D01*
X013148Y017103D02*
X013505Y017103D01*
X013505Y017182D02*
X013127Y017182D01*
X013093Y017260D02*
X013505Y017260D01*
X013505Y017339D02*
X013041Y017339D01*
X012960Y017417D02*
X013505Y017417D01*
X013505Y017496D02*
X012819Y017496D01*
X012901Y017574D02*
X013505Y017574D01*
X013505Y017653D02*
X013003Y017653D01*
X013069Y017731D02*
X013505Y017731D01*
X013505Y017810D02*
X013112Y017810D01*
X013140Y017888D02*
X013505Y017888D01*
X013505Y017967D02*
X013154Y017967D01*
X013505Y018831D02*
X012002Y018831D01*
X011998Y018909D02*
X013505Y018909D01*
X013505Y018988D02*
X011950Y018988D01*
X011944Y019067D02*
X013505Y019067D01*
X013505Y019145D02*
X011982Y019145D01*
X011685Y018988D02*
X011605Y018988D01*
X011605Y018909D02*
X011685Y018909D01*
X011685Y018831D02*
X011605Y018831D01*
X010768Y018360D02*
X009604Y018360D01*
X009785Y018281D02*
X010005Y018281D01*
X009910Y018203D02*
X009880Y018203D01*
X009982Y018438D02*
X010690Y018438D01*
D27*
X010145Y018016D03*
X009645Y018016D03*
X008895Y018516D03*
X008395Y018516D03*
X007895Y018516D03*
X007395Y018516D03*
X006895Y018516D03*
X006145Y018016D03*
X005895Y017016D03*
X005395Y017016D03*
X005020Y017391D03*
X005145Y016016D03*
X006520Y016141D03*
X006520Y015641D03*
X006520Y015141D03*
X007270Y015141D03*
X007645Y015516D03*
X008020Y015141D03*
X008770Y015391D03*
X008770Y014766D03*
X008770Y016141D03*
X009895Y015391D03*
X009895Y014891D03*
X009645Y013016D03*
X009145Y010141D03*
X010145Y010141D03*
X011145Y010141D03*
X012145Y012016D03*
X013145Y011016D03*
X010145Y008141D03*
X009645Y008141D03*
X008895Y008641D03*
X008395Y008641D03*
X007895Y008641D03*
X007395Y008641D03*
X006895Y008641D03*
X006145Y008141D03*
X005895Y007141D03*
X005395Y007141D03*
X005020Y007516D03*
X005145Y006141D03*
X006520Y006266D03*
X006520Y005766D03*
X006520Y005266D03*
X007270Y005266D03*
X007645Y005641D03*
X008020Y005266D03*
X008770Y005516D03*
X008770Y004891D03*
X008770Y006266D03*
X009895Y005516D03*
X009895Y005016D03*
X009645Y003141D03*
X007270Y003266D03*
X006145Y003266D03*
X003145Y003766D03*
X001145Y002891D03*
X001145Y002391D03*
X001645Y007891D03*
X001645Y008641D03*
X001645Y009391D03*
X003145Y009391D03*
X003145Y009891D03*
X003645Y009391D03*
X001145Y012266D03*
X001145Y012766D03*
X003145Y013641D03*
X001645Y017766D03*
X001645Y018516D03*
X001645Y019266D03*
X003145Y019266D03*
X003145Y019766D03*
X003645Y019266D03*
X006145Y013141D03*
X007270Y013141D03*
X009145Y020016D03*
X010145Y020016D03*
X011145Y020016D03*
X012145Y002141D03*
X013145Y001141D03*
D28*
X012645Y006141D02*
X012145Y006141D01*
X011645Y006641D01*
X011645Y007891D01*
X010690Y008846D01*
X010645Y008846D01*
X010315Y008846D01*
X010145Y009016D01*
X010145Y009266D01*
X009935Y009476D01*
X009645Y009476D01*
X006145Y009476D01*
X005605Y009476D01*
X004895Y008766D01*
X004480Y008766D01*
X004480Y007891D01*
X003810Y007891D02*
X003395Y007891D01*
X003270Y007766D01*
X003270Y006266D01*
X003157Y006153D01*
X002672Y006153D01*
X002672Y016028D02*
X003157Y016028D01*
X003270Y016141D01*
X003270Y017641D01*
X003395Y017766D01*
X003810Y017766D01*
X004480Y017766D02*
X004480Y018641D01*
X004895Y018641D01*
X005605Y019351D01*
X006145Y019351D01*
X009645Y019351D01*
X009935Y019351D01*
X010145Y019141D01*
X010145Y018891D01*
X010315Y018721D01*
X010645Y018721D01*
X010690Y018721D01*
X011645Y017766D01*
X011645Y016516D01*
X012145Y016016D01*
X012645Y016016D01*
M02*
