%
M48
M72
T01C0.0197
T02C0.0217
T03C0.0394
T04C0.0400
%
T01
X1645Y19266
X1645Y18516
X1645Y17766
X3145Y13641
X1145Y12766
X1145Y12266
X1645Y9391
X1645Y8641
X1645Y7891
X3145Y3766
X1145Y2891
X1145Y2391
X5020Y7516
X5395Y7141
X5895Y7141
X6520Y6266
X6520Y5766
X6520Y5266
X7270Y5266
X7645Y5641
X8020Y5266
X8770Y5516
X8770Y4891
X8770Y6266
X9895Y5516
X9895Y5016
X9645Y3141
X7270Y3266
X6145Y3266
X5145Y6141
X6145Y8141
X6895Y8641
X7395Y8641
X7895Y8641
X8395Y8641
X8895Y8641
X9645Y8141
X10145Y8141
X10145Y10141
X9145Y10141
X11145Y10141
X12145Y12016
X13145Y11016
X9895Y14891
X9895Y15391
X8770Y15391
X8770Y14766
X8020Y15141
X7645Y15516
X7270Y15141
X6520Y15141
X6520Y15641
X6520Y16141
X5895Y17016
X5395Y17016
X5020Y17391
X6145Y18016
X6895Y18516
X7395Y18516
X7895Y18516
X8395Y18516
X8895Y18516
X9645Y18016
X10145Y18016
X10145Y20016
X9145Y20016
X11145Y20016
X8770Y16141
X7270Y13141
X6145Y13141
X5145Y16016
X3645Y19266
X3145Y19266
X3145Y19766
X9645Y13016
X3645Y9391
X3145Y9391
X3145Y9891
X12145Y2141
X13145Y1141
T02
X2366Y4854
X2366Y6428
X2366Y14729
X2366Y16303
T03
X1520Y16628
X1520Y14404
X1520Y6753
X1520Y4529
T04
X10645Y16516
X10645Y15516
X10645Y14516
X11645Y14516
X11645Y15516
X11645Y16516
X12645Y16016
X12645Y15016
X12645Y14016
X12645Y13016
X12645Y17016
X12645Y18016
X12645Y8141
X12645Y7141
X12645Y6141
X12645Y5141
X12645Y4141
X12645Y3141
X11645Y4641
X11645Y5641
X11645Y6641
X10645Y6641
X10645Y5641
X10645Y4641
M30
